<svg width="60" height="60" viewBox="0 0 60 60" fill="none" xmlns="http://www.w3.org/2000/svg">
<g clip-path="url(#clip0_255_957)">
<path d="M46.875 60H30C28.965 60 28.125 59.16 28.125 58.125V44.375C28.125 43.34 28.965 42.5 30 42.5H46.875C47.91 42.5 48.75 43.34 48.75 44.375V58.125C48.75 59.16 47.91 60 46.875 60ZM31.875 56.25H45V46.25H31.875V56.25Z" fill="#DF1119"/>
<path d="M38.125 46.25H21.875C20.84 46.25 20 45.41 20 44.375V29.375C20 28.34 20.84 27.5 21.875 27.5H38.125C39.16 27.5 40 28.34 40 29.375V44.375C40 45.41 39.16 46.25 38.125 46.25ZM23.75 42.5H36.25V31.25H23.75V42.5Z" fill="#DF1119"/>
<path d="M30 60H13.125C12.09 60 11.25 59.16 11.25 58.125V44.375C11.25 43.34 12.09 42.5 13.125 42.5H30C31.035 42.5 31.875 43.34 31.875 44.375V58.125C31.875 59.16 31.035 60 30 60ZM15 56.25H28.125V46.25H15V56.25Z" fill="#DF1119"/>
<path d="M30 35C28.965 35 28.125 34.16 28.125 33.125V29.375C28.125 28.34 28.965 27.5 30 27.5C31.035 27.5 31.875 28.34 31.875 29.375V33.125C31.875 34.16 31.035 35 30 35Z" fill="#DF1119"/>
<path d="M21.875 50C20.84 50 20 49.16 20 48.125V44.375C20 43.34 20.84 42.5 21.875 42.5C22.91 42.5 23.75 43.34 23.75 44.375V48.125C23.75 49.16 22.91 50 21.875 50Z" fill="#DF1119"/>
<path d="M38.125 50C37.09 50 36.25 49.16 36.25 48.125V44.375C36.25 43.34 37.09 42.5 38.125 42.5C39.16 42.5 40 43.34 40 44.375V48.125C40 49.16 39.16 50 38.125 50Z" fill="#DF1119"/>
<path d="M55.625 59.9999H4.375C1.9625 59.9999 0 58.0374 0 55.6249V21.2499C0 20.6324 0.305 20.0549 0.8125 19.7049L28.9375 0.329922C29.5775 -0.112578 30.425 -0.112578 31.065 0.329922L59.19 19.7049C59.695 20.0549 60 20.6324 60 21.2499V55.6249C60 58.0374 58.0375 59.9999 55.625 59.9999ZM3.75 22.2349V55.6249C3.75 55.9699 4.03 56.2499 4.375 56.2499H55.625C55.97 56.2499 56.25 55.9699 56.25 55.6249V22.2349L30 4.15242L3.75 22.2349Z" fill="#DF1119"/>
</g>
<defs>
<clipPath id="clip0_255_957">
<rect width="60" height="60" fill="white"/>
</clipPath>
</defs>
</svg>
