<svg width="39" height="13" viewBox="0 0 39 13" fill="none" xmlns="http://www.w3.org/2000/svg">
<path d="M38.6044 7.85769C39.1319 7.59398 39.1319 6.73695 38.6044 6.47325C34.5171 4.23177 30.3637 2.18808 25.8808 1.00141C25.2215 0.869563 24.5623 1.59475 24.9578 2.18808C25.8808 3.50659 27.0015 4.62733 28.32 5.61621C19.0905 5.35251 9.53123 4.09992 0.433491 6.27547C-0.225765 6.40732 -0.0939178 7.52795 0.565449 7.46202C9.99282 6.27547 19.3543 7.19843 28.7816 7.33017C27.7927 8.45091 26.8039 9.57165 25.815 10.6265C25.3535 11.0879 25.6172 12.0769 26.4083 12.011C30.7593 11.4835 34.8467 10.0331 38.6044 7.85769ZM30.7593 7.1325C31.3526 6.73695 31.2208 5.61621 30.2978 5.61621C30.2319 5.61621 30.166 5.61621 30.166 5.61621C29.3749 4.8251 28.5837 4.09992 27.7926 3.24289C30.8252 4.2977 33.66 5.61621 36.4948 7.1324C33.9237 8.45091 31.2867 9.43979 28.4519 9.9672C29.1112 9.24202 29.7704 8.45091 30.4956 7.72562C30.7593 7.59398 30.8252 7.33017 30.7593 7.1325Z" fill="white"/>
</svg>
