<svg width="18" height="24" viewBox="0 0 18 24" fill="none" xmlns="http://www.w3.org/2000/svg">
<path d="M8.89018 0C7.64827 0 6.45723 0.49386 5.57907 1.37294C4.70091 2.25201 4.20756 3.4443 4.20756 4.6875V5.46875H3.5598C2.90276 5.46806 2.27077 5.72107 1.7954 6.1751C1.32003 6.62914 1.03791 7.24922 1.00777 7.90625L0.391228 20.7578C0.375423 21.1034 0.429685 21.4486 0.550743 21.7726C0.6718 22.0967 0.857146 22.3928 1.09561 22.6432C1.33407 22.8936 1.62071 23.093 1.93826 23.2296C2.2558 23.3661 2.59767 23.4368 2.94325 23.4375H14.8371C15.1827 23.4368 15.5246 23.3661 15.8421 23.2296C16.1596 23.093 16.4463 22.8936 16.6847 22.6432C16.9232 22.3928 17.1086 22.0967 17.2296 21.7726C17.3507 21.4486 17.4049 21.1034 17.3891 20.7578L16.7726 7.90625C16.7424 7.24922 16.4603 6.62914 15.985 6.1751C15.5096 5.72107 14.8776 5.46806 14.2206 5.46875H13.5728V4.6875C13.5728 3.4443 13.0794 2.25201 12.2013 1.37294C11.3231 0.49386 10.1321 0 8.89018 0ZM5.76843 4.6875C5.76843 3.8587 6.09733 3.06384 6.68277 2.47779C7.26821 1.89174 8.06224 1.5625 8.89018 1.5625C9.71812 1.5625 10.5121 1.89174 11.0976 2.47779C11.683 3.06384 12.0119 3.8587 12.0119 4.6875V5.46875H5.76843V4.6875ZM15.2117 7.97656L15.8283 20.8359C15.8331 20.9703 15.8115 21.1043 15.7647 21.2303C15.7178 21.3563 15.6466 21.4719 15.5551 21.5703C15.4617 21.6663 15.3501 21.7428 15.2268 21.7951C15.1035 21.8474 14.971 21.8746 14.8371 21.875H2.94325C2.80935 21.8746 2.67687 21.8474 2.55359 21.7951C2.4303 21.7428 2.31868 21.6663 2.22525 21.5703C2.13376 21.4719 2.06255 21.3563 2.01568 21.2303C1.96881 21.1043 1.94721 20.9703 1.9521 20.8359L2.56865 7.97656C2.58069 7.72163 2.69041 7.48114 2.875 7.30509C3.05958 7.12904 3.30484 7.03096 3.5598 7.03125H14.2206C14.4755 7.03096 14.7208 7.12904 14.9054 7.30509C15.0899 7.48114 15.1997 7.72163 15.2117 7.97656Z" fill="white"/>
</svg>
