<svg width="74" height="74" viewBox="0 0 74 74" fill="none" xmlns="http://www.w3.org/2000/svg">
<path d="M70.8606 50.1182C70.6363 50.7909 70.4121 51.4637 70.0757 52.0243C69.403 53.7061 67.9454 54.9394 66.2636 55.3879C65.703 55.6121 65.1424 55.6121 64.4697 55.6121H64.3576C60.9939 60.7697 56.2848 64.8061 50.6788 67.3849C50.6788 67.9455 50.6788 68.394 50.4545 68.8424C50.1182 69.7394 49.3333 70.3 48.5485 70.6364C47.6515 70.9727 46.6424 71.197 45.7454 71.5334C45.4091 71.7576 45.1848 71.7576 44.8485 71.7576C44.1757 71.7576 43.6151 71.5334 43.0545 71.197C42.2697 70.7485 41.7091 69.8515 41.5969 68.9546C41.2606 67.2728 42.3818 65.5909 44.0636 65.1424C44.8485 64.9182 45.5212 64.694 46.306 64.4697C47.6515 64.0212 48.9969 64.4697 49.8939 65.3667C54.8272 63.1243 58.9757 59.5364 62.1151 55.1637C61.8909 55.0515 61.5545 54.9394 61.3303 54.7152C60.2091 54.0424 59.8727 52.5849 60.5454 51.4637C61.8909 49.1091 62.9 46.5303 63.5727 43.8394C63.9091 42.6061 65.0303 41.7091 66.3757 41.9333C66.7121 41.9333 66.9363 42.0455 67.2727 42.1576C67.4969 40.7 67.6091 39.1303 67.6091 37.6727C67.6091 30.3849 65.0303 23.3212 60.3212 17.8273C58.8636 18.5 57.1818 18.3879 55.9485 17.2667C50.6788 12.6697 43.9515 9.9788 37 9.9788C30.0485 9.9788 23.4333 12.5576 18.2757 17.2667C17.4909 17.9394 16.5939 18.2758 15.5848 18.2758C15.0242 18.2758 14.3515 18.1636 13.7909 17.8273C9.08178 23.3212 6.39087 30.3849 6.39087 37.6727C6.39087 39.1303 6.50299 40.7 6.72723 42.1576C6.95148 42.0455 7.28784 41.9333 7.62421 41.9333C8.96966 41.8212 10.203 42.6061 10.5394 43.8394C11.2121 46.6424 12.2212 49.2212 13.6788 51.6879C14.3515 52.8091 14.0151 54.2667 13.006 54.9394C11.9969 55.6121 10.8757 55.9485 9.64239 55.9485C9.08178 55.9485 8.52117 55.8364 7.96057 55.7243C6.27875 55.1637 4.82117 54.0424 4.14845 52.3606C3.69996 51.5758 3.3636 50.7909 3.02723 50.0061C2.46663 48.3243 2.57875 46.5303 3.47572 44.9606C3.81208 44.4 4.26057 43.8394 4.70905 43.3909C4.37269 41.4849 4.14845 39.5788 4.14845 37.6727C4.14845 29.8243 6.95148 22.2 12.1091 16.2576C11.7727 15.697 11.5484 15.0243 11.5484 14.3515C11.5484 13.2303 11.9969 12.2212 12.7818 11.5485C19.5091 5.60607 28.0303 2.24243 37 2.24243C45.9697 2.24243 54.4909 5.60607 61.106 11.6606C61.8909 12.3333 62.3394 13.4546 62.3394 14.4636C62.3394 15.1364 62.1151 15.8091 61.7788 16.3697C66.9363 22.3121 69.7394 29.9364 69.7394 37.7849C69.7394 39.6909 69.5151 41.597 69.1788 43.503C69.6273 43.9515 70.0757 44.4 70.4121 44.9606C71.4212 46.5303 71.5333 48.4364 70.8606 50.1182Z" fill="white"/>
<path d="M36.9999 15.3606C24.6666 15.3606 14.5757 25.4515 14.5757 37.7848C14.5757 45.4091 18.3878 52.3606 24.6666 56.5091V62.9C24.6666 63.2363 24.8908 63.6848 25.2272 63.797C25.4514 63.9091 25.6757 64.0212 25.7878 64.0212C25.8999 64.0212 26.1242 64.0212 26.2363 63.9091L34.4211 60.0969C35.3181 60.2091 36.2151 60.3212 36.9999 60.3212C49.3333 60.3212 59.4242 50.2303 59.4242 37.897C59.4242 25.3394 49.3333 15.3606 36.9999 15.3606ZM36.9999 57.9666C36.103 57.9666 35.206 57.8545 34.309 57.7424C34.309 57.7424 34.309 57.7424 34.1969 57.7424C34.0848 57.7424 34.0848 57.7424 33.9727 57.7424C33.8605 57.7424 33.8605 57.7424 33.7484 57.7424C33.7484 57.7424 33.7484 57.7424 33.6363 57.7424L26.909 61.106V55.8363V55.7242C26.909 55.6121 26.909 55.5 26.909 55.5C26.909 55.3879 26.909 55.3879 26.7969 55.2757C26.7969 55.1636 26.6848 55.1636 26.6848 55.0515C26.6848 54.9394 26.5727 54.9394 26.5727 54.8273C26.5727 54.8273 26.5727 54.8273 26.4605 54.7151C20.5181 51.0151 16.9302 44.6242 16.9302 37.5606C16.9302 26.4606 26.012 17.3788 37.112 17.3788C48.212 17.3788 57.2939 26.4606 57.2939 37.5606C57.2939 48.6606 48.0999 57.9666 36.9999 57.9666Z" fill="white"/>
<path d="M49.4454 49.2213C48.6605 50.3425 47.3151 51.1273 45.8575 51.1273H28.0302C26.5726 51.1273 25.3393 50.4546 24.5545 49.2213C23.7696 48.1001 23.5454 46.5304 24.106 45.1849C26.012 40.3637 30.7211 37.5607 36.9999 37.5607C43.2787 37.5607 48.0999 40.3637 49.8939 45.1849C50.4545 46.5304 50.2302 47.9879 49.4454 49.2213Z" fill="white"/>
<path d="M43.0545 28.9272C43.0545 32.2909 40.3636 34.9818 37 34.9818C33.6363 34.9818 30.9454 32.2909 30.9454 28.9272C30.9454 25.5636 33.6363 22.8727 37 22.8727C40.3636 22.8727 43.0545 25.5636 43.0545 28.9272Z" fill="white"/>
</svg>
