<svg width="72" height="72" viewBox="0 0 72 72" fill="none" xmlns="http://www.w3.org/2000/svg">
<path fill-rule="evenodd" clip-rule="evenodd" d="M8.27142 35.0594C7.82536 35.7421 6.76856 35.7785 6.31913 34.9411L3.48525 30.0776C3.17461 29.5412 3.35756 28.8546 3.89391 28.5439C4.43025 28.2333 5.11692 28.4162 5.42756 28.9526L6.42938 30.6717C8.30334 15.0497 21.6039 3.09375 37.5552 3.09375C54.8696 3.09375 68.9062 17.1302 68.9062 34.4448C68.9062 42.8466 65.5629 50.7741 59.7237 56.6134C59.2844 57.0527 58.5721 57.0527 58.1328 56.6134C57.6935 56.1741 57.6935 55.4618 58.1328 55.0225C69.4839 43.6714 69.5192 25.2536 58.1328 13.8672C46.7682 2.50256 28.342 2.50256 16.9774 13.8672C12.4931 18.3514 9.46617 24.2927 8.66587 30.9196L9.96173 29.2648C10.3427 28.7769 11.0471 28.6905 11.535 29.0714C12.0229 29.4524 12.1094 30.1569 11.7284 30.6447L8.27142 35.0594ZM3.09375 39.0983V65.1315H8.28619C8.28619 62.4255 10.4802 60.2317 13.186 60.2317C15.8919 60.2317 18.0858 62.4255 18.0858 65.1315H32.55V60.3032H26.8176C26.1987 60.3032 25.697 59.8015 25.697 59.1826C25.697 58.5637 26.1987 58.062 26.8176 58.062H32.55V57.0102H19.89C19.2711 57.0102 18.7694 56.5085 18.7694 55.8896C18.7694 55.2707 19.2711 54.7689 19.89 54.7689H32.55V39.0983H22.8822V47.9872C22.8822 48.971 21.6564 49.547 20.8972 48.7122L18.4196 46.1832L15.8819 48.7738C15.1789 49.49 13.9604 48.9842 13.9604 47.9872H13.957V39.0983H3.09375ZM15.082 39.0983V47.9872L18.4196 44.5801L21.7572 47.9872V39.0983H15.082ZM36.3628 55.8896H44.4369L41.2817 49.5758H36.3628V55.8896ZM40.6732 61.3567C38.5885 61.3567 36.8985 63.0467 36.8985 65.1315C36.8985 67.2162 38.5885 68.9062 40.6732 68.9062C42.758 68.9062 44.448 67.2162 44.448 65.1315C44.448 63.0467 42.758 61.3567 40.6732 61.3567ZM40.6732 63.5833C41.5282 63.5833 42.2214 64.2765 42.2214 65.1315C42.2214 65.9865 41.5282 66.6795 40.6732 66.6795C39.8182 66.6795 39.1251 65.9863 39.1251 65.1315C39.1251 64.2765 39.8182 63.5833 40.6732 63.5833ZM13.1861 61.3567C15.2709 61.3567 16.9609 63.0467 16.9609 65.1315C16.9609 67.2162 15.2709 68.9062 13.1861 68.9062C11.1014 68.9062 9.41133 67.2162 9.41133 65.1315C9.41119 63.0467 11.1012 61.3567 13.1861 61.3567ZM13.186 63.5833C14.041 63.5833 14.7341 64.2765 14.7341 65.1315C14.7341 65.9865 14.041 66.6795 13.186 66.6795C12.331 66.6795 11.638 65.9863 11.638 65.1315C11.638 64.2765 12.3311 63.5833 13.186 63.5833ZM42.9825 46.6478H33.7455V65.1315H35.7735C35.7735 62.4255 37.9673 60.2317 40.6732 60.2317C43.3792 60.2317 45.573 62.4255 45.573 65.1315H47.7595V56.2067L42.9825 46.6478ZM44.4369 57.0146C45.231 57.0146 45.8806 56.1679 45.3923 55.2956L42.2836 49.0748C42.0874 48.6825 41.6922 48.4557 41.2816 48.4553V48.4507H36.3628C35.7415 48.4507 35.2378 48.9544 35.2378 49.5757V55.8894C35.2378 56.5107 35.7415 57.0144 36.3628 57.0144H44.4369V57.0146ZM38.6802 12.3646V20.4304C41.3347 20.3753 43.9173 20.1279 46.4108 19.6734C44.5828 15.9303 41.9008 12.9465 38.6802 12.3646ZM32.2881 11.7263C28.1236 12.6721 24.3759 14.7146 21.3649 17.5344C22.8627 18.1848 24.5708 18.7459 26.4433 19.1976C27.8578 16.1371 29.8132 13.4131 32.2881 11.7263ZM19.7474 19.2043C15.5985 23.9286 13.3878 30.2161 13.9473 36.8484H23.34C23.3265 36.5522 23.3158 36.2547 23.3082 35.9557H20.5066C19.8854 35.9557 19.3816 35.452 19.3816 34.8307C19.3816 34.2094 19.8854 33.7057 20.5066 33.7057H23.308C23.424 29.1386 24.2422 24.8882 25.5739 21.2944C23.5339 20.7824 21.6712 20.1426 20.0409 19.3989C19.9305 19.3485 19.8322 19.2824 19.7474 19.2043ZM49.7457 55.1483C56.3351 51.1862 60.8394 44.1105 61.2207 35.9557H51.8019C51.6859 40.5235 50.8674 44.7744 49.5354 48.3687C50.223 48.5411 50.8899 48.728 51.5344 48.9282C52.1266 49.1102 52.4592 49.7379 52.2771 50.3301C52.0951 50.9223 51.4673 51.2549 50.8752 51.0728C50.1678 50.8528 49.4304 50.65 48.6661 50.4655C48.465 50.9006 48.2557 51.3233 48.0386 51.7326L49.7457 55.1483ZM61.2207 33.7057C60.7169 22.9328 53.0191 14.0413 42.8221 11.7264C45.2967 13.413 47.2524 16.1371 48.6667 19.1976C49.4308 19.0132 50.168 18.8104 50.8752 18.5905C51.4673 18.4085 52.095 18.741 52.2771 19.3331C52.459 19.9253 52.1266 20.5529 51.5344 20.735C50.8902 20.9353 50.2234 21.122 49.5361 21.2946C50.868 24.8884 51.6862 29.1388 51.802 33.7058H61.2207V33.7057ZM36.4302 44.398V35.9557H25.5589C25.5667 36.255 25.578 36.5525 25.5921 36.8484H34.8V44.398H36.4302ZM45.9932 47.6397C46.4434 47.7134 46.8873 47.793 47.3248 47.8779C48.6285 44.4729 49.4342 40.3843 49.5515 35.9556H38.6802V44.3978H44.3734L45.9932 47.6397ZM25.5586 33.7057H36.43V22.6807C33.3915 22.619 30.4799 22.3086 27.7845 21.7853C26.4814 25.1897 25.6757 29.2777 25.5586 33.7057ZM38.6802 33.7057H49.5516C49.4345 29.2777 48.6288 25.1896 47.3255 21.7852C44.5413 22.3266 41.6102 22.6208 38.6802 22.6807V33.7057ZM28.6995 19.6736C31.0905 20.1094 33.6935 20.3733 36.4302 20.4303V12.3646C33.2094 12.9465 30.5265 15.9314 28.6995 19.6736Z" fill="white"/>
</svg>
