<svg width="51" height="39" viewBox="0 0 51 39" fill="none" xmlns="http://www.w3.org/2000/svg">
<path d="M46.9086 15.0706L45.4673 12.188C44.9577 11.1688 43.9336 10.5357 42.7945 10.5357H34.4635V3.56338C34.4635 1.91574 33.123 0.575195 31.4753 0.575195H2.98818C1.34044 0.575195 0 1.91564 0 3.56338V29.4607C0 31.1084 1.34044 32.4489 2.98818 32.4489H5.97637C5.97637 33.9783 6.5546 35.375 7.50298 36.4331H0.996095C0.445952 36.4331 0 36.8792 0 37.4292C0 37.9792 0.445952 38.4253 0.996095 38.4253H50.002C50.5521 38.4253 50.9981 37.9792 50.9981 37.4292C50.9981 36.8792 50.5521 36.4331 50.002 36.4331H47.4792C48.4277 35.3749 49.0059 33.9783 49.0059 32.4489C49.0059 32.3922 49.0032 32.3357 49.0016 32.279C50.1631 31.869 50.998 30.7608 50.998 29.4607V23.9545C50.998 22.7922 51.2281 23.8773 46.9086 15.0706ZM45.4021 16.512L48.3903 22.4884H38.4477V16.512H45.4021ZM1.99209 24.4805H3.98418V26.4726H1.99209V24.4805ZM11.9526 36.4331C9.75575 36.4331 7.96846 34.6457 7.96846 32.4489C7.96846 32.1776 7.99535 31.9105 8.04914 31.6509C8.42377 29.8047 10.0654 28.4647 11.9526 28.4647C13.8398 28.4647 15.4816 29.8046 15.8561 31.6509C15.8564 31.6524 15.8567 31.6536 15.857 31.655C15.91 31.9104 15.9368 32.1776 15.9368 32.4489C15.9368 34.6458 14.1495 36.4331 11.9526 36.4331ZM11.9526 26.4726C9.40054 26.4726 7.14827 28.1075 6.31793 30.4567H2.98818C2.43894 30.4567 1.99209 30.0099 1.99209 29.4606V28.4646H4.98027C5.53042 28.4646 5.97637 28.0185 5.97637 27.4685V23.4843C5.97637 22.9342 5.53042 22.4882 4.98027 22.4882H1.99209V3.56338C1.99209 3.01413 2.43894 2.56729 2.98818 2.56729H31.4753C32.0245 2.56729 32.4714 3.01413 32.4714 3.56338C32.4714 4.30437 32.4714 28.0681 32.4714 30.4568H17.5868C16.755 28.1063 14.5036 26.4726 11.9526 26.4726ZM16.4023 36.4331C17.3508 35.3749 17.9289 33.9783 17.9289 32.4489C18.6937 32.4489 36.7275 32.4489 37.0531 32.4489C37.0531 33.9783 37.6314 35.375 38.5797 36.4331H16.4023ZM43.0295 36.4331C40.8326 36.4331 39.0453 34.6457 39.0453 32.4489C39.0453 32.1776 39.0722 31.9105 39.126 31.6509C39.5006 29.8047 41.1423 28.4647 43.0295 28.4647C44.9167 28.4647 46.5585 29.8046 46.933 31.6509C46.9333 31.6524 46.9336 31.6536 46.9339 31.655C46.9869 31.9104 47.0137 32.1776 47.0137 32.4489C47.0138 34.6458 45.2264 36.4331 43.0295 36.4331ZM49.0059 29.4607C49.0059 29.792 48.8426 30.0852 48.5931 30.2665C47.7094 28.0184 45.5111 26.4727 43.0295 26.4727C40.4774 26.4727 38.2251 28.1076 37.3948 30.4568H34.4634V12.5278H42.7944C43.1741 12.5278 43.5155 12.739 43.6854 13.0788L44.406 14.5199H37.4517C36.9015 14.5199 36.4556 14.966 36.4556 15.516V23.4845C36.4556 24.0345 36.9015 24.4806 37.4517 24.4806H49.0059V29.4607Z" fill="#DF1119"/>
</svg>
