<svg width="48" height="56" viewBox="0 0 48 56" fill="none" xmlns="http://www.w3.org/2000/svg">
<path d="M47.7367 32.9763L43.4687 25.5843C43.3692 25.4119 43.2137 25.2785 43.0281 25.2063L34.017 21.7026C34.2974 20.756 34.4488 19.7544 34.4488 18.7181C34.4488 12.9163 29.7287 8.19623 23.9269 8.19623C18.1251 8.19623 13.4051 12.9163 13.4051 18.7181C13.4051 19.7545 13.5564 20.756 13.8369 21.7026L4.82579 25.2063C4.64018 25.2785 4.48465 25.4119 4.38512 25.5843L0.117202 32.9763C-0.0104386 33.1974 -0.0351573 33.4633 0.0496083 33.7041C0.134264 33.945 0.319983 34.1368 0.557874 34.2293L4.26776 35.6719V47.7119C4.26776 48.0727 4.48936 48.3966 4.82579 48.5274L23.6097 55.8311C23.7118 55.8708 23.8193 55.8906 23.9268 55.8906C24.0343 55.8906 24.142 55.8708 24.2439 55.8311L43.0278 48.5274C43.3643 48.3966 43.5859 48.0727 43.5859 47.7119V35.6719L47.2958 34.2293C47.5338 34.1368 47.7194 33.945 47.804 33.7041C47.889 33.4633 47.8643 33.1975 47.7367 32.9763ZM23.927 9.94623C28.7639 9.94623 32.6989 13.8813 32.6989 18.7181C32.6989 23.5549 28.7638 27.49 23.927 27.49C19.0903 27.49 15.1552 23.5549 15.1552 18.7181C15.1552 13.8813 19.0902 9.94623 23.927 9.94623ZM23.927 29.24C28.0962 29.24 31.7068 26.8026 33.4086 23.2778L40.314 26.0151L23.927 32.3868L7.53993 26.0151L14.4453 23.2778C16.1472 26.8026 19.7578 29.24 23.927 29.24ZM2.14294 32.9679L5.52547 27.1094L22.6592 33.7715L19.2766 39.6302L2.14294 32.9679ZM6.01798 36.3523L19.3421 41.5332C19.7445 41.6895 20.2011 41.5291 20.417 41.1552L23.052 36.5912V53.7366L6.01798 47.1133V36.3523ZM41.8361 47.1133L24.802 53.7366V36.5912L27.4371 41.1553C27.6531 41.5293 28.1095 41.6897 28.5119 41.5333L41.8361 36.3524V47.1133ZM28.5774 39.6302L25.1948 33.7715L42.3286 27.1094L45.7111 32.9679L28.5774 39.6302ZM21.7499 24.4019C22.3556 24.4019 22.9257 24.1654 23.355 23.7361L30.1761 16.9152C31.0623 16.0288 31.0623 14.5866 30.176 13.7C29.7467 13.2707 29.1757 13.0342 28.5686 13.0342C27.9614 13.0342 27.3905 13.2707 26.9611 13.7L21.9401 18.7211L20.6001 17.0348C20.1667 16.4897 19.5185 16.177 18.8216 16.177C18.3112 16.177 17.8097 16.3522 17.4094 16.6703C16.4294 17.4496 16.266 18.8809 17.0449 19.8608L19.9 23.4535C20.3267 24.0481 21.016 24.402 21.7499 24.4019ZM18.4982 18.0401C18.6159 17.9466 18.7389 17.9269 18.8215 17.9269C18.9818 17.9269 19.1306 17.9986 19.2299 18.1235L21.1801 20.5777C21.3353 20.7729 21.5663 20.8927 21.8153 20.9069C22.0637 20.9208 22.3075 20.8284 22.4838 20.6521L28.1984 14.9375C28.2971 14.8386 28.4286 14.7842 28.5685 14.7842C28.7084 14.7842 28.8396 14.8387 28.9384 14.9373C29.1425 15.1415 29.1426 15.4737 28.9385 15.6778L22.1175 22.4988C21.9909 22.6253 21.8476 22.6519 21.7497 22.6519C21.5746 22.6519 21.417 22.5699 21.3171 22.4269C21.3067 22.412 21.296 22.3976 21.2848 22.3835L18.4149 18.7719C18.2362 18.5472 18.2737 18.2188 18.4982 18.0401ZM23.052 4.97317V0.875C23.052 0.391781 23.4437 0 23.927 0C24.4103 0 24.802 0.391781 24.802 0.875V4.97317C24.802 5.45639 24.4103 5.84817 23.927 5.84817C23.4437 5.84817 23.052 5.45639 23.052 4.97317ZM14.2168 3.58783C13.9752 3.16936 14.1187 2.63419 14.5372 2.39258C14.9556 2.15108 15.4908 2.29436 15.7324 2.71283L17.7815 6.26194C18.0231 6.68041 17.8797 7.21558 17.4612 7.45719C17.3234 7.5367 17.1729 7.57455 17.0245 7.57455C16.7221 7.57455 16.4281 7.41759 16.2659 7.13694L14.2168 3.58783ZM7.60151 9.15961C7.84312 8.74103 8.37829 8.59764 8.79676 8.83936L12.3459 10.8884C12.7643 11.13 12.9077 11.6652 12.6661 12.0836C12.5041 12.3643 12.2099 12.5213 11.9075 12.5213C11.7591 12.5213 11.6087 12.4834 11.4709 12.4039L7.92176 10.3549C7.50329 10.1132 7.3599 9.57808 7.60151 9.15961ZM4.9787 18.4878C4.9787 18.0045 5.37037 17.6128 5.8537 17.6128H9.95176C10.4351 17.6128 10.8268 18.0045 10.8268 18.4878C10.8268 18.971 10.4351 19.3628 9.95176 19.3628H5.8537C5.37037 19.3628 4.9787 18.9711 4.9787 18.4878ZM30.0109 6.49217L32.0599 2.94306C32.3016 2.52448 32.8367 2.38098 33.2552 2.62281C33.6737 2.86442 33.8172 3.39959 33.5756 3.81806L31.5264 7.36717C31.3643 7.64783 31.0702 7.80478 30.7678 7.80478C30.6194 7.80478 30.4689 7.76694 30.3311 7.68742C29.9127 7.44592 29.7693 6.91075 30.0109 6.49217ZM34.9577 12.4825C34.7161 12.0641 34.8595 11.5289 35.278 11.2873L38.8271 9.23825C39.2456 8.99675 39.7807 9.14014 40.0223 9.5585C40.2639 9.97697 40.1206 10.5121 39.7021 10.7537L36.153 12.8028C36.0152 12.8823 35.8648 12.9201 35.7163 12.9201C35.4138 12.9201 35.1197 12.7632 34.9577 12.4825ZM37.4417 18.0733H41.5398C42.0231 18.0733 42.4148 18.4651 42.4148 18.9483C42.4148 19.4316 42.0231 19.8233 41.5398 19.8233H37.4417C36.9584 19.8233 36.5667 19.4316 36.5667 18.9483C36.5667 18.4651 36.9585 18.0733 37.4417 18.0733Z" fill="#DF1119"/>
</svg>
