<svg width="43" height="43" viewBox="0 0 43 43" fill="none" xmlns="http://www.w3.org/2000/svg">
<path d="M21.2871 0C21.0263 0 20.7654 0.019241 20.5046 0.0598642C19.9872 0.141106 19.4869 0.301451 19.0188 0.534483L2.3752 8.85737C0.921444 9.58424 0 11.0744 0 12.697V41.076C0 41.6361 0.455375 42.0894 1.01553 42.0915H41.5545C42.1146 42.0894 42.57 41.6361 42.57 41.076V12.697C42.57 11.0722 41.6486 9.58211 40.1969 8.85737L23.5512 0.534483C22.8456 0.181728 22.0696 0.00213449 21.2871 0ZM21.2871 2.02673C21.7553 2.02673 22.2213 2.13576 22.6447 2.34742L39.2882 10.6703C40.0579 11.0551 40.5411 11.8376 40.5411 12.697V40.0623H36.9943V18.7792C36.9943 18.2191 36.541 17.7659 35.9809 17.7659H6.58891C6.02879 17.7659 5.57551 18.2191 5.57551 18.7792V40.0623H2.0287V12.697C2.0287 11.8355 2.51187 11.0551 3.28154 10.6703L19.9251 2.34961C20.2052 2.20851 20.5066 2.1123 20.8188 2.06527C20.9748 2.04175 21.1309 2.02892 21.287 2.02892L21.2871 2.02673ZM21.2871 7.3865C19.2005 7.3865 17.4859 9.1011 17.4859 11.1877C17.4859 13.2743 19.2005 14.9889 21.2871 14.9889C23.3737 14.9889 25.0883 13.2743 25.0883 11.1877C25.0883 9.1011 23.3737 7.3865 21.2871 7.3865ZM21.2871 9.41323C22.2791 9.41323 23.0616 10.1957 23.0616 11.1877C23.0616 12.1797 22.2791 12.9622 21.2871 12.9622C20.2951 12.9622 19.5126 12.1797 19.5126 11.1877C19.5126 10.1957 20.2951 9.41323 21.2871 9.41323ZM7.60443 19.7929H34.9697V40.0624H31.4229V32.9687C31.4229 32.4086 30.9675 31.9553 30.4095 31.9553H26.8606V24.8595C26.8606 24.2994 26.4073 23.8461 25.8472 23.8461H16.7269C16.1668 23.8461 15.7135 24.2994 15.7135 24.8595V31.9553H12.1645C11.6044 31.9553 11.1511 32.4086 11.1511 32.9687V40.0646L7.60432 40.0624L7.60443 19.7929ZM17.7405 25.8729H24.8342V31.9529L21.2874 31.9551H17.7405V25.8729ZM13.1782 33.9818H20.2741V40.0618H13.1782V33.9818ZM22.3007 33.9818H29.3966V40.0618H22.3007V33.9818Z" fill="#DF1119"/>
</svg>
