<svg width="42" height="50" viewBox="0 0 42 50" fill="none" xmlns="http://www.w3.org/2000/svg">
<g clip-path="url(#clip0_382_3873)">
<path d="M23.0997 0C13.3725 0 5.45972 7.78179 5.45972 17.346C5.45972 26.9102 13.3725 34.692 23.0997 34.692C32.8269 34.692 40.7397 26.9102 40.7397 17.346C40.7397 7.78179 32.8269 0 23.0997 0ZM23.0997 33.04C14.299 33.04 7.13975 25.9999 7.13975 17.346C7.13975 8.69207 14.2991 1.65203 23.0997 1.65203C31.9003 1.65203 39.0598 8.69197 39.0598 17.346C39.0598 26 31.9004 33.04 23.0997 33.04Z" fill="#DF1119"/>
<path d="M26.2055 17.5427C26.1282 16.972 25.7745 16.4639 25.2579 16.1831C24.743 15.9023 24.1441 15.8783 23.6166 16.1153V16.1162C22.2566 16.7258 20.632 16.2062 19.9181 14.9293C18.858 13.0311 17.0721 12.5761 17.0427 12.5703C14.7486 11.8698 13.7263 11.3759 13.277 11.095C13.3878 11.0587 13.5273 11.0181 13.7011 10.9785C14.29 10.8414 14.925 10.7869 15.5895 10.8224C18.9546 10.9752 20.6547 8.62849 21.089 7.35571C21.7014 5.55916 20.0499 2.35015 19.3115 1.05413L18.9881 0.48584L18.3505 0.663462C12.3092 2.3394 7.58424 7.06745 6.01849 13.003L5.8606 13.5994L6.39649 13.9174C7.94629 14.8392 9.50869 14.7797 9.82871 14.755C10.6637 14.7615 11.3146 15.006 11.8186 15.5042C12.9501 16.6209 13.0635 18.7289 13.0601 19.583C13.0568 20.4528 13.1374 21.2325 13.3079 21.9677C14.3268 26.3521 17.3408 26.7254 18.337 26.7254C18.4369 26.7254 18.5167 26.7221 18.5721 26.7172C19.99 26.7057 21.2626 25.9325 21.8994 24.6911C22.2598 23.989 22.8201 23.3819 23.5181 22.9358C26.2542 21.1888 26.376 18.8065 26.2055 17.5427ZM22.6035 21.5505C21.6569 22.1551 20.895 22.9836 20.4011 23.9467C20.0466 24.6364 19.3351 25.0651 18.543 25.0651L18.4246 25.0733C18.3204 25.0906 15.8273 25.3913 14.947 21.5992C14.805 20.9888 14.7378 20.3312 14.7411 19.5887C14.7462 18.2721 14.5286 15.8378 13.0099 14.3379C12.1792 13.5185 11.0981 13.103 9.79524 13.103L9.70783 13.108C9.6969 13.1096 8.82081 13.1856 7.8262 12.7825C9.33819 7.92148 13.2181 4.04177 18.1641 2.44511C19.0587 4.14912 19.755 6.06792 19.4947 6.82952C19.4871 6.8543 18.611 9.33143 15.6743 9.1721C14.8494 9.13406 14.0573 9.19775 13.3148 9.37034C12.8267 9.4835 11.3399 9.8279 11.2997 10.9596C11.2652 11.9285 12.1304 12.7999 16.5833 14.1587C16.6303 14.1711 17.7509 14.48 18.4455 15.7248C19.5795 17.7567 22.1575 18.5901 24.3146 17.6179C24.3549 17.6014 24.3994 17.6039 24.4448 17.6287C24.4709 17.6419 24.5297 17.6824 24.5406 17.76C24.7514 19.3195 24.0996 20.5948 22.6035 21.5505Z" fill="#DF1119"/>
<path d="M40.1343 12.7828L39.9427 12.0782L39.2086 12.1766C35.5705 12.6656 33.8612 12.0494 33.295 11.7603C32.4146 11.3126 31.4487 11.2696 30.6481 11.6479C29.5519 12.1608 28.3247 13.4774 28.7068 16.8773C28.7244 16.9806 29.1637 19.4231 31.8996 20.7802C32.7472 21.2007 33.1948 22.1167 32.9882 23.0079C32.3649 25.6982 32.9731 27.897 34.7489 29.3672L35.3562 29.8703L35.9014 29.3029C39.0212 26.0525 40.7398 21.7954 40.7398 17.3143C40.7399 15.7854 40.5358 14.2605 40.1343 12.7828ZM35.2631 27.5269C34.4408 26.4969 34.2266 25.1051 34.6281 23.3754C35.0061 21.7416 34.1963 20.0682 32.6575 19.3049C30.7087 18.3376 30.3785 16.6708 30.3726 16.6518C30.224 15.3319 30.2778 13.6509 31.3731 13.138C31.5066 13.0753 31.6578 13.0438 31.8174 13.0438C32.0425 13.0438 32.2853 13.1057 32.5239 13.2271C33.3455 13.6451 35.2051 14.2588 38.6827 13.902C38.9331 15.0237 39.0599 16.1669 39.0599 17.3142C39.0599 21.0825 37.7176 24.6772 35.2631 27.5269Z" fill="#DF1119"/>
<path d="M34.3726 4.00559C33.1092 2.97228 31.7039 2.11737 30.1936 1.46477L29.7174 1.2583L28.9547 1.88438C28.0668 2.56748 25.3628 4.64484 26.6068 7.00474L26.7186 7.16833C27.1965 7.70768 28.218 8.41391 29.488 8.41391C30.0995 8.41391 30.7682 8.24955 31.4603 7.82413C31.9013 7.55407 32.2945 7.18237 32.6968 6.65531C32.9051 6.38273 33.2999 5.96147 33.9425 5.53111L35.3042 4.76786L34.3726 4.00559ZM31.3544 5.66256C31.0797 6.02274 30.8311 6.26386 30.5723 6.42251C29.3023 7.20056 28.3195 6.4076 28.0497 6.14741C27.8902 5.79062 27.7364 4.9241 29.9851 3.18785C30.836 3.58849 31.6483 4.06173 32.411 4.60118C31.8995 5.01412 31.5628 5.39085 31.3544 5.66256Z" fill="#DF1119"/>
<path d="M27.7367 33.0613C27.3831 32.3344 27.1277 31.4935 26.9782 30.5626C26.6783 28.6976 25.0461 27.3438 23.0991 27.3438C20.096 27.3438 17.6508 29.7334 17.6247 32.6797L17.4971 33.8097L18.1766 34.003C19.7818 34.4605 21.4374 34.6919 23.0998 34.6919C24.4615 34.6919 25.8315 34.5341 27.1722 34.2219L28.1869 33.9857L27.7367 33.0613ZM19.3073 32.5897C19.3813 30.5957 21.0537 28.9957 23.0991 28.9957C24.1969 28.9957 25.1512 29.7804 25.3183 30.8212C25.4317 31.5258 25.5989 32.1907 25.8181 32.8094C23.6468 33.1786 21.4343 33.1009 19.3073 32.5897Z" fill="#DF1119"/>
<path d="M39.6956 31.6735C39.3915 31.3283 38.8606 31.2903 38.5103 31.5893C34.8068 34.7389 30.9771 37.9958 23.0996 37.9958C11.5202 37.9958 2.09961 28.7323 2.09961 17.3459C2.09961 12.1091 3.77207 7.44045 6.93545 3.84406C7.23874 3.49879 7.20005 2.97676 6.84981 2.6794C6.49957 2.3804 5.96781 2.41921 5.66453 2.76361C2.23329 6.66395 0.419678 11.7067 0.419678 17.3458C0.419678 29.6432 10.5938 39.6478 23.0997 39.6478C31.603 39.6478 35.6728 36.1868 39.6099 32.8382C39.9602 32.5408 39.9996 32.0188 39.6956 31.6735Z" fill="#DF1119"/>
<path d="M8.57379 4.37232L5.21382 1.06836C4.88534 0.745443 4.35446 0.745443 4.02608 1.06836C3.69769 1.39137 3.69769 1.91339 4.02608 2.23631L7.38604 5.54028C7.54984 5.70135 7.76493 5.78227 7.97991 5.78227C8.195 5.78227 8.40999 5.70135 8.57379 5.54028C8.90227 5.21736 8.90227 4.69524 8.57379 4.37232Z" fill="#DF1119"/>
<path d="M41.3336 33.2821L37.9737 29.9781C37.6452 29.6551 37.1143 29.6551 36.7859 29.9781C36.4574 30.3011 36.4574 30.8231 36.7859 31.146L40.1459 34.45C40.3097 34.611 40.5248 34.692 40.7398 34.692C40.9548 34.692 41.1698 34.611 41.3336 34.45C41.6621 34.1271 41.6621 33.605 41.3336 33.2821Z" fill="#DF1119"/>
<path d="M30.6599 44.604H15.5399C15.0763 44.604 14.7 44.9732 14.7 45.43V48.7339C14.7 49.1907 15.0763 49.5599 15.5399 49.5599H30.6599C31.1236 49.5599 31.4999 49.1907 31.4999 48.7339V45.43C31.5 44.9732 31.1237 44.604 30.6599 44.604ZM29.82 47.908H16.38V46.2559H29.82V47.908Z" fill="#DF1119"/>
<path d="M29.8199 44.604C26.5774 44.604 23.9399 42.0096 23.9399 38.8221C23.9399 38.3653 23.5636 37.9961 23.0999 37.9961C22.6363 37.9961 22.26 38.3653 22.26 38.8221C22.26 42.0096 19.6223 44.604 16.38 44.604C15.9164 44.604 15.54 44.9732 15.54 45.43C15.54 45.8868 15.9164 46.256 16.38 46.256H29.82C30.2836 46.256 30.6599 45.8868 30.6599 45.43C30.6599 44.9732 30.2835 44.604 29.8199 44.604ZM21.1267 44.604C21.9406 43.9572 22.6151 43.1469 23.0998 42.2259C23.5846 43.1469 24.259 43.9572 25.073 44.604H21.1267Z" fill="#DF1119"/>
</g>
<defs>
<clipPath id="clip0_382_3873">
<rect width="42" height="49.56" fill="white"/>
</clipPath>
</defs>
</svg>
