<svg width="33" height="22" viewBox="0 0 33 22" fill="none" xmlns="http://www.w3.org/2000/svg">
<path d="M29.7931 0.171875C30.2791 0.173124 30.7546 0.31372 31.1629 0.577425L16.3405 12.4796C16.2929 12.5179 16.225 12.5179 16.1774 12.4796L1.3544 0.577425C1.76276 0.31372 2.2385 0.173128 2.72443 0.171875H29.7931ZM32.3521 19.337C32.3513 20.0163 32.0814 20.6675 31.6017 21.1477C31.122 21.6279 30.4717 21.8981 29.7931 21.8989H2.7246C2.04607 21.8981 1.3957 21.6279 0.916028 21.1477C0.436316 20.6675 0.166416 20.0163 0.165649 19.337V2.73349C0.166897 2.24953 0.306095 1.77603 0.567035 1.369L15.4826 13.346C15.7022 13.5241 15.9761 13.6212 16.2587 13.6212C16.5413 13.6212 16.8152 13.5241 17.0347 13.346L31.9503 1.36836C32.2113 1.77566 32.3505 2.24911 32.3517 2.73311L32.3521 19.337Z" fill="#DF1119"/>
</svg>
