<svg width="43" height="43" viewBox="0 0 43 43" fill="none" xmlns="http://www.w3.org/2000/svg">
<g clip-path="url(#clip0_96_119)">
<path d="M41.7402 20.2402H32.8379V16.8809H37.541C38.2364 16.8809 38.8008 16.3165 38.8008 15.6211C38.8008 14.9257 38.2364 14.3613 37.541 14.3613H32.8379V11.6058C32.8379 10.9104 32.2735 10.346 31.5781 10.346H29.1459V5.03906H33.5938C34.1136 6.50543 35.5136 7.55859 37.1564 7.55859C39.24 7.55859 40.9357 5.86295 40.9357 3.7793C40.9357 1.69564 39.24 0 37.1564 0C35.5136 0 34.1136 1.05316 33.5938 2.51953H27.8862C27.1908 2.51953 26.6264 3.08391 26.6264 3.7793V10.346H22.7598V1.25977C22.7598 0.564375 22.1954 0 21.5 0C20.8046 0 20.2402 0.564375 20.2402 1.25977V10.346H16.3736V3.7793C16.3736 3.08391 15.8092 2.51953 15.1138 2.51953H9.40625C8.88639 1.05316 7.48637 0 5.84363 0C3.75998 0 2.06434 1.69564 2.06434 3.7793C2.06434 5.86295 3.75998 7.55859 5.84363 7.55859C7.48637 7.55859 8.88639 6.50543 9.40625 5.03906H13.8541V10.346H11.4219C10.7265 10.346 10.1621 10.9104 10.1621 11.6058V14.3613H5.45898C4.76359 14.3613 4.19922 14.9257 4.19922 15.6211C4.19922 16.3165 4.76359 16.8809 5.45898 16.8809H10.1621V20.2402H1.25977C0.564375 20.2402 0 20.8046 0 21.5C0 22.1954 0.564375 22.7598 1.25977 22.7598H10.1621V26.1191H5.45898C4.76359 26.1191 4.19922 26.6835 4.19922 27.3789C4.19922 28.0743 4.76359 28.6387 5.45898 28.6387H10.1621V31.3942C10.1621 32.0896 10.7265 32.654 11.4219 32.654H13.8541V37.9609H9.40625C8.88639 36.4946 7.48637 35.4414 5.84363 35.4414C3.75998 35.4414 2.06434 37.1371 2.06434 39.2207C2.06434 41.3044 3.75998 43 5.84363 43C7.48637 43 8.88639 41.9468 9.40625 40.4805H15.1138C15.8092 40.4805 16.3736 39.9161 16.3736 39.2207V32.654H20.2402V41.7402C20.2402 42.4356 20.8046 43 21.5 43C22.1954 43 22.7598 42.4356 22.7598 41.7402V32.654H26.6264V39.2207C26.6264 39.9161 27.1908 40.4805 27.8862 40.4805H33.5938C34.1136 41.9468 35.5136 43 37.1564 43C39.24 43 40.9357 41.3044 40.9357 39.2207C40.9357 37.1371 39.24 35.4414 37.1564 35.4414C35.5136 35.4414 34.1136 36.4946 33.5938 37.9609H29.1459V32.654H31.5781C32.2735 32.654 32.8379 32.0896 32.8379 31.3942V28.6387H37.541C38.2364 28.6387 38.8008 28.0743 38.8008 27.3789C38.8008 26.6835 38.2364 26.1191 37.541 26.1191H32.8379V22.7598H41.7402C42.4356 22.7598 43 22.1954 43 21.5C43 20.8046 42.4356 20.2402 41.7402 20.2402ZM17.7207 23.4476V25.9352C17.7207 26.6306 17.1563 27.195 16.4609 27.195C15.7655 27.195 15.2012 26.6306 15.2012 25.9352V19.5843C15.2012 17.5007 16.8968 15.805 18.9805 15.805C21.0641 15.805 22.7598 17.5007 22.7598 19.5843V25.9352C22.7598 26.6306 22.1954 27.195 21.5 27.195C20.8046 27.195 20.2402 26.6306 20.2402 25.9352V23.4476H17.7207ZM27.7988 25.9352C27.7988 26.6306 27.2345 27.195 26.5391 27.195C25.8437 27.195 25.2793 26.6306 25.2793 25.9352V17.0648C25.2793 16.3694 25.8437 15.805 26.5391 15.805C27.2345 15.805 27.7988 16.3694 27.7988 17.0648V25.9352Z" fill="#DF1119"/>
<path d="M20.2402 19.584V20.9277H17.7207V19.584C17.7207 18.8894 18.2859 18.3242 18.9805 18.3242C19.675 18.3242 20.2402 18.8894 20.2402 19.584Z" fill="#DF1119"/>
</g>
<defs>
<clipPath id="clip0_96_119">
<rect width="43" height="43" fill="white"/>
</clipPath>
</defs>
</svg>
