<svg width="48" height="42" viewBox="0 0 48 42" fill="none" xmlns="http://www.w3.org/2000/svg">
<path d="M36.4018 11.1468C34.2208 -3.2348 13.7798 -3.23811 11.5979 11.1469C10.1856 11.0882 8.77589 11.3127 7.45168 11.8071C6.12748 12.3015 4.91558 13.0559 3.88736 14.0258C2.85914 14.9957 2.03538 16.1616 1.46458 17.4547C0.893787 18.7478 0.587498 20.1421 0.563751 21.5554C0.540004 22.9687 0.799279 24.3725 1.32631 25.684C1.85334 26.9956 2.63747 28.1885 3.63252 29.1924C4.62758 30.1963 5.81345 30.9909 7.1203 31.5296C8.42715 32.0682 9.82856 32.3399 11.242 32.3287H13.8436C14.2543 32.323 14.6462 32.1559 14.9346 31.8635C15.223 31.5711 15.3847 31.1769 15.3847 30.7661C15.3847 30.3554 15.223 29.9612 14.9346 29.6688C14.6462 29.3764 14.2542 29.2093 13.8436 29.2037H11.242C10.1887 29.2141 9.14511 29.002 8.17947 28.5812C7.21384 28.1604 6.34796 27.5404 5.63852 26.7619C4.92907 25.9833 4.39206 25.0636 4.06264 24.0631C3.73322 23.0626 3.61881 22.0038 3.72691 20.956C3.835 19.9083 4.16316 18.8951 4.68991 17.983C5.21666 17.0708 5.93011 16.2802 6.78357 15.6628C7.63703 15.0454 8.61125 14.6153 9.64245 14.4005C10.6737 14.1857 11.7386 14.1912 12.7676 14.4164C13.0087 14.4613 13.257 14.4493 13.4927 14.3814C13.7284 14.3135 13.945 14.1915 14.1253 14.0253C14.3056 13.859 14.4447 13.6529 14.5314 13.4235C14.6181 13.194 14.6501 12.9475 14.6249 12.7036C15.1413 0.395532 32.8491 0.391524 33.3745 12.6891C33.3474 12.9342 33.378 13.1821 33.4639 13.4132C33.5498 13.6443 33.6885 13.8521 33.8691 14.0199C34.0496 14.1878 34.2669 14.311 34.5037 14.3799C34.7404 14.4487 34.9899 14.4612 35.2323 14.4163C36.2613 14.1911 37.3262 14.1857 38.3574 14.4005C39.3886 14.6153 40.3628 15.0454 41.2163 15.6628C42.0697 16.2802 42.7831 17.0708 43.3099 17.983C43.8366 18.8952 44.1648 19.9083 44.2729 20.9561C44.3809 22.0038 44.2665 23.0626 43.9371 24.0631C43.6077 25.0636 43.0707 25.9833 42.3612 26.7619C41.6518 27.5404 40.7859 28.1604 39.8203 28.5812C38.8547 29.002 37.811 29.2141 36.7578 29.2037H34.1561C33.7457 29.2096 33.354 29.3769 33.0658 29.6693C32.7777 29.9616 32.6161 30.3557 32.6161 30.7662C32.6162 31.1767 32.7777 31.5708 33.0659 31.8631C33.3541 32.1555 33.7457 32.3227 34.1562 32.3287H36.7578C38.1712 32.3399 39.5726 32.0681 40.8794 31.5295C42.1862 30.9908 43.3721 30.1961 44.3671 29.1922C45.3621 28.1883 46.1462 26.9955 46.6732 25.6839C47.2002 24.3724 47.4595 22.9686 47.4358 21.5553C47.412 20.142 47.1057 18.7478 46.535 17.4547C45.9642 16.1616 45.1404 14.9957 44.1122 14.0258C43.0841 13.0559 41.8722 12.3015 40.548 11.8071C39.2238 11.3126 37.8141 11.0881 36.4018 11.1468Z" fill="#DF1119"/>
<path d="M19.637 19.5047C19.3419 19.215 18.9448 19.0527 18.5313 19.0527C18.1177 19.0527 17.7207 19.215 17.4255 19.5047L13.5203 23.4099C13.3067 23.6303 13.1623 23.9084 13.1048 24.2098C13.0473 24.5112 13.0792 24.8229 13.1966 25.1064C13.3141 25.39 13.5119 25.6329 13.7657 25.8054C14.0195 25.9779 14.3182 26.0724 14.6251 26.0772C15.4902 26.1767 16.4002 24.8774 16.9688 24.3805V40.1397C16.9688 40.5541 17.1334 40.9515 17.4264 41.2446C17.7194 41.5376 18.1169 41.7022 18.5313 41.7022C18.9457 41.7022 19.3431 41.5376 19.6361 41.2446C19.9291 40.9515 20.0938 40.5541 20.0938 40.1397V24.3804C20.67 24.883 21.5637 26.1716 22.4375 26.0772C22.7443 26.0724 23.0431 25.9779 23.2969 25.8054C23.5507 25.6329 23.7485 25.39 23.866 25.1064C23.9834 24.8229 24.0153 24.5112 23.9578 24.2098C23.9002 23.9083 23.7558 23.6303 23.5422 23.41L19.637 19.5047Z" fill="#DF1119"/>
<path d="M27.9063 36.3687L26.6673 35.1296C26.3728 34.8437 25.9777 34.6852 25.5673 34.6882C25.1569 34.6913 24.7642 34.8556 24.474 35.1458C24.1838 35.4361 24.0194 35.8288 24.0164 36.2392C24.0134 36.6496 24.172 37.0447 24.4579 37.3392L28.3631 41.2444C28.6582 41.5341 29.0552 41.6965 29.4688 41.6965C29.8824 41.6965 30.2794 41.5341 30.5745 41.2444L34.4798 37.3391C34.7656 37.0446 34.9241 36.6495 34.9211 36.2392C34.918 35.8288 34.7536 35.4361 34.4634 35.1459C34.1733 34.8558 33.7806 34.6914 33.3702 34.6883C32.9598 34.6853 32.5647 34.8438 32.2703 35.1297L31.0313 36.3687V20.6094C31.0313 20.195 30.8667 19.7975 30.5737 19.5045C30.2806 19.2115 29.8832 19.0469 29.4688 19.0469C29.0544 19.0469 28.657 19.2115 28.3639 19.5045C28.0709 19.7975 27.9063 20.195 27.9063 20.6094V36.3687Z" fill="#DF1119"/>
<path d="M29.4687 16.7031C29.8791 16.697 30.2706 16.5297 30.5587 16.2374C30.8467 15.945 31.0082 15.551 31.0082 15.1406C31.0082 14.7302 30.8467 14.3362 30.5586 14.0438C30.2706 13.7515 29.879 13.5842 29.4687 13.5781C29.0583 13.5842 28.6668 13.7515 28.3787 14.0439C28.0907 14.3363 27.9292 14.7302 27.9292 15.1407C27.9292 15.5511 28.0907 15.945 28.3788 16.2374C28.6668 16.5298 29.0583 16.697 29.4687 16.7031Z" fill="#DF1119"/>
</svg>
