<svg width="44" height="44" viewBox="0 0 44 44" fill="none" xmlns="http://www.w3.org/2000/svg">
<path d="M22 0.515625C10.1533 0.515625 0.515625 10.1533 0.515625 22C0.515625 33.8467 10.1533 43.4844 22 43.4844C33.8467 43.4844 43.4844 33.8467 43.4844 22C43.4844 10.1533 33.8467 0.515625 22 0.515625ZM22 41.3359C11.3379 41.3359 2.66406 32.6621 2.66406 22C2.66406 11.3379 11.3379 2.66406 22 2.66406C32.6621 2.66406 41.3359 11.3379 41.3359 22C41.3359 32.6621 32.6621 41.3359 22 41.3359Z" fill="#DF1119"/>
<path d="M36.248 19.625H33.626C33.3243 18.1374 32.7381 16.7222 31.8994 15.457L33.7549 13.6016C33.9031 13.4531 33.9864 13.2518 33.9864 13.042C33.9864 12.8322 33.9031 12.6309 33.7549 12.4824L31.5156 10.2432C31.3671 10.0949 31.1659 10.0116 30.9561 10.0116C30.7462 10.0116 30.545 10.0949 30.3965 10.2432L28.541 12.0986C27.2775 11.2568 25.8632 10.6669 24.376 10.3613V7.75195C24.3757 7.54207 24.2922 7.34088 24.1437 7.19256C23.9952 7.04424 23.7939 6.96094 23.584 6.96094H20.417C20.2071 6.96094 20.0058 7.04424 19.8573 7.19256C19.7088 7.34088 19.6253 7.54207 19.625 7.75195V10.3652C18.1372 10.6692 16.722 11.2574 15.457 12.0977L13.6016 10.2422C13.4531 10.0939 13.2518 10.0107 13.042 10.0107C12.8322 10.0107 12.6309 10.0939 12.4824 10.2422L10.2432 12.4814C10.0949 12.6299 10.0116 12.8312 10.0116 13.041C10.0116 13.2508 10.0949 13.4521 10.2432 13.6006L12.0986 15.4561C11.2615 16.7221 10.676 18.1375 10.374 19.625H7.75195C7.54207 19.6253 7.34088 19.7088 7.19256 19.8573C7.04424 20.0058 6.96094 20.2071 6.96094 20.417V23.583C6.96094 23.7929 7.04424 23.9942 7.19256 24.1427C7.34088 24.2912 7.54207 24.3747 7.75195 24.375H10.3652C10.6692 25.8628 11.2574 27.278 12.0977 28.543L10.2422 30.3984C10.0939 30.5469 10.0107 30.7482 10.0107 30.958C10.0107 31.1678 10.0939 31.3691 10.2422 31.5176L12.4814 33.7568C12.6299 33.9051 12.8312 33.9884 13.041 33.9884C13.2508 33.9884 13.4521 33.9051 13.6006 33.7568L15.4561 31.9014C16.7213 32.7417 18.1368 33.33 19.625 33.6338V36.2461C19.625 36.4561 19.7084 36.6576 19.857 36.8061C20.0055 36.9546 20.2069 37.0381 20.417 37.0381H23.583C23.7931 37.0381 23.9945 36.9546 24.143 36.8061C24.2916 36.6576 24.375 36.4561 24.375 36.2461V33.6348C25.8628 33.3308 27.278 32.7426 28.543 31.9023L30.3984 33.7578C30.5469 33.9061 30.7482 33.9893 30.958 33.9893C31.1678 33.9893 31.3691 33.9061 31.5176 33.7578L33.7568 31.5186C33.9051 31.3701 33.9884 31.1688 33.9884 30.959C33.9884 30.7492 33.9051 30.5479 33.7568 30.3994L31.9014 28.5439C32.7417 27.2787 33.33 25.8632 33.6338 24.375H36.248C36.4579 24.3747 36.6591 24.2912 36.8074 24.1427C36.9558 23.9942 37.0391 23.7929 37.0391 23.583V20.417C37.0391 20.2071 36.9558 20.0058 36.8074 19.8573C36.6591 19.7088 36.4579 19.6253 36.248 19.625ZM22 28.4453C20.7252 28.4453 19.4791 28.0673 18.4192 27.3591C17.3593 26.6509 16.5331 25.6442 16.0453 24.4665C15.5575 23.2888 15.4298 21.9929 15.6785 20.7426C15.9272 19.4923 16.5411 18.3439 17.4425 17.4425C18.3439 16.5411 19.4923 15.9272 20.7426 15.6785C21.9929 15.4298 23.2888 15.5575 24.4665 16.0453C25.6442 16.5331 26.6509 17.3593 27.3591 18.4192C28.0673 19.4791 28.4453 20.7252 28.4453 22C28.4453 23.7094 27.7663 25.3488 26.5575 26.5575C25.3488 27.7663 23.7094 28.4453 22 28.4453Z" fill="#DF1119"/>
</svg>
