<svg width="64" height="64" viewBox="0 0 64 64" fill="none" xmlns="http://www.w3.org/2000/svg">
<g clip-path="url(#clip0_255_462)">
<path d="M61.0821 39.9589L62.9132 38.1283C64.0655 36.9755 64.0655 35.1 62.9132 33.9472C62.3546 33.389 61.6124 33.0814 60.8223 33.0814C60.2296 33.0814 59.6632 33.2548 59.1817 33.5775L58.796 32.2826L60.7779 30.3002C61.9307 29.1473 61.9307 27.2718 60.7779 26.1195C59.7169 25.058 58.044 24.9764 56.8853 25.8695L54.5367 17.9847C55.4747 17.0814 56.3731 16.2025 57.2198 15.3558C59.6597 12.9154 61.6436 10.3329 62.8062 8.08286C64.7706 4.28012 63.9483 2.2474 62.9127 1.21175C61.8775 0.176107 59.8448 -0.645671 56.0416 1.31869C53.792 2.4808 51.209 4.46469 48.7691 6.90512C47.9224 7.7518 47.043 8.64975 46.1402 9.58774L38.2549 7.23911C39.148 6.0809 39.0664 4.40805 38.0054 3.34652C36.8526 2.19418 34.9771 2.19369 33.8247 3.34652L31.8423 5.32895L30.5469 4.9432C30.8697 4.46127 31.043 3.89486 31.043 3.30209C31.043 2.51254 30.7354 1.76986 30.1773 1.21175C29.0249 0.0589197 27.1489 0.0589197 25.9966 1.21175L24.166 3.04232L14.8355 0.263022C14.5029 0.164389 14.1436 0.255209 13.8989 0.500327L11.4971 2.90219C11.0938 3.30502 11.147 3.99398 11.6069 4.33041L35.149 21.5624C29.8408 27.5472 24.7276 33.5394 21.1177 37.8207L14.1929 35.1571C13.8447 35.0233 13.4507 35.1068 13.187 35.3705L10.3403 38.2172C9.97217 38.5858 9.97217 39.183 10.3403 39.5512L24.5733 53.7841C24.9365 54.1479 25.544 54.1479 25.9077 53.7841L28.7539 50.9379C29.0176 50.6742 29.1016 50.2797 28.9673 49.9316L26.3042 43.0072C30.5855 39.3974 36.5772 34.2841 42.5625 28.9755L44.4327 31.5311C44.7647 31.9847 45.438 32.0433 45.8453 31.6566C46.1846 31.3344 46.2315 30.7938 45.9556 30.4169L43.9786 27.7157C47.1084 24.9222 50.1993 22.1039 53.0035 19.4481L61.8926 49.2895L60.6666 50.515L48.4493 33.8236C48.1417 33.4032 47.5513 33.3119 47.1309 33.6195C46.71 33.9276 46.6187 34.518 46.9268 34.9384L59.7945 52.518C60.1309 52.9779 60.8199 53.0312 61.2227 52.6278L63.6246 50.226C63.8697 49.9814 63.9605 49.6215 63.8619 49.2895L61.0821 39.9589ZM35.1592 4.681C35.5713 4.26889 36.2593 4.26889 36.6714 4.681C37.0884 5.09799 37.0884 5.77621 36.6714 6.19321L36.229 6.63559L33.8985 5.94125L35.1592 4.681ZM27.3311 2.54623C27.7476 2.12924 28.4263 2.12924 28.8433 2.54623C29.2603 2.96322 29.2603 3.64144 28.8433 4.05844L28.5523 4.34897L26.2222 3.65512L27.3311 2.54623ZM13.6094 3.45785L14.8355 2.23226L44.6768 11.1209C42.021 13.9256 39.2027 17.0165 36.4087 20.1464L13.6094 3.45785ZM14.0879 37.1386L19.8325 39.348C18.3916 41.0639 17.2866 42.3915 16.6348 43.1771L12.3418 38.8842L14.0879 37.1386ZM17.9751 44.5175C21.2642 40.5492 38.6495 19.6932 50.1036 8.23911C52.376 5.96616 54.8565 4.05502 56.9078 2.99545C58.4478 2.19955 60.5084 1.47591 61.5787 2.54623C62.649 3.61654 61.9249 5.67709 61.1295 7.21713C60.0699 9.26841 58.1583 11.7484 55.8853 14.0213C44.4322 25.4745 23.5757 42.8603 19.6074 46.1498L17.9751 44.5175ZM26.9864 50.037L25.2407 51.7826L20.9478 47.4897C21.7329 46.8383 23.0611 45.7333 24.7769 44.2924L26.9864 50.037ZM60.0665 35.2816C60.4835 34.8646 61.1617 34.8646 61.5787 35.2816C61.9957 35.6986 61.9957 36.3768 61.5787 36.7938L60.4698 37.9027L59.7755 35.5726L60.0665 35.2816ZM57.9317 27.4535C58.3482 27.0365 59.0269 27.037 59.4439 27.4535C59.856 27.8656 59.856 28.5536 59.4439 28.9657L58.1832 30.2264L57.4888 27.8959L57.9317 27.4535Z" fill="#DF1119"/>
<path d="M56.6353 54.4629L48.584 62.5142C48.2408 62.8579 48.2178 63.4253 48.5337 63.7944C48.8867 64.2066 49.5347 64.2324 49.9185 63.8486L57.9698 55.7974C58.3384 55.4287 58.3384 54.8315 57.9698 54.4629C57.6016 54.0947 57.0039 54.0947 56.6353 54.4629Z" fill="#DF1119"/>
<path d="M53.9439 51.7716C54.3125 51.4034 54.3125 50.8058 53.9439 50.4376C53.5757 50.069 52.9781 50.069 52.6099 50.4376L47.5777 55.4694C47.2344 55.8131 47.2115 56.3805 47.5274 56.7496C47.8804 57.1618 48.5284 57.1876 48.9121 56.8038L53.9439 51.7716Z" fill="#DF1119"/>
<path d="M50.9249 46.7399C51.2935 46.3712 51.2935 45.7736 50.9249 45.4054C50.5562 45.0367 49.9591 45.0367 49.5904 45.4054L46.068 48.9279C45.7247 49.2711 45.7017 49.839 46.0181 50.2081C46.3707 50.6202 47.0186 50.6461 47.4024 50.2623L50.9249 46.7399Z" fill="#DF1119"/>
<path d="M9.66212 6.6582C9.29347 6.29004 8.69581 6.29004 8.32765 6.6582L0.276368 14.71C-0.0922853 15.0781 -0.0922853 15.6758 0.276368 16.044C0.639649 16.4072 1.24707 16.4072 1.61084 16.044L9.66212 7.99268C10.0303 7.62403 10.0303 7.02686 9.66212 6.6582Z" fill="#DF1119"/>
<path d="M13.6875 10.684C13.3188 10.3153 12.7216 10.3153 12.3535 10.684L7.32125 15.7162C6.9775 16.0595 6.95504 16.6268 7.27095 16.996C7.62398 17.4081 8.27144 17.434 8.65523 17.0502L13.6875 12.0184C14.0561 11.6498 14.0561 11.0521 13.6875 10.684Z" fill="#DF1119"/>
<path d="M13.8628 18.5601C14.2266 18.9233 14.8335 18.9233 15.1973 18.5601L18.7197 15.0376C19.0879 14.6689 19.0879 14.0718 18.7197 13.7031C18.3511 13.335 17.7539 13.335 17.3853 13.7031L13.8628 17.2256C13.4946 17.5942 13.4946 18.1914 13.8628 18.5601Z" fill="#DF1119"/>
</g>
<defs>
<clipPath id="clip0_255_462">
<rect width="64" height="64" fill="white"/>
</clipPath>
</defs>
</svg>
