<svg width="70" height="70" viewBox="0 0 70 70" fill="none" xmlns="http://www.w3.org/2000/svg">
<path fill-rule="evenodd" clip-rule="evenodd" d="M64.1044 41.564L24.949 36.6155C24.676 36.5813 24.4021 36.6654 24.1961 36.8471C23.99 37.0288 23.8719 37.2903 23.8719 37.565V63.4703C23.8719 63.745 23.99 64.0065 24.1961 64.1882C24.3719 64.3431 24.5972 64.4273 24.8288 64.4273C24.8687 64.4273 24.9088 64.4247 24.9488 64.4198L64.1043 59.4713C64.5827 59.4109 64.9414 59.004 64.9414 58.5218V42.5135C64.9415 42.0314 64.5828 41.6246 64.1044 41.564ZM35.6315 39.8948L38.728 40.2861V60.7489L35.6315 61.1402V39.8948ZM33.7174 61.3822L30.6208 61.7736V39.2615L33.7174 39.6529V61.3822ZM40.6422 40.5281L43.7388 40.9194V60.1156L40.6422 60.5069V40.5281ZM45.6529 41.1614L48.7494 41.5527V59.4824L45.6529 59.8737V41.1614ZM50.6635 41.7946L53.76 42.1859V58.8492L50.6635 59.2405V41.7946ZM55.6741 42.4279L58.7709 42.8194V58.2161L55.6741 58.6075V42.4279ZM25.7861 38.6505L28.7067 39.0197V62.0155L25.7861 62.3846V38.6505ZM63.0275 57.6779L60.6849 57.9739V43.0612L63.0275 43.3572V57.6779ZM7.63779 45.1983V55.837C7.63779 56.3656 7.20932 56.7941 6.68076 56.7941C6.15221 56.7941 5.72373 56.3656 5.72373 55.837V45.1983C5.72373 44.6697 6.15221 44.2412 6.68076 44.2412C7.20932 44.2412 7.63779 44.6697 7.63779 45.1983ZM12.9734 56.5991V44.4304C12.9734 43.9019 13.4019 43.4734 13.9304 43.4734C14.459 43.4734 14.8874 43.9019 14.8874 44.4304V56.5991C14.8874 57.1277 14.459 57.5561 13.9304 57.5561C13.4019 57.5561 12.9734 57.1277 12.9734 56.5991ZM68.2689 38.2977L38.4226 22.1035C39.1248 21.3023 39.5518 20.2542 39.5518 19.1077C39.5518 18.5791 39.1233 18.1506 38.5947 18.1506C38.0662 18.1506 37.6377 18.5791 37.6377 19.1077C37.6377 19.9306 37.2585 20.6663 36.6661 21.1504L35.4565 20.494C35.1859 20.3472 34.8615 20.3395 34.5842 20.4732L33.2797 21.1027C32.7191 20.6186 32.3624 19.9046 32.3624 19.1077C32.3624 17.6533 33.5456 16.4701 35 16.4701C35.5286 16.4701 35.957 16.0416 35.957 15.5131V11.9376C37.9127 11.4997 39.3788 9.75105 39.3788 7.66527C39.3788 5.57949 37.9125 3.83086 35.957 3.39309V2.1875C35.957 1.65895 35.5286 1.23047 35 1.23047C34.4714 1.23047 34.043 1.65895 34.043 2.1875V3.39322C32.0875 3.83113 30.6212 5.57977 30.6212 7.66541C30.6212 9.75119 32.0875 11.4997 34.043 11.9376V14.6572C31.9911 15.098 30.4484 16.9261 30.4484 19.1077C30.4484 20.1943 30.8316 21.1928 31.4692 21.9762L1.7716 36.3048C1.44088 36.4644 1.23047 36.7994 1.23047 37.1667V63.8684C1.23047 64.3213 1.54793 64.7121 1.99117 64.8051L20.8046 68.7492C20.8693 68.7627 20.9351 68.7695 21.001 68.7695C21.041 68.7695 21.0811 68.7669 21.1209 68.7619L67.9324 62.8458C68.4108 62.7854 68.7694 62.3785 68.7694 61.8963V39.1388C68.7695 38.7879 68.5774 38.465 68.2689 38.2977ZM32.5352 7.66527C32.5352 6.30615 33.6409 5.20051 35 5.20051C36.359 5.20051 37.4648 6.30615 37.4648 7.66527C37.4648 9.02439 36.3591 10.1302 35 10.1302C33.641 10.1302 32.5352 9.02439 32.5352 7.66527ZM20.5669 32.3359L9.66588 34.6212L28.6783 25.448L20.5669 32.3359ZM20.0439 34.4012V66.634L11.184 64.7765V36.2584L20.0439 34.4012ZM33.9005 23.5244C34.2528 23.6121 34.621 23.6595 35 23.6595C35.3541 23.6595 35.6982 23.6175 36.0292 23.5406L49.8426 35.9032L23.2768 32.5458L33.9005 23.5244ZM53.1845 36.3255L41.7345 26.0781L62.8787 37.5508L53.1845 36.3255ZM3.14453 37.944L9.26994 36.6598V64.3754L3.14453 63.0912V37.944ZM21.958 66.727V34.3082L66.8555 39.9826V61.0527L21.958 66.727ZM35 8.6223C34.4728 8.6223 34.043 8.19246 34.043 7.66527C34.043 7.13809 34.4728 6.70824 35 6.70824C35.5272 6.70824 35.957 7.13809 35.957 7.66527C35.9572 8.19246 35.5272 8.6223 35 8.6223Z" fill="#DF1119"/>
</svg>
