<svg width="59" height="59" viewBox="0 0 59 59" fill="none" xmlns="http://www.w3.org/2000/svg">
<path d="M57.055 56.4715H53.878V22.7572H56.8021C57.0316 22.7605 57.2568 22.6941 57.4478 22.5668C57.6388 22.4394 57.7867 22.2572 57.8719 22.044C57.9545 21.8333 57.9734 21.603 57.9261 21.3816C57.8789 21.1603 57.7676 20.9578 57.6061 20.7992L50.5066 13.9591C50.2944 13.7566 50.0123 13.6436 49.7189 13.6436C49.4255 13.6436 49.1434 13.7566 48.9311 13.9591L41.8382 20.8057C41.6779 20.9637 41.5674 21.1651 41.5202 21.3851C41.473 21.6051 41.4911 21.8342 41.5723 22.044C41.6578 22.2539 41.8041 22.4333 41.9925 22.5593C42.1808 22.6853 42.4026 22.7519 42.6291 22.7507H45.5662V56.465H41.1898V26.6408C41.1898 26.3399 41.0703 26.0513 40.8575 25.8385C40.6447 25.6258 40.3561 25.5062 40.0552 25.5062H32.2101C31.9097 25.5079 31.6221 25.628 31.4097 25.8404C31.1973 26.0528 31.0772 26.3404 31.0755 26.6408V56.465H28.0996V33.4031C28.0996 33.1022 27.98 32.8136 27.7673 32.6009C27.5545 32.3881 27.2659 32.2685 26.965 32.2685H19.1199C18.819 32.2685 18.5304 32.3881 18.3176 32.6009C18.1048 32.8136 17.9853 33.1022 17.9853 33.4031V56.4715H10.7691V54.0402H10.9118C13.5895 54.0402 15.7744 52.1275 15.7744 49.7805V49.6184C15.7473 48.7591 15.4271 47.9348 14.8669 47.2826C14.3067 46.6304 13.5402 46.1895 12.6947 46.033L10.7497 45.6375V41.2936H10.8923C12.2993 41.2936 13.4857 42.2013 13.4857 43.2386C13.4857 43.5396 13.6053 43.8282 13.8181 44.0409C14.0308 44.2537 14.3194 44.3733 14.6204 44.3733C14.9213 44.3733 15.2099 44.2537 15.4226 44.0409C15.6354 43.8282 15.755 43.5396 15.755 43.2386C15.755 40.8981 13.57 38.9919 10.8858 38.9919H10.7432V38.3436C10.7432 38.0427 10.6237 37.7541 10.4109 37.5413C10.1981 37.3285 9.90951 37.209 9.60859 37.209C9.30767 37.209 9.01908 37.3285 8.8063 37.5413C8.59352 37.7541 8.47398 38.0427 8.47398 38.3436V38.9919H7.87749C5.1998 38.9919 3.01485 40.8981 3.01485 43.2386V43.4396C3.05762 44.2793 3.37627 45.0813 3.92138 45.7214C4.46649 46.3614 5.20758 46.8037 6.02969 46.9796L8.47398 47.4789V51.7709H7.87749C6.47057 51.7709 5.28409 50.8568 5.28409 49.7805C5.28409 49.4796 5.16455 49.191 4.95176 48.9782C4.73898 48.7654 4.45039 48.6459 4.14947 48.6459C3.84855 48.6459 3.55996 48.7654 3.34718 48.9782C3.13439 49.191 3.01485 49.4796 3.01485 49.7805C3.01485 52.1275 5.19332 54.0402 7.87749 54.0402H8.47398V56.4715H2.15903C1.85811 56.4715 1.56952 56.591 1.35674 56.8038C1.14395 57.0166 1.02441 57.3052 1.02441 57.6061C1.02441 57.907 1.14395 58.1956 1.35674 58.4084C1.56952 58.6212 1.85811 58.7407 2.15903 58.7407H57.055C57.3559 58.7407 57.6445 58.6212 57.8573 58.4084C58.07 58.1956 58.1896 57.907 58.1896 57.6061C58.1896 57.3052 58.07 57.0166 57.8573 56.8038C57.6445 56.591 57.3559 56.4715 57.055 56.4715ZM6.52892 44.7363C6.21951 44.6666 5.93806 44.5058 5.72083 44.2747C5.50359 44.0436 5.36051 43.7528 5.31002 43.4396V43.2711C5.31002 42.2013 6.4965 41.326 7.90343 41.326H8.49991V45.2161L6.52892 44.7363ZM10.7691 47.9781L12.1955 48.2763C12.5347 48.3236 12.8478 48.4847 13.0834 48.7333C13.319 48.9819 13.4632 49.3031 13.4922 49.6444V49.8129C13.4922 50.8892 12.3057 51.8034 10.8988 51.8034H10.7562L10.7691 47.9781ZM46.6813 20.488H45.3846L49.6702 16.358L54.0077 20.488H52.7564C52.4555 20.488 52.1669 20.6075 51.9541 20.8203C51.7413 21.0331 51.6218 21.3217 51.6218 21.6226V56.4715H47.8354V21.6226C47.8346 21.4722 47.804 21.3234 47.7455 21.1849C47.6869 21.0464 47.6016 20.9207 47.4943 20.8153C47.3871 20.7099 47.26 20.6267 47.1205 20.5705C46.981 20.5143 46.8317 20.4863 46.6813 20.488ZM33.3447 27.7884H38.9011V56.4715H33.3253L33.3447 27.7884ZM20.2545 34.5378H25.8304V56.4715H20.2545V34.5378Z" fill="#DF1119"/>
<path d="M6.60663 31.0626C6.70992 31.0629 6.81265 31.0476 6.91136 31.0172C8.13674 30.6736 37.2218 22.3941 50.5325 2.10721C50.6575 1.92057 50.724 1.70084 50.7234 1.47618C50.7228 1.25152 50.6551 1.03215 50.5291 0.846187C50.403 0.660224 50.2243 0.516137 50.0158 0.432388C49.8073 0.348639 49.5786 0.329042 49.3589 0.376109L42.9597 1.67281C42.6713 1.74193 42.4214 1.92122 42.2636 2.1723C42.1057 2.42337 42.0525 2.72627 42.1152 3.01613C42.1779 3.30599 42.3516 3.55978 42.5991 3.72314C42.8467 3.88651 43.1483 3.94646 43.4395 3.89017L47.0508 3.16402C33.5067 21.0845 6.5807 28.7545 6.30191 28.8323C6.03527 28.9039 5.8039 29.0703 5.65115 29.3003C5.49839 29.5303 5.43474 29.8081 5.47212 30.0816C5.50949 30.3552 5.64533 30.6057 5.85418 30.7863C6.06302 30.9669 6.33055 31.0651 6.60663 31.0626Z" fill="#DF1119"/>
</svg>
