<svg width="56" height="59" viewBox="0 0 56 59" fill="none" xmlns="http://www.w3.org/2000/svg">
<path d="M32.8161 36.5122C33.0948 36.6984 33.4157 36.7922 33.7374 36.7922C34.0591 36.7922 34.3804 36.6989 34.6587 36.5122C35.226 36.1342 48.5611 27.1722 53.474 18.1702C54.6894 16.2874 55.3306 14.113 55.3306 11.8763C55.3306 5.46455 50.1147 0.25 43.7043 0.25C38.9896 0.25 35.4986 4.16167 33.738 6.20538C31.977 4.16167 28.4864 0.25 23.7727 0.25C17.3606 0.25 12.1453 5.4649 12.1453 11.8763C12.1453 14.1121 12.7878 16.2869 14.0019 18.1702C18.9141 27.1722 32.2499 36.134 32.8172 36.5122H32.8161ZM23.7725 3.57061C27.0937 3.57061 29.8715 6.80247 31.3647 8.53899C32.2923 9.61886 32.8034 10.2143 33.7378 10.2143C34.6722 10.2143 35.1834 9.61836 36.1124 8.53899C37.6046 6.802 40.3825 3.57061 43.7045 3.57061C48.2837 3.57061 52.0095 7.29689 52.0095 11.8765C52.0095 13.4885 51.541 15.0572 50.6564 16.4103C50.6319 16.4489 50.6075 16.4883 50.5862 16.5286C46.7924 23.5362 36.823 30.9298 33.7383 33.1096C30.6537 30.9309 20.6852 23.5363 16.8905 16.5286C16.8683 16.4883 16.8452 16.4489 16.8203 16.4103C15.9353 15.0572 15.4672 13.4888 15.4672 11.8765C15.4663 7.29736 19.1921 3.57061 23.7726 3.57061H23.7725Z" fill="#D82221"/>
<path d="M53.7114 36.1085C50.6734 34.329 48.1262 36.9682 47.1669 37.9606C45.1444 40.0556 42.7083 42.1269 41.4753 43.1443C40.952 42.9095 40.3742 42.7768 39.7661 42.7709C36.0089 42.5688 30.0885 41.8913 28.6067 41.0103C27.0143 40.0637 25.7391 39.1392 24.6149 38.3245C21.383 35.9817 18.8313 34.1328 12.4758 34.1328C10.6333 34.1328 9.01822 34.6435 7.45617 35.1384C5.85294 35.6464 4.338 36.1267 2.51041 36.1267C0.494776 36.1267 -1.14383 37.7653 -1.14383 39.7809L-1.14429 49.0815C-1.14429 51.0972 0.494323 52.7358 2.50996 52.7358C5.98428 52.7358 11.4159 52.9143 12.6145 53.3145C14.7747 54.0341 19.8373 57.0362 21.6055 58.1314C21.6282 58.145 21.6509 58.1595 21.674 58.1718C22.3138 58.5271 23.0394 58.7156 23.7721 58.7156H40.6628C42.4505 58.7156 44.4381 57.0615 45.1273 55.9173C47.3419 52.2422 55.2829 42.2423 55.3631 42.1414C55.4347 42.0503 55.4963 41.9529 55.5475 41.8505C56.5762 39.7923 55.7863 37.323 53.7114 36.1081L53.7114 36.1085ZM40.6617 55.3925H23.7709C23.611 55.3925 23.4533 55.354 23.3123 55.2819C22.6879 54.8954 16.5422 51.1215 13.6647 50.1626C11.5249 49.4494 3.99611 49.4131 2.50982 49.4131C2.32584 49.4131 2.17675 49.2645 2.17675 49.0809L2.1763 39.7804C2.1763 39.5959 2.32584 39.4473 2.50937 39.4473C4.84948 39.4473 6.7672 38.8401 8.45709 38.3053C9.90034 37.8486 11.1466 37.4543 12.4752 37.4543C17.7531 37.4543 19.6021 38.7939 22.6654 41.0139C23.8473 41.8699 25.1872 42.8406 26.9073 43.8651C27.7715 44.379 29.2025 44.7823 30.8072 45.0963C34.2561 45.7706 38.504 46.0307 39.6287 46.0901C39.6573 46.0919 39.6867 46.0919 39.7166 46.0919C40.2654 46.0919 40.7131 46.5387 40.7131 47.0893C40.7131 47.639 40.2663 48.0844 39.7166 48.0844C39.6872 48.0844 39.6586 48.0862 39.6287 48.0876L27.0593 48.7488C26.0583 48.7125 23.696 47.0395 22.1271 45.9301C21.7211 45.6415 21.325 45.365 20.9349 45.0959C20.0857 44.5086 19.2749 43.9811 18.5332 43.6099C17.7125 43.1975 16.7156 43.532 16.3055 44.3526C15.8954 45.1733 16.2275 46.1712 17.0482 46.5817C17.9038 47.0086 19.023 47.8017 20.2085 48.6413C22.7 50.4059 25.0541 52.0726 27.0928 52.0726C27.1223 52.0726 27.1518 52.0712 27.1808 52.0708L39.7664 51.4074C42.1251 51.3815 44.0366 49.4533 44.0366 47.0897C44.0366 46.5549 43.9396 46.0429 43.7606 45.5689C45.0928 44.465 47.4928 42.4077 49.5579 40.2706C50.9726 38.8051 51.5372 38.6855 52.0344 38.9764C52.4749 39.2352 52.7975 39.7395 52.6276 40.2457C51.5237 41.6392 44.4694 50.5744 42.2825 54.2037C41.9911 54.6845 41.0168 55.3548 40.662 55.3923L40.6617 55.3925Z" fill="#D82221"/>
</svg>
