<svg width="48" height="48" viewBox="0 0 48 48" fill="none" xmlns="http://www.w3.org/2000/svg">
<path d="M21.75 20.25L17.25 5.25H22.5L32.25 19.5" fill="#E6E6EC"/>
<path d="M12.3255 18C11.8843 18.0023 11.4434 18.0274 11.0048 18.075L9.075 13.9035C8.60491 12.8871 7.85366 12.0264 6.91005 11.4233C5.96643 10.8202 4.86989 10.4998 3.75 10.5V21.3165C2.88014 22.1033 2.123 23.0063 1.5 24C2.64748 25.8361 4.24314 27.3502 6.13691 28.3998C8.03068 29.4494 10.1603 30.0001 12.3255 30H40.5C42.0913 30 43.6174 29.3679 44.7426 28.2426C45.8679 27.1174 46.5 25.5913 46.5 24C46.5 22.4087 45.8679 20.8826 44.7426 19.7574C43.6174 18.6321 42.0913 18 40.5 18H12.3255Z" fill="#F2F2F4"/>
<path d="M36.75 18V21.75C36.75 22.3467 36.9871 22.919 37.409 23.341C37.831 23.7629 38.4033 24 39 24H46.5C46.5 22.4087 45.8679 20.8826 44.7426 19.7574C43.6174 18.6321 42.0913 18 40.5 18H36.75Z" fill="#B8EDFF"/>
<path d="M21.75 27.75L17.25 42.75H22.5L32.25 28.5" fill="#F2F2F4"/>
<path d="M31.5 21.9375H29.25C28.9019 21.9375 28.5681 22.0758 28.3219 22.3219C28.0758 22.5681 27.9375 22.9019 27.9375 23.25C27.9375 23.5981 28.0758 23.9319 28.3219 24.1781C28.5681 24.4242 28.9019 24.5625 29.25 24.5625H31.5C31.8481 24.5625 32.1819 24.4242 32.4281 24.1781C32.6742 23.9319 32.8125 23.5981 32.8125 23.25C32.8125 22.9019 32.6742 22.5681 32.4281 22.3219C32.1819 22.0758 31.8481 21.9375 31.5 21.9375Z" fill="#DF1119"/>
<path d="M24 21.9375H21.75C21.4019 21.9375 21.0681 22.0758 20.8219 22.3219C20.5758 22.5681 20.4375 22.9019 20.4375 23.25C20.4375 23.5981 20.5758 23.9319 20.8219 24.1781C21.0681 24.4242 21.4019 24.5625 21.75 24.5625H24C24.3481 24.5625 24.6819 24.4242 24.9281 24.1781C25.1742 23.9319 25.3125 23.5981 25.3125 23.25C25.3125 22.9019 25.1742 22.5681 24.9281 22.3219C24.6819 22.0758 24.3481 21.9375 24 21.9375Z" fill="#DF1119"/>
<path d="M16.5 21.9375H14.25C13.9019 21.9375 13.5681 22.0758 13.3219 22.3219C13.0758 22.5681 12.9375 22.9019 12.9375 23.25C12.9375 23.5981 13.0758 23.9319 13.3219 24.1781C13.5681 24.4242 13.9019 24.5625 14.25 24.5625H16.5C16.8481 24.5625 17.1819 24.4242 17.4281 24.1781C17.6742 23.9319 17.8125 23.5981 17.8125 23.25C17.8125 22.9019 17.6742 22.5681 17.4281 22.3219C17.1819 22.0758 16.8481 21.9375 16.5 21.9375Z" fill="#DF1119"/>
<path d="M40.5 16.6875H31.9163L23.583 4.509C23.4627 4.33279 23.3011 4.18863 23.1123 4.08903C22.9236 3.98944 22.7134 3.93742 22.5 3.9375H17.25C17.0457 3.93762 16.8442 3.98546 16.6616 4.0772C16.479 4.16895 16.3203 4.30206 16.1982 4.46595C16.0762 4.62983 15.994 4.81996 15.9584 5.02118C15.9228 5.2224 15.9346 5.42917 15.993 5.625L19.311 16.6875H12.3255C12.159 16.6875 11.9885 16.6912 11.814 16.6987L10.2653 13.35C9.68755 12.1084 8.76774 11.0573 7.61374 10.3201C6.45974 9.58279 5.11942 9.18991 3.75002 9.1875C3.40192 9.1875 3.06808 9.32578 2.82194 9.57192C2.5758 9.81806 2.43752 10.1519 2.43752 10.5V20.751C1.65646 21.5191 0.968252 22.3762 0.387016 23.3048C0.256557 23.5133 0.187378 23.7544 0.187378 24.0004C0.187378 24.2464 0.256557 24.4874 0.387016 24.696C1.64695 26.726 3.40549 28.3997 5.49522 29.5579C7.58495 30.716 9.93632 31.3201 12.3255 31.3125H19.311L15.993 42.375C15.9346 42.5708 15.9228 42.7776 15.9584 42.9788C15.994 43.18 16.0762 43.3702 16.1982 43.534C16.3203 43.6979 16.479 43.8311 16.6616 43.9228C16.8442 44.0145 17.0457 44.0624 17.25 44.0625H22.5C22.7134 44.0624 22.9235 44.0104 23.1123 43.9108C23.301 43.8112 23.4626 43.6671 23.583 43.491L31.9163 31.3125H40.5C42.4394 31.3125 44.2994 30.5421 45.6707 29.1707C47.0421 27.7994 47.8125 25.9394 47.8125 24C47.8125 22.0606 47.0421 20.2006 45.6707 18.8293C44.2994 17.4579 42.4394 16.6875 40.5 16.6875ZM19.014 6.5625H21.8078L28.7355 16.6875H22.05L19.014 6.5625ZM40.5 28.6875H33.549C33.5912 28.3942 33.5329 28.0952 33.3836 27.8393C33.2342 27.5833 33.0027 27.3854 32.7266 27.2778C32.4505 27.1702 32.1461 27.1591 31.8629 27.2465C31.5797 27.3339 31.3345 27.5145 31.167 27.759L21.8078 41.4375H19.0148L23.007 28.125C23.1063 27.7916 23.0691 27.4325 22.9037 27.1265C22.7384 26.8205 22.4583 26.5926 22.125 26.493C21.9599 26.4434 21.7866 26.4267 21.6151 26.4441C21.4435 26.4614 21.2771 26.5124 21.1252 26.5941C20.9734 26.6758 20.8392 26.7866 20.7302 26.9202C20.6212 27.0538 20.5396 27.2076 20.49 27.3728L20.1 28.6875H12.3255C10.5241 28.6933 8.74696 28.2714 7.14035 27.4565C5.53374 26.6416 4.14352 25.457 3.08402 24C3.54151 23.3787 4.0601 22.8049 4.63202 22.287C4.7679 22.1636 4.87641 22.013 4.95056 21.8451C5.02471 21.6772 5.06285 21.4956 5.06252 21.312V12.0068C5.67856 12.1933 6.2483 12.5078 6.73449 12.9297C7.22069 13.3515 7.6124 13.8712 7.88402 14.4548L9.81377 18.6255C9.92892 18.8737 10.1186 19.0797 10.3565 19.215C10.5943 19.3502 10.8684 19.4079 11.1405 19.38C11.5341 19.3369 11.9296 19.3143 12.3255 19.3125H35.4375V21.75C35.4387 22.6945 35.8144 23.5999 36.4823 24.2678C37.1501 24.9356 38.0556 25.3113 39 25.3125H45C44.715 26.2855 44.1226 27.1401 43.3114 27.7485C42.5003 28.3569 41.514 28.6863 40.5 28.6875ZM39 22.6875C38.7515 22.6871 38.5133 22.5882 38.3376 22.4125C38.1618 22.2367 38.0629 21.9985 38.0625 21.75V19.3125H40.5C41.514 19.3137 42.5003 19.6431 43.3114 20.2515C44.1226 20.8599 44.715 21.7145 45 22.6875H39Z" fill="#DF1119"/>
</svg>
