<svg width="44" height="50" viewBox="0 0 44 50" fill="none" xmlns="http://www.w3.org/2000/svg">
<path d="M7.52817 15.601L20.9403 7.95927V4.1541C20.5634 4.02041 20.2194 3.81748 19.9227 3.56084L4.20395 12.5166C4.27456 12.9128 4.27007 13.3196 4.19019 13.7144L7.52817 15.601Z" fill="#DF1119"/>
<path d="M1.82607 13.828C2.23935 13.4146 2.24092 12.7443 1.82598 12.3294C1.1624 11.6658 0.0170898 12.1371 0.0170898 13.0787C0.0169922 14.022 1.16416 14.4897 1.82607 13.828Z" fill="#DF1119"/>
<path d="M0.0170898 36.9213C0.0170898 37.8555 1.15498 38.3416 1.82607 37.6706C2.23935 37.2571 2.24092 36.5869 1.82598 36.172C1.1624 35.5084 0.0170898 35.9799 0.0170898 36.9213Z" fill="#DF1119"/>
<path d="M23.0596 7.95927L36.4546 15.5913L39.7931 13.6236C39.7299 13.2575 39.7308 12.8825 39.7959 12.5167L24.0771 3.56084C23.7805 3.81758 23.4364 4.0205 23.0596 4.1541V7.95927Z" fill="#DF1119"/>
<path d="M6.47041 17.4377L3.09824 15.5318C2.80547 15.7734 2.4793 15.9548 2.13623 16.0755V33.9246C2.50469 34.0542 2.85352 34.2543 3.1626 34.5234L6.47041 32.5731V17.4377Z" fill="#DF1119"/>
<path d="M22 32.9476C22.8764 32.9476 23.5895 32.2346 23.5895 31.358V28.1304C23.5895 27.7162 23.8307 27.3401 24.207 27.1674C26.0849 26.3052 27.2984 24.4146 27.2984 22.3509C27.2984 19.3271 24.7812 16.9179 21.7478 17.0583C19.0631 17.1821 16.8499 19.381 16.7091 22.0643C16.5945 24.2516 17.8049 26.2547 19.7929 27.1675C20.1692 27.3403 20.4104 27.7165 20.4104 28.1305V31.3581C20.4104 32.2346 21.1234 32.9476 22 32.9476Z" fill="#DF1119"/>
<path d="M21.9999 2.21699C22.5851 2.21699 23.0595 1.74256 23.0595 1.15732C23.0595 0.572086 22.5851 0.0976562 21.9999 0.0976562C21.4146 0.0976562 20.9402 0.572086 20.9402 1.15732C20.9402 1.74256 21.4146 2.21699 21.9999 2.21699Z" fill="#DF1119"/>
<path d="M36.4716 34.3989L23.0596 42.0407V45.8459C23.4364 45.9796 23.7805 46.1825 24.0771 46.4392L39.7959 37.4834C39.7253 37.0873 39.7298 36.6804 39.8097 36.2856L36.4716 34.3989Z" fill="#DF1119"/>
<path d="M42.1737 13.828C42.5868 14.2411 43.2591 14.2411 43.6723 13.828C44.0863 13.4139 44.0864 12.7436 43.6722 12.3294C43.259 11.9162 42.5867 11.9164 42.1736 12.3294H42.1737C41.7603 12.7428 41.7587 13.413 42.1737 13.828Z" fill="#DF1119"/>
<path d="M42.1736 36.172C41.7603 36.5855 41.7587 37.2557 42.1737 37.6706H42.1736C42.8451 38.3418 43.9826 37.8555 43.9826 36.9213C43.9826 35.9814 42.8397 35.5064 42.1736 36.172Z" fill="#DF1119"/>
<path d="M20.9403 42.0407L7.53769 34.4043L4.20566 36.3688C4.27022 36.7373 4.26973 37.1149 4.2041 37.4833L19.9229 46.4392C20.2195 46.1824 20.5636 45.9795 20.9405 45.8459V42.0407H20.9403Z" fill="#DF1119"/>
<path d="M21.9999 49.9024C22.5851 49.9024 23.0595 49.4279 23.0595 48.8427C23.0595 48.2574 22.5851 47.783 21.9999 47.783C21.4146 47.783 20.9402 48.2574 20.9402 48.8427C20.9402 49.4279 21.4146 49.9024 21.9999 49.9024Z" fill="#DF1119"/>
<path d="M41.8636 16.0755C41.4929 15.9451 41.142 15.7435 40.8314 15.4717L37.5293 17.418V32.5624L40.9015 34.4683C41.1943 34.2266 41.5205 34.0452 41.8636 33.9245V16.0755Z" fill="#DF1119"/>
</svg>
