<svg width="45" height="45" viewBox="0 0 45 45" fill="none" xmlns="http://www.w3.org/2000/svg">
<g clip-path="url(#clip0_255_1466)">
<path d="M35.1562 45H22.5C21.7237 45 21.0938 44.37 21.0938 43.5938V33.2813C21.0938 32.505 21.7237 31.875 22.5 31.875H35.1562C35.9325 31.875 36.5625 32.505 36.5625 33.2813V43.5938C36.5625 44.37 35.9325 45 35.1562 45ZM23.9062 42.1875H33.75V34.6875H23.9062V42.1875Z" fill="#DF1119"/>
<path d="M28.5937 34.6875H16.4062C15.63 34.6875 15 34.0575 15 33.2812V22.0312C15 21.255 15.63 20.625 16.4062 20.625H28.5937C29.37 20.625 30 21.255 30 22.0312V33.2812C30 34.0575 29.37 34.6875 28.5937 34.6875ZM17.8125 31.875H27.1875V23.4375H17.8125V31.875Z" fill="#DF1119"/>
<path d="M22.5 45H9.84375C9.0675 45 8.4375 44.37 8.4375 43.5938V33.2813C8.4375 32.505 9.0675 31.875 9.84375 31.875H22.5C23.2762 31.875 23.9062 32.505 23.9062 33.2813V43.5938C23.9062 44.37 23.2762 45 22.5 45ZM11.25 42.1875H21.0938V34.6875H11.25V42.1875Z" fill="#DF1119"/>
<path d="M22.5 26.25C21.7237 26.25 21.0938 25.62 21.0938 24.8438V22.0312C21.0938 21.255 21.7237 20.625 22.5 20.625C23.2763 20.625 23.9062 21.255 23.9062 22.0312V24.8438C23.9062 25.62 23.2763 26.25 22.5 26.25Z" fill="#DF1119"/>
<path d="M16.4062 37.5C15.63 37.5 15 36.87 15 36.0938V33.2813C15 32.505 15.63 31.875 16.4062 31.875C17.1825 31.875 17.8125 32.505 17.8125 33.2813V36.0938C17.8125 36.87 17.1825 37.5 16.4062 37.5Z" fill="#DF1119"/>
<path d="M28.5938 37.5C27.8175 37.5 27.1875 36.87 27.1875 36.0938V33.2813C27.1875 32.505 27.8175 31.875 28.5938 31.875C29.37 31.875 30 32.505 30 33.2813V36.0938C30 36.87 29.37 37.5 28.5938 37.5Z" fill="#DF1119"/>
<path d="M41.7188 44.9996H3.28125C1.47188 44.9996 0 43.5277 0 41.7183V15.937C0 15.4739 0.22875 15.0408 0.609375 14.7783L21.7031 0.247045C22.1831 -0.0848303 22.8187 -0.0848303 23.2987 0.247045L44.3925 14.7783C44.7713 15.0408 45 15.4739 45 15.937V41.7183C45 43.5277 43.5281 44.9996 41.7188 44.9996ZM2.8125 16.6758V41.7183C2.8125 41.9771 3.0225 42.1871 3.28125 42.1871H41.7188C41.9775 42.1871 42.1875 41.9771 42.1875 41.7183V16.6758L22.5 3.11392L2.8125 16.6758Z" fill="#DF1119"/>
</g>
<defs>
<clipPath id="clip0_255_1466">
<rect width="45" height="45" fill="white"/>
</clipPath>
</defs>
</svg>
