<svg width="47" height="50" viewBox="0 0 47 50" fill="none" xmlns="http://www.w3.org/2000/svg">
<path d="M6.1998 45.75L23.3486 49.1743C23.3964 49.1824 23.4522 49.1905 23.5 49.1905C23.5478 49.1905 23.6036 49.1824 23.6514 49.1743L40.8002 45.75C41.1747 45.669 41.4456 45.3371 41.4456 44.9486V29.9076L45.7965 30.0533H45.8284C46.1153 30.0533 46.3862 29.8914 46.5297 29.6323C46.6731 29.3571 46.6492 29.0333 46.4819 28.7824L40.824 20.59C40.6966 20.4119 40.5053 20.2905 40.2901 20.25L37.1186 19.74V7.23284C37.1186 6.78761 36.76 6.42332 36.3217 6.42332C35.8755 6.42332 35.5248 6.78761 35.5248 7.23284V19.4809L23.6275 17.5624C23.6195 17.5624 23.6116 17.5624 23.6116 17.5624C23.5796 17.5543 23.5478 17.5624 23.5159 17.5624C23.5159 17.5624 23.508 17.5543 23.5 17.5543C23.492 17.5543 23.484 17.5624 23.4761 17.5624H23.3884C23.3884 17.5624 23.3804 17.5624 23.3725 17.5624L11.8497 19.4243V7.23284C11.8497 6.78761 11.4911 6.42332 11.0528 6.42332C10.6145 6.42332 10.2559 6.78761 10.2559 7.23284V19.6833L6.70982 20.25C6.49464 20.2905 6.3034 20.4119 6.17592 20.59L0.518081 28.7824C0.350769 29.0333 0.326839 29.3571 0.470271 29.6323C0.613751 29.8914 0.884661 30.0533 1.17152 30.0533H1.20343L5.55434 29.9076V44.9486C5.55434 45.3371 5.8253 45.669 6.1998 45.75ZM24.2969 22.2576L27.1656 28.9524C27.2851 29.2438 27.5561 29.43 27.8668 29.4462L31.4687 29.5676V35.5176C31.4687 35.9628 31.8273 36.3271 32.2656 36.3271C32.7039 36.3271 33.0625 35.9628 33.0625 35.5176V29.6162L34.8794 29.6809V33.1862C34.8794 33.6395 35.23 33.9957 35.6763 33.9957C36.1145 33.9957 36.4731 33.6395 36.4731 33.1862V29.7376L39.8519 29.8509V44.2848L24.2969 47.3933V22.2576ZM22.7031 47.3933L7.14809 44.2848V29.8509L19.1331 29.4462C19.4439 29.43 19.7148 29.2438 19.8344 28.9524L22.7031 22.2576V47.3933Z" fill="#DF1119"/>
<path d="M16.339 17.3297C16.7791 17.3297 17.1359 16.9672 17.1359 16.5202V3.38479C17.1359 2.93773 16.7791 2.57526 16.339 2.57526C15.8989 2.57526 15.5421 2.93773 15.5421 3.38479V16.5202C15.5421 16.9672 15.8989 17.3297 16.339 17.3297Z" fill="#DF1119"/>
<path d="M30.2341 3.38479V16.5202C30.2341 16.9672 30.5909 17.3297 31.031 17.3297C31.4711 17.3297 31.8279 16.9672 31.8279 16.5202V3.38479C31.8279 2.93773 31.4711 2.57526 31.031 2.57526C30.5909 2.57526 30.2341 2.93773 30.2341 3.38479Z" fill="#DF1119"/>
<path d="M35.6733 34.4119C35.2333 34.4119 34.8765 34.7744 34.8765 35.2215V35.5147C34.8765 35.9618 35.2333 36.3243 35.6733 36.3243C36.1134 36.3243 36.4702 35.9618 36.4702 35.5147V35.2215C36.4702 34.7744 36.1134 34.4119 35.6733 34.4119Z" fill="#DF1119"/>
<path d="M35.6733 36.6338C35.2333 36.6338 34.8765 36.9962 34.8765 37.4433V39.0509C34.8765 39.4979 35.2333 39.8604 35.6733 39.8604C36.1134 39.8604 36.4702 39.4979 36.4702 39.0509V37.4433C36.4702 36.9962 36.1134 36.6338 35.6733 36.6338Z" fill="#DF1119"/>
<path d="M23.5 0.619049C22.0736 0.619049 20.9181 1.80092 20.9181 3.2419V8.27711H19.1969C18.894 8.27711 18.6152 8.45523 18.4797 8.73044C18.3442 9.0057 18.3761 9.32953 18.5594 9.57238L22.8625 15.401C23.0139 15.6114 23.253 15.7247 23.5 15.7247C23.747 15.7247 23.9861 15.6114 24.1375 15.401L28.4406 9.57238C28.6239 9.32953 28.6558 9.0057 28.5203 8.73044C28.3848 8.45523 28.106 8.27711 27.8031 8.27711H26.0819V3.2419C26.0819 1.80092 24.9264 0.619049 23.5 0.619049Z" fill="#DF1119"/>
</svg>
