<svg width="46" height="44" viewBox="0 0 46 44" fill="none" xmlns="http://www.w3.org/2000/svg">
<path fill-rule="evenodd" clip-rule="evenodd" d="M32.351 22.5186C30.38 22.5186 29.3911 24.9064 30.7847 26.3C30.908 26.4233 30.9772 26.5905 30.9772 26.7649C30.9772 26.9392 30.908 27.1065 30.7847 27.2298L29.3693 28.6452C29.246 28.7684 29.0788 28.8377 28.9044 28.8377C28.7301 28.8377 28.5628 28.7684 28.4395 28.6452C27.046 27.2516 24.6583 28.2409 24.6583 30.2114C24.6582 30.3858 24.589 30.553 24.4657 30.6763C24.3424 30.7995 24.1752 30.8688 24.0008 30.8688H21.9993C21.9129 30.8688 21.8274 30.8518 21.7477 30.8188C21.6679 30.7857 21.5954 30.7373 21.5344 30.6763C21.4733 30.6152 21.4249 30.5428 21.3918 30.463C21.3588 30.3832 21.3418 30.2977 21.3418 30.2114C21.3418 28.238 18.9559 27.2498 17.5605 28.6452C17.4372 28.7684 17.27 28.8377 17.0956 28.8377C16.9213 28.8377 16.754 28.7684 16.6307 28.6452L15.2153 27.2298C15.0921 27.1065 15.0228 26.9392 15.0228 26.7649C15.0228 26.5905 15.0921 26.4233 15.2153 26.3C16.6089 24.9064 15.6196 22.5186 13.6491 22.5186C13.5628 22.5186 13.4773 22.5016 13.3975 22.4686C13.3177 22.4356 13.2453 22.3872 13.1842 22.3261C13.1232 22.2651 13.0748 22.1926 13.0417 22.1128C13.0087 22.0331 12.9917 21.9476 12.9917 21.8612V19.8597C12.9917 19.7734 13.0087 19.6879 13.0417 19.6081C13.0747 19.5283 13.1232 19.4559 13.1842 19.3948C13.2453 19.3337 13.3177 19.2853 13.3975 19.2523C13.4773 19.2192 13.5628 19.2022 13.6491 19.2022C15.62 19.2022 16.6089 16.8145 15.2153 15.421C15.0921 15.2977 15.0228 15.1304 15.0228 14.9561C15.0228 14.7817 15.0921 14.6145 15.2153 14.4912L16.6307 13.0758C16.754 12.9525 16.9213 12.8833 17.0956 12.8833C17.27 12.8833 17.4372 12.9525 17.5605 13.0758C18.9541 14.4693 21.3418 13.4801 21.3418 11.5095C21.3418 11.4232 21.3588 11.3377 21.3918 11.2579C21.4249 11.1782 21.4733 11.1057 21.5344 11.0447C21.5954 10.9836 21.6679 10.9352 21.7477 10.9022C21.8274 10.8691 21.9129 10.8521 21.9993 10.8521H24.0008C24.1752 10.8521 24.3424 10.9214 24.4657 11.0447C24.589 11.168 24.6582 11.3352 24.6583 11.5095C24.6583 13.4804 27.046 14.4693 28.4395 13.0758C28.5628 12.9525 28.7301 12.8833 28.9044 12.8833C29.0788 12.8833 29.246 12.9525 29.3693 13.0758L30.7847 14.4912C30.908 14.6145 30.9772 14.7817 30.9772 14.9561C30.9772 15.1304 30.908 15.2977 30.7847 15.421C29.3911 16.8145 30.3804 19.2022 32.351 19.2022C32.4373 19.2022 32.5228 19.2192 32.6026 19.2523C32.6823 19.2853 32.7548 19.3337 32.8158 19.3948C32.8769 19.4559 32.9253 19.5283 32.9583 19.6081C32.9914 19.6879 33.0084 19.7734 33.0083 19.8597V21.8612C33.0084 21.9476 32.9914 22.0331 32.9583 22.1128C32.9253 22.1926 32.8769 22.2651 32.8158 22.3261C32.7548 22.3872 32.6823 22.4356 32.6025 22.4686C32.5228 22.5016 32.4373 22.5186 32.351 22.5186ZM9.48322 9.41734C6.76998 12.6122 5.28311 16.6689 5.28904 20.8605C5.28904 30.6419 13.2186 38.5715 23 38.5715H40.4067C40.4544 38.5715 40.5001 38.5904 40.5338 38.6241C40.5675 38.6578 40.5864 38.7035 40.5864 38.7511V40.662C40.5864 40.6984 40.5974 40.734 40.618 40.7639C40.6387 40.7939 40.6679 40.8169 40.7019 40.8299C40.7359 40.8429 40.773 40.8453 40.8084 40.8368C40.8437 40.8282 40.8757 40.8091 40.8999 40.782L44.4551 36.8154C44.4847 36.7825 44.5011 36.7397 44.5011 36.6954C44.5011 36.6511 44.4847 36.6084 44.4551 36.5755L40.8999 32.6089C40.8757 32.5818 40.8437 32.5627 40.8084 32.5541C40.773 32.5455 40.7359 32.5479 40.7019 32.5609C40.6679 32.5739 40.6387 32.5969 40.618 32.6269C40.5974 32.6569 40.5864 32.6924 40.5864 32.7288V34.6396C40.5864 34.6873 40.5675 34.733 40.5338 34.7667C40.5001 34.8004 40.4544 34.8193 40.4067 34.8193H23C20.0301 34.8192 17.1377 33.872 14.7431 32.1152C12.3486 30.3584 10.5767 27.8837 9.68517 25.0508C8.79361 22.2179 8.82881 19.1745 9.78565 16.363C10.7425 13.5514 12.5711 11.1184 15.0056 9.41743L9.48322 9.41734ZM23 6.90172C25.9699 6.90178 28.8624 7.84906 31.2569 9.60584C33.6515 11.3626 35.4233 13.8373 36.3149 16.6702C37.2064 19.5031 37.1712 22.5466 36.2144 25.3581C35.2576 28.1696 33.429 30.6027 30.9944 32.3036H36.5167C39.23 29.1087 40.7169 25.052 40.711 20.8605C40.711 11.079 32.7815 3.14948 23 3.14948H5.59334C5.54569 3.14948 5.49998 3.13055 5.46628 3.09685C5.43259 3.06315 5.41366 3.01745 5.41366 2.96979V1.05891C5.41365 1.02254 5.40261 0.987026 5.38199 0.957065C5.36137 0.927104 5.33215 0.904105 5.29818 0.891108C5.26421 0.87811 5.2271 0.875727 5.19175 0.884272C5.1564 0.892817 5.12447 0.911889 5.10019 0.938966L1.54534 4.90566C1.51568 4.93857 1.49927 4.9813 1.49927 5.0256C1.49927 5.0699 1.51568 5.11263 1.54534 5.14554L5.10055 9.11214C5.12483 9.13922 5.15676 9.15829 5.19211 9.16684C5.22746 9.17538 5.26457 9.173 5.29854 9.16C5.33251 9.147 5.36173 9.12401 5.38235 9.09404C5.40297 9.06408 5.41401 9.02857 5.41401 8.9922V7.0814C5.41401 7.03375 5.43295 6.98804 5.46664 6.95435C5.50034 6.92065 5.54605 6.90172 5.5937 6.90172H23ZM13.2266 38.5716H5.59334C5.54569 38.5716 5.49998 38.5906 5.46628 38.6243C5.43259 38.658 5.41366 38.7037 5.41366 38.7513V40.662C5.41365 40.6984 5.40261 40.7339 5.38199 40.7639C5.36137 40.7938 5.33215 40.8168 5.29818 40.8298C5.26421 40.8428 5.2271 40.8452 5.19175 40.8367C5.1564 40.8281 5.12447 40.8091 5.10019 40.782L1.54534 36.8153C1.51568 36.7824 1.49927 36.7396 1.49927 36.6953C1.49927 36.651 1.51568 36.6083 1.54534 36.5754L5.10055 32.6088C5.12483 32.5817 5.15676 32.5627 5.19211 32.5541C5.22746 32.5456 5.26457 32.5479 5.29854 32.5609C5.33251 32.5739 5.36173 32.5969 5.38235 32.6269C5.40297 32.6569 5.41401 32.6924 5.41401 32.7287V34.6395C5.41401 34.6872 5.43295 34.7329 5.46664 34.7666C5.50034 34.8003 5.54605 34.8192 5.5937 34.8192H8.36277C9.78443 36.3093 11.4244 37.5745 13.2266 38.5715V38.5716ZM37.6371 6.90172C36.2155 5.41154 34.5755 4.14632 32.7733 3.14948H40.4065C40.4542 3.14948 40.4999 3.13055 40.5336 3.09685C40.5673 3.06315 40.5862 3.01745 40.5862 2.96979V1.05891C40.5862 1.02254 40.5973 0.987026 40.6179 0.957065C40.6385 0.927104 40.6677 0.904105 40.7017 0.891108C40.7357 0.87811 40.7728 0.875727 40.8081 0.884272C40.8435 0.892817 40.8754 0.911889 40.8997 0.938966L44.4547 4.90566C44.4844 4.93857 44.5008 4.9813 44.5008 5.0256C44.5008 5.0699 44.4844 5.11263 44.4547 5.14554L40.8995 9.11214C40.8752 9.13922 40.8433 9.15829 40.8079 9.16684C40.7726 9.17538 40.7355 9.173 40.7015 9.16C40.6675 9.147 40.6383 9.12401 40.6177 9.09404C40.5971 9.06408 40.586 9.02857 40.586 8.9922V7.0814C40.586 7.03375 40.5671 6.98804 40.5334 6.95435C40.4997 6.92065 40.454 6.90172 40.4063 6.90172H37.6371ZM23 15.9696C22.0327 15.9696 21.0871 16.2564 20.2828 16.7938C19.4785 17.3312 18.8516 18.0951 18.4814 18.9888C18.1112 19.8825 18.0144 20.8659 18.2031 21.8146C18.3918 22.7634 18.8576 23.6349 19.5416 24.3189C20.2256 25.0029 21.0971 25.4687 22.0459 25.6574C22.9946 25.8461 23.978 25.7493 24.8717 25.3791C25.7654 25.0089 26.5292 24.382 27.0667 23.5777C27.6041 22.7734 27.8909 21.8278 27.8909 20.8605C27.8909 19.5633 27.3756 18.3193 26.4584 17.4021C25.5412 16.4848 24.2972 15.9696 23 15.9696Z" fill="#DF1119"/>
</svg>
