<svg width="53" height="53" viewBox="0 0 53 53" fill="none" xmlns="http://www.w3.org/2000/svg">
<g clip-path="url(#clip0_255_1436)">
<path d="M40.0283 31.5105C36.3445 31.5105 33.3477 34.5074 33.3477 38.1912C33.3477 41.875 36.3445 44.8719 40.0283 44.8719C43.7128 44.8719 46.709 41.875 46.709 38.1912C46.709 34.5074 43.7122 31.5105 40.0283 31.5105ZM40.0283 41.5315C38.1862 41.5315 36.688 40.0333 36.688 38.1912C36.688 36.349 38.1862 34.8508 40.0283 34.8508C41.8705 34.8508 43.3687 36.349 43.3687 38.1912C43.3687 40.0334 41.8705 41.5315 40.0283 41.5315Z" fill="#DF1119"/>
<path d="M17.2027 31.5105C13.5189 31.5105 10.522 34.5074 10.522 38.1912C10.522 41.875 13.5189 44.8719 17.2027 44.8719C20.8865 44.8719 23.8834 41.875 23.8834 38.1912C23.8834 34.5074 20.8865 31.5105 17.2027 31.5105ZM17.2027 41.5315C15.3605 41.5315 13.8623 40.0333 13.8623 38.1912C13.8623 36.349 15.3605 34.8508 17.2027 34.8508C19.0443 34.8508 20.543 36.349 20.543 38.1912C20.543 40.0334 19.0448 41.5315 17.2027 41.5315Z" fill="#DF1119"/>
<path d="M44.5274 12.3882C44.2434 11.8243 43.6661 11.4685 43.0348 11.4685H34.2385V14.8088H42.0048L46.5526 23.8544L49.5378 22.3535L44.5274 12.3882Z" fill="#DF1119"/>
<path d="M35.018 36.5767H22.3804V39.9171H35.018V36.5767Z" fill="#DF1119"/>
<path d="M12.1921 36.5767H6.4023C5.47977 36.5767 4.73218 37.3244 4.73218 38.2469C4.73218 39.1694 5.47987 39.917 6.4023 39.917H12.1922C13.1148 39.917 13.8624 39.1693 13.8624 38.2469C13.8624 37.3243 13.1147 36.5767 12.1921 36.5767Z" fill="#DF1119"/>
<path d="M52.6493 26.3664L49.3641 22.1353C49.0485 21.7277 48.5613 21.4894 48.0452 21.4894H35.9086V9.79827C35.9086 8.87574 35.1609 8.12815 34.2385 8.12815H6.4023C5.47977 8.12815 4.73218 8.87584 4.73218 9.79827C4.73218 10.7207 5.47987 11.4684 6.4023 11.4684H32.5683V23.1595C32.5683 24.0821 33.316 24.8297 34.2384 24.8297H47.2273L49.6596 27.9629V36.5765H45.0388C44.1163 36.5765 43.3687 37.3242 43.3687 38.2466C43.3687 39.1692 44.1164 39.9168 45.0388 39.9168H51.3297C52.2523 39.9168 52.9999 39.1691 53 38.2466V27.3908C53 27.02 52.8764 26.6592 52.6493 26.3664Z" fill="#DF1119"/>
<path d="M12.081 28.1145H4.39815C3.47562 28.1145 2.72803 28.8622 2.72803 29.7846C2.72803 30.7072 3.47572 31.4548 4.39815 31.4548H12.0809C13.0034 31.4548 13.751 30.7071 13.751 29.7846C13.7511 28.8622 13.0034 28.1145 12.081 28.1145Z" fill="#DF1119"/>
<path d="M15.9223 21.5451H1.67012C0.747694 21.5451 0 22.2928 0 23.2153C0 24.1379 0.747694 24.8855 1.67012 24.8855H15.9223C16.8448 24.8855 17.5924 24.1378 17.5924 23.2153C17.5924 22.2929 16.8448 21.5451 15.9223 21.5451Z" fill="#DF1119"/>
<path d="M18.6503 14.9758H4.39815C3.47562 14.9758 2.72803 15.7235 2.72803 16.6459C2.72803 17.5685 3.47572 18.316 4.39815 18.316H18.6503C19.5728 18.316 20.3204 17.5684 20.3204 16.6459C20.3205 15.7235 19.5728 14.9758 18.6503 14.9758Z" fill="#DF1119"/>
</g>
<defs>
<clipPath id="clip0_255_1436">
<rect width="53" height="53" fill="white"/>
</clipPath>
</defs>
</svg>
