<svg width="53" height="53" viewBox="0 0 53 53" fill="none" xmlns="http://www.w3.org/2000/svg">
<g clip-path="url(#clip0_130_206)">
<path d="M52.8092 41.5974L49.731 32.6389C51.2148 29.6056 51.9989 26.2323 52.0042 22.8381C52.0133 16.9363 49.7299 11.3561 45.5746 7.12542C41.4185 2.8939 35.8802 0.511898 29.9797 0.418423C23.8614 0.321739 18.1105 2.64898 13.787 6.97242C9.61798 11.1413 7.30564 16.6373 7.23246 22.5104C3.1235 25.604 0.698228 30.4274 0.706198 35.5792C0.710028 37.9901 1.25266 40.3866 2.28088 42.5537L0.160566 48.7241C-0.203913 49.7848 0.0623297 50.9365 0.855468 51.7297C1.41363 52.2879 2.14952 52.5851 2.90632 52.5851C3.22474 52.5851 3.54688 52.5325 3.86105 52.4246L10.0315 50.3043C12.1986 51.3325 14.5951 51.8751 17.006 51.8789C17.0147 51.8789 17.023 51.8789 17.0317 51.8789C22.2603 51.8787 27.1203 49.3909 30.2027 45.1813C33.4104 45.0968 36.5841 44.3203 39.4532 42.9167L48.4119 45.9951C48.7852 46.1234 49.168 46.1859 49.5463 46.1859C50.4457 46.1859 51.3202 45.8327 51.9836 45.1691C52.926 44.2266 53.2423 42.8581 52.8092 41.5974ZM17.0315 48.7242C17.0247 48.7242 17.0176 48.7242 17.0109 48.7242C14.877 48.721 12.7579 48.1949 10.8832 47.203C10.4977 46.9992 10.0451 46.9639 9.63289 47.1055L3.30569 49.2797L5.47983 42.9526C5.62144 42.5403 5.58625 42.0877 5.38232 41.7023C4.39043 39.8274 3.86436 37.7085 3.86105 35.5745C3.85577 32.142 5.19102 28.8886 7.52603 26.4524C8.28873 31.102 10.5047 35.3865 13.9396 38.7603C17.3491 42.1091 21.6348 44.2413 26.2591 44.9384C23.8174 47.3451 20.526 48.7242 17.0315 48.7242ZM49.7526 42.9384C49.6629 43.0281 49.5565 43.0526 49.4368 43.0114L39.8463 39.7158C39.6797 39.6586 39.5064 39.6302 39.3338 39.6302C39.0792 39.6302 38.8256 39.6918 38.5961 39.8133C35.8578 41.2619 32.7635 42.0302 29.6475 42.035C29.6372 42.035 29.6279 42.035 29.6177 42.035C19.1767 42.035 10.5525 33.5535 10.3871 23.1151C10.3038 17.858 12.3035 12.9173 16.0177 9.20309C19.732 5.48884 24.6735 3.48984 29.9299 3.57265C40.3783 3.73838 48.8656 12.3785 48.8494 22.8331C48.8446 25.9492 48.0764 29.0436 46.6279 31.7817C46.424 32.167 46.3888 32.6196 46.5304 33.0319L49.8258 42.6225C49.8669 42.7425 49.8423 42.8488 49.7526 42.9384Z" fill="#DF1119"/>
<path d="M39.014 14.4414H20.2197C19.3485 14.4414 18.6423 15.1477 18.6423 16.0188C18.6423 16.89 19.3486 17.5962 20.2197 17.5962H39.014C39.8852 17.5962 40.5914 16.8899 40.5914 16.0188C40.5914 15.1477 39.8852 14.4414 39.014 14.4414Z" fill="#DF1119"/>
<path d="M39.014 20.9292H20.2197C19.3485 20.9292 18.6423 21.6355 18.6423 22.5066C18.6423 23.3777 19.3486 24.0839 20.2197 24.0839H39.014C39.8852 24.0839 40.5914 23.3777 40.5914 22.5066C40.5914 21.6355 39.8852 20.9292 39.014 20.9292Z" fill="#DF1119"/>
<path d="M31.7799 27.4155H20.22C19.3488 27.4155 18.6426 28.1218 18.6426 28.9929C18.6426 29.8641 19.3489 30.5703 20.22 30.5703H31.7798C32.651 30.5703 33.3571 29.864 33.3571 28.9929C33.3571 28.1218 32.6511 27.4155 31.7799 27.4155Z" fill="#DF1119"/>
</g>
<defs>
<clipPath id="clip0_130_206">
<rect width="53" height="53" fill="white"/>
</clipPath>
</defs>
</svg>
