<svg width="25" height="23" viewBox="0 0 25 23" fill="none" xmlns="http://www.w3.org/2000/svg">
<path d="M21.25 5.09391H15.4167V4.67725C15.4142 2.60714 13.7368 0.929687 11.6667 0.927246H3.75C1.67989 0.929687 0.00244141 2.60714 0 4.67725L0 9.67724C0.00244141 11.7474 1.67989 13.4248 3.75 13.4272H4.16667V16.7606C4.16667 16.929 4.26819 17.081 4.42383 17.1455C4.57947 17.21 4.75871 17.1742 4.87793 17.0552L8.50586 13.4272H9.58333V13.8439C9.58577 15.914 11.2632 17.5915 13.3333 17.5939H15.6608L20.1221 22.0552C20.2413 22.1742 20.4205 22.21 20.5762 22.1455C20.7318 22.081 20.8333 21.929 20.8333 21.7606V17.5939H21.25C23.3201 17.5915 24.9976 15.914 25 13.8439V8.84391C24.9976 6.7738 23.3201 5.09635 21.25 5.09391ZM8.33333 12.5939C8.22286 12.5939 8.11686 12.6379 8.03874 12.716L5 15.7547V13.0106C5 12.7805 4.81344 12.5939 4.58333 12.5939H3.75C2.13989 12.5921 0.835164 11.2874 0.833333 9.67724V4.67725C0.835164 3.06714 2.13989 1.76241 3.75 1.76058H11.6667C13.2768 1.76241 14.5815 3.06714 14.5833 4.67725V5.09391H13.3333C11.2632 5.09635 9.58577 6.7738 9.58333 8.84391V12.5939H8.33333ZM24.1667 13.8439C24.1648 15.454 22.8601 16.7587 21.25 16.7606H20.4167C20.1866 16.7606 20 16.9471 20 17.1772V20.7547L16.1279 16.8826C16.0498 16.8045 15.9438 16.7606 15.8333 16.7606H13.3333C11.7232 16.7587 10.4185 15.454 10.4167 13.8439V8.84391C10.4185 7.2338 11.7232 5.92908 13.3333 5.92725H21.25C22.8601 5.92908 24.1648 7.2338 24.1667 8.84391V13.8439Z" fill="#DF1119"/>
<path d="M22.0827 8.42725H12.4994C12.2693 8.42725 12.0827 8.61381 12.0827 8.84391C12.0827 9.07402 12.2693 9.26058 12.4994 9.26058H22.0827C22.3128 9.26058 22.4994 9.07402 22.4994 8.84391C22.4994 8.61381 22.3128 8.42725 22.0827 8.42725Z" fill="#DF1119"/>
<path d="M22.0827 10.9268H12.4994C12.2693 10.9268 12.0827 11.1133 12.0827 11.3434C12.0827 11.5735 12.2693 11.7601 12.4994 11.7601H22.0827C22.3128 11.7601 22.4994 11.5735 22.4994 11.3434C22.4994 11.1133 22.3128 10.9268 22.0827 10.9268Z" fill="#DF1119"/>
<path d="M22.0827 13.4272H12.4994C12.2693 13.4272 12.0827 13.6138 12.0827 13.8439C12.0827 14.074 12.2693 14.2606 12.4994 14.2606H22.0827C22.3128 14.2606 22.4994 14.074 22.4994 13.8439C22.4994 13.6138 22.3128 13.4272 22.0827 13.4272Z" fill="#DF1119"/>
<path d="M2.49851 5.09408H11.2485C11.4786 5.09408 11.6652 4.90751 11.6652 4.67741C11.6652 4.44731 11.4786 4.26074 11.2485 4.26074H2.49851C2.26841 4.26074 2.08185 4.44731 2.08185 4.67741C2.08185 4.90751 2.26841 5.09408 2.49851 5.09408Z" fill="#DF1119"/>
<path d="M8.74851 6.76025H2.49851C2.26841 6.76025 2.08185 6.94682 2.08185 7.17692C2.08185 7.40702 2.26841 7.59359 2.49851 7.59359H8.74851C8.97862 7.59359 9.16518 7.40702 9.16518 7.17692C9.16518 6.94682 8.97862 6.76025 8.74851 6.76025Z" fill="#DF1119"/>
<path d="M8.33185 9.26074H2.49851C2.26841 9.26074 2.08185 9.44731 2.08185 9.67741C2.08185 9.90751 2.26841 10.0941 2.49851 10.0941H8.33185C8.56195 10.0941 8.74852 9.90751 8.74852 9.67741C8.74852 9.44731 8.56195 9.26074 8.33185 9.26074Z" fill="#DF1119"/>
</svg>
