<svg width="48" height="49" viewBox="0 0 48 49" fill="none" xmlns="http://www.w3.org/2000/svg">
<path d="M45.9744 33.0144C45.8298 33.4484 45.6851 33.8825 45.4681 34.2442C45.034 35.3293 44.0936 36.125 43.0085 36.4144C42.6468 36.5591 42.2851 36.5591 41.851 36.5591H41.7787C39.6085 39.8867 36.5702 42.491 32.9532 44.1548C32.9532 44.5165 32.9532 44.8059 32.8085 45.0952C32.5915 45.674 32.0851 46.0357 31.5787 46.2527C31 46.4697 30.3489 46.6144 29.7702 46.8314C29.5532 46.9761 29.4085 46.9761 29.1915 46.9761C28.7574 46.9761 28.3957 46.8314 28.034 46.6144C27.5276 46.325 27.1659 45.7463 27.0936 45.1676C26.8766 44.0825 27.6 42.9974 28.6851 42.708C29.1915 42.5633 29.6255 42.4186 30.1319 42.274C31 41.9846 31.8681 42.274 32.4468 42.8527C35.6298 41.4059 38.3064 39.091 40.3319 36.2697C40.1872 36.1974 39.9702 36.125 39.8255 35.9803C39.1021 35.5463 38.8851 34.6059 39.3191 33.8825C40.1872 32.3633 40.8383 30.6995 41.2723 28.9633C41.4893 28.1676 42.2127 27.5888 43.0808 27.7335C43.2978 27.7335 43.4425 27.8059 43.6595 27.8782C43.8042 26.9378 43.8766 25.925 43.8766 24.9846C43.8766 20.2825 42.2127 15.725 39.1744 12.1803C38.234 12.6144 37.1489 12.542 36.3532 11.8186C32.9532 8.85266 28.6127 7.11649 24.1276 7.11649C19.6425 7.11649 15.3745 8.78032 12.0468 11.8186C11.5404 12.2527 10.9617 12.4697 10.3106 12.4697C9.94892 12.4697 9.51488 12.3973 9.15318 12.1803C6.11488 15.725 4.37871 20.2825 4.37871 24.9846C4.37871 25.925 4.45105 26.9378 4.59573 27.8782C4.74041 27.8059 4.95743 27.7335 5.17445 27.7335C6.04254 27.6612 6.83828 28.1676 7.0553 28.9633C7.48935 30.7718 8.14041 32.4356 9.08084 34.0271C9.51488 34.7505 9.29786 35.691 8.64679 36.125C7.99573 36.5591 7.27233 36.7761 6.47658 36.7761C6.11488 36.7761 5.75318 36.7037 5.39148 36.6314C4.30637 36.2697 3.36594 35.5463 2.9319 34.4612C2.64254 33.9548 2.42552 33.4484 2.2085 32.942C1.8468 31.8569 1.91914 30.6995 2.49786 29.6867C2.71488 29.325 3.00424 28.9633 3.2936 28.6739C3.07658 27.4442 2.9319 26.2144 2.9319 24.9846C2.9319 19.9207 4.74041 15.0016 8.06807 11.1676C7.85105 10.8059 7.70637 10.3718 7.70637 9.93777C7.70637 9.21436 7.99573 8.5633 8.50211 8.12926C12.8425 4.29521 18.3404 2.125 24.1276 2.125C29.9149 2.125 35.4127 4.29521 39.6808 8.2016C40.1872 8.63564 40.4766 9.35905 40.4766 10.0101C40.4766 10.4442 40.3319 10.8782 40.1149 11.2399C43.4425 15.0739 45.251 19.9931 45.251 25.0569C45.251 26.2867 45.1064 27.5165 44.8893 28.7463C45.1787 29.0356 45.4681 29.325 45.6851 29.6867C46.3361 30.6995 46.4085 31.9293 45.9744 33.0144Z" fill="#DF1119"/>
<path d="M24.1277 10.5889C16.1702 10.5889 9.65956 17.0995 9.65956 25.057C9.65956 29.9761 12.1191 34.4612 16.1702 37.1378V41.2612C16.1702 41.4782 16.3149 41.7676 16.5319 41.8399C16.6766 41.9123 16.8213 41.9846 16.8936 41.9846C16.9659 41.9846 17.1106 41.9846 17.183 41.9123L22.4638 39.4527C23.0425 39.525 23.6213 39.5974 24.1277 39.5974C32.0851 39.5974 38.5957 33.0867 38.5957 25.1293C38.5957 17.0272 32.0851 10.5889 24.1277 10.5889ZM24.1277 38.0782C23.5489 38.0782 22.9702 38.0059 22.3915 37.9336C22.3915 37.9336 22.3915 37.9336 22.3191 37.9336C22.2468 37.9336 22.2468 37.9336 22.1745 37.9336C22.1021 37.9336 22.1021 37.9336 22.0298 37.9336C22.0298 37.9336 22.0298 37.9336 21.9574 37.9336L17.617 40.1038V36.7038V36.6314C17.617 36.5591 17.617 36.4867 17.617 36.4867C17.617 36.4144 17.617 36.4144 17.5447 36.3421C17.5447 36.2697 17.4723 36.2697 17.4723 36.1974C17.4723 36.125 17.4 36.125 17.4 36.0527C17.4 36.0527 17.4 36.0527 17.3277 35.9804C13.4936 33.5931 11.1787 29.4697 11.1787 24.9123C11.1787 17.7506 17.0383 11.891 24.2 11.891C31.3617 11.891 37.2213 17.7506 37.2213 24.9123C37.2213 32.074 31.2894 38.0782 24.1277 38.0782Z" fill="#DF1119"/>
<path d="M32.1574 32.4358C31.6511 33.1592 30.783 33.6655 29.8425 33.6655H18.3404C17.4 33.6655 16.6042 33.2315 16.0979 32.4358C15.5915 31.7124 15.4468 30.6996 15.8085 29.8315C17.0383 26.7209 20.0766 24.9124 24.1276 24.9124C28.1787 24.9124 31.2894 26.7209 32.4468 29.8315C32.8085 30.6996 32.6638 31.64 32.1574 32.4358Z" fill="#DF1119"/>
<path d="M28.0341 19.3419C28.0341 21.5121 26.2979 23.2483 24.1277 23.2483C21.9575 23.2483 20.2213 21.5121 20.2213 19.3419C20.2213 17.1717 21.9575 15.4355 24.1277 15.4355C26.2979 15.4355 28.0341 17.1717 28.0341 19.3419Z" fill="#DF1119"/>
</svg>
