<svg width="43" height="43" viewBox="0 0 43 43" fill="none" xmlns="http://www.w3.org/2000/svg">
<g clip-path="url(#clip0_239_716)">
<path d="M7.32955 32.2484C8.67888 32.2484 9.77273 31.1546 9.77273 29.8052C9.77273 28.4559 8.67888 27.3621 7.32955 27.3621C5.98022 27.3621 4.88637 28.4559 4.88637 29.8052C4.88637 31.1546 5.98022 32.2484 7.32955 32.2484Z" fill="#DF1119"/>
<path d="M13.374 26.7269C12.8629 25.6734 12.0836 24.773 11.1144 24.116C10.1452 23.459 9.02022 23.0685 7.85239 22.9839C7.50425 22.9595 7.15484 22.9595 6.80671 22.9839C5.63888 23.0685 4.51388 23.459 3.54468 24.116C2.57548 24.773 1.79621 25.6734 1.28511 26.7269C0.710692 27.8649 0.440738 29.1322 0.501536 30.4056C0.562333 31.6789 0.95181 32.9148 1.63205 33.9929L6.91909 42.285C6.96314 42.3539 7.02383 42.4106 7.09557 42.4499C7.1673 42.4892 7.24776 42.5098 7.32955 42.5098C7.41133 42.5098 7.4918 42.4892 7.56353 42.4499C7.63526 42.4106 7.69595 42.3539 7.74 42.285L13.027 33.9929C13.7073 32.9148 14.0968 31.6789 14.1576 30.4056C14.2184 29.1322 13.9484 27.8649 13.374 26.7269ZM7.32955 33.2257C6.65304 33.2257 5.99173 33.0251 5.42924 32.6493C4.86675 32.2734 4.42834 31.7392 4.16946 31.1142C3.91057 30.4892 3.84284 29.8015 3.97482 29.138C4.10679 28.4745 4.43256 27.865 4.91092 27.3866C5.38928 26.9083 5.99875 26.5825 6.66225 26.4505C7.32575 26.3186 8.01349 26.3863 8.6385 26.6452C9.2635 26.9041 9.79771 27.3425 10.1736 27.905C10.5494 28.4674 10.75 29.1288 10.75 29.8053C10.749 30.7121 10.3883 31.5815 9.74707 32.2228C9.10583 32.864 8.2364 33.2247 7.32955 33.2257Z" fill="#DF1119"/>
<path d="M37.8693 33.2257H21.7443C21.1611 33.2257 20.6019 32.9941 20.1895 32.5817C19.7771 32.1693 19.5455 31.61 19.5455 31.0269C19.5455 30.4437 19.7771 29.8844 20.1895 29.472C20.6019 29.0597 21.1611 28.828 21.7443 28.828H31.7614C33.1869 28.828 34.5541 28.2617 35.5621 27.2537C36.5701 26.2457 37.1364 24.8785 37.1364 23.453C37.1364 22.0275 36.5701 20.6603 35.5621 19.6523C34.5541 18.6443 33.1869 18.078 31.7614 18.078H14.4148C13.3132 18.078 12.2568 17.6404 11.4779 16.8615C10.699 16.0826 10.2614 15.0261 10.2614 13.9246C10.2614 12.823 10.699 11.7666 11.4779 10.9877C12.2568 10.2088 13.3132 9.77117 14.4148 9.77117H23.4545C23.5841 9.77117 23.7084 9.71969 23.8001 9.62806C23.8917 9.53642 23.9432 9.41213 23.9432 9.28254V7.32799C23.9432 7.1984 23.8917 7.07411 23.8001 6.98247C23.7084 6.89084 23.5841 6.83936 23.4545 6.83936H14.4148C12.5357 6.83936 10.7335 7.58583 9.40476 8.91457C8.07602 10.2433 7.32954 12.0455 7.32954 13.9246C7.32954 15.8037 8.07602 17.6059 9.40476 18.9346C10.7335 20.2633 12.5357 21.0098 14.4148 21.0098H31.7614C32.4093 21.0098 33.0308 21.2672 33.489 21.7254C33.9472 22.1836 34.2046 22.805 34.2046 23.453C34.2046 24.101 33.9472 24.7224 33.489 25.1806C33.0308 25.6388 32.4093 25.8962 31.7614 25.8962H21.7443C20.3836 25.8962 19.0786 26.4367 18.1164 27.3989C17.1542 28.3611 16.6136 29.6661 16.6136 31.0269C16.6136 32.3876 17.1542 33.6926 18.1164 34.6548C19.0786 35.617 20.3836 36.1575 21.7443 36.1575H37.8693C38.3229 36.1575 38.7579 36.3377 39.0786 36.6585C39.3994 36.9792 39.5796 37.4142 39.5796 37.8678C39.5796 38.3214 39.3994 38.7564 39.0786 39.0771C38.7579 39.3978 38.3229 39.578 37.8693 39.578H11.2386C11.1628 39.5779 11.0879 39.5956 11.0201 39.6295C10.9522 39.6634 10.8932 39.7127 10.8477 39.7735L9.38182 41.728C9.32737 41.8006 9.29421 41.8869 9.28606 41.9773C9.27791 42.0677 9.29509 42.1585 9.33568 42.2397C9.37626 42.3209 9.43864 42.3891 9.51584 42.4368C9.59303 42.4846 9.68198 42.5098 9.77273 42.5098H37.8693C39.1005 42.5098 40.2812 42.0208 41.1518 41.1502C42.0223 40.2796 42.5114 39.0989 42.5114 37.8678C42.5114 36.6366 42.0223 35.4559 41.1518 34.5854C40.2812 33.7148 39.1005 33.2257 37.8693 33.2257Z" fill="#DF1119"/>
<path d="M30.7841 0.487061H25.4091C25.2795 0.487061 25.1552 0.538542 25.0636 0.630179C24.9719 0.721816 24.9205 0.846103 24.9205 0.975697V4.39615H30.7841V0.487061Z" fill="#DF1119"/>
<path d="M42.0227 0.487061H36.6477V4.39615H42.5114V0.975697C42.5114 0.846103 42.4599 0.721816 42.3683 0.630179C42.2766 0.538542 42.1523 0.487061 42.0227 0.487061Z" fill="#DF1119"/>
<path d="M33.7159 4.88479C33.7801 4.88471 33.8436 4.89732 33.9029 4.92189C33.9622 4.94646 34.0161 4.98251 34.0614 5.02796L35.6704 6.63699V0.487061H31.7614V6.63699L33.3704 5.02796C33.4157 4.98251 33.4696 4.94646 33.5289 4.92189C33.5882 4.89732 33.6517 4.88471 33.7159 4.88479Z" fill="#DF1119"/>
<path d="M36.6477 7.81672C36.6477 7.91335 36.619 8.0078 36.5653 8.08813C36.5117 8.16847 36.4353 8.23108 36.3461 8.26806C36.2568 8.30503 36.1586 8.31471 36.0638 8.29587C35.969 8.27702 35.882 8.2305 35.8136 8.16218L33.7159 6.06452L31.6182 8.16218C31.5499 8.2305 31.4628 8.27702 31.368 8.29587C31.2733 8.31471 31.175 8.30503 31.0858 8.26806C30.9965 8.23108 30.9202 8.16847 30.8665 8.08813C30.8128 8.0078 30.7841 7.91335 30.7841 7.81672V5.37354H24.9205V15.6349C24.9205 15.7645 24.9719 15.8888 25.0636 15.9804C25.1552 16.0721 25.2795 16.1235 25.4091 16.1235H42.0227C42.1523 16.1235 42.2766 16.0721 42.3683 15.9804C42.4599 15.8888 42.5114 15.7645 42.5114 15.6349V5.37354H36.6477V7.81672ZM29.3182 14.6576H26.875C26.7454 14.6576 26.6211 14.6061 26.5295 14.5145C26.4378 14.4229 26.3864 14.2986 26.3864 14.169C26.3864 14.0394 26.4378 13.9151 26.5295 13.8235C26.6211 13.7318 26.7454 13.6804 26.875 13.6804H29.3182C29.4478 13.6804 29.5721 13.7318 29.6637 13.8235C29.7553 13.9151 29.8068 14.0394 29.8068 14.169C29.8068 14.2986 29.7553 14.4229 29.6637 14.5145C29.5721 14.6061 29.4478 14.6576 29.3182 14.6576ZM32.25 12.7031H26.875C26.7454 12.7031 26.6211 12.6516 26.5295 12.56C26.4378 12.4683 26.3864 12.344 26.3864 12.2144C26.3864 12.0848 26.4378 11.9606 26.5295 11.8689C26.6211 11.7773 26.7454 11.7258 26.875 11.7258H32.25C32.3796 11.7258 32.5039 11.7773 32.5955 11.8689C32.6872 11.9606 32.7386 12.0848 32.7386 12.2144C32.7386 12.344 32.6872 12.4683 32.5955 12.56C32.5039 12.6516 32.3796 12.7031 32.25 12.7031Z" fill="#DF1119"/>
</g>
<defs>
<clipPath id="clip0_239_716">
<rect width="43" height="43" fill="white" transform="translate(0 -0.00146484)"/>
</clipPath>
</defs>
</svg>
