<svg width="46" height="32" viewBox="0 0 46 32" fill="none" xmlns="http://www.w3.org/2000/svg">
<path d="M11.2584 20.3472C14.4557 20.3472 17.0568 22.9482 17.0568 26.1455C17.0568 29.3428 14.4557 31.9438 11.2584 31.9438C8.06063 31.9438 5.4601 29.3428 5.4601 26.1455C5.4601 22.9482 8.06116 20.3472 11.2584 20.3472ZM11.2584 29.0447C12.8573 29.0447 14.1576 27.7444 14.1576 26.1455C14.1576 24.5466 12.8573 23.2463 11.2584 23.2463C9.65957 23.2463 8.35926 24.5466 8.35926 26.1455C8.35926 27.7444 9.65957 29.0447 11.2584 29.0447Z" fill="#DF1119"/>
<path d="M31.0693 20.3472C34.2666 20.3472 36.8677 22.9482 36.8677 26.1455C36.8677 29.3428 34.2666 31.9438 31.0693 31.9438C27.8721 31.9438 25.271 29.3428 25.271 26.1455C25.271 22.9482 27.8721 20.3472 31.0693 20.3472ZM31.0693 29.0447C32.6682 29.0447 33.9685 27.7444 33.9685 26.1455C33.9685 24.5466 32.6682 23.2463 31.0693 23.2463C29.4709 23.2463 28.1702 24.5466 28.1702 26.1455C28.1702 27.7444 29.4705 29.0447 31.0693 29.0447Z" fill="#DF1119"/>
<path d="M7.3537 3.75065C7.60014 3.26119 8.1012 2.95239 8.64916 2.95239H16.2836V5.85156H9.5431L5.59591 13.7025L3.00499 12.3997L7.3537 3.75065Z" fill="#DF1119"/>
<path d="M15.6071 24.7444H26.5756V27.6436H15.6071V24.7444Z" fill="#DF1119"/>
<path d="M35.4181 24.7444H40.4433C41.244 24.7444 41.8928 25.3933 41.8928 26.1939C41.8928 26.9946 41.2439 27.6435 40.4433 27.6435H35.4181C34.6174 27.6435 33.9685 26.9945 33.9685 26.1939C33.9685 25.3932 34.6175 24.7444 35.4181 24.7444Z" fill="#DF1119"/>
<path d="M0.304428 15.8826L3.15571 12.2103C3.42964 11.8566 3.85244 11.6498 4.3004 11.6498H14.834V1.50276C14.834 0.702074 15.483 0.0532227 16.2836 0.0532227H40.4433C41.244 0.0532227 41.8928 0.702164 41.8928 1.50276C41.8928 2.30336 41.2439 2.9523 40.4433 2.9523H17.7332V13.0993C17.7332 13.9 17.0843 14.5489 16.2837 14.5489H5.01026L2.8992 17.2683V24.7443H6.90974C7.71042 24.7443 8.35928 25.3932 8.35928 26.1938C8.35928 26.9945 7.71033 27.6433 6.90974 27.6433H1.44967C0.648979 27.6433 0.000125885 26.9944 3.43323e-05 26.1938V16.7717C3.43323e-05 16.4499 0.107311 16.1368 0.304428 15.8826Z" fill="#DF1119"/>
<path d="M35.5147 17.3999H42.1828C42.9835 17.3999 43.6323 18.0488 43.6323 18.8494C43.6323 19.6501 42.9834 20.299 42.1828 20.299H35.5148C34.7141 20.299 34.0652 19.65 34.0652 18.8494C34.0651 18.0488 34.7141 17.3999 35.5147 17.3999Z" fill="#DF1119"/>
<path d="M32.1807 11.698H44.5505C45.3511 11.698 46 12.3469 46 13.1476C46 13.9483 45.3511 14.5972 44.5505 14.5972H32.1807C31.38 14.5972 30.7311 13.9482 30.7311 13.1476C30.7311 12.347 31.38 11.698 32.1807 11.698Z" fill="#DF1119"/>
<path d="M29.813 5.99634H42.1828C42.9835 5.99634 43.6323 6.64528 43.6323 7.44588C43.6323 8.24656 42.9834 8.89542 42.1828 8.89542H29.813C29.0123 8.89542 28.3635 8.24647 28.3635 7.44588C28.3634 6.64528 29.0123 5.99634 29.813 5.99634Z" fill="#DF1119"/>
</svg>
