<svg width="40" height="40" viewBox="0 0 40 40" fill="none" xmlns="http://www.w3.org/2000/svg">
<g clip-path="url(#clip0_239_702)">
<path d="M31.25 39.9985H20C19.31 39.9985 18.75 39.4385 18.75 38.7485V29.5818C18.75 28.8918 19.31 28.3318 20 28.3318H31.25C31.94 28.3318 32.5 28.8918 32.5 29.5818V38.7485C32.5 39.4385 31.94 39.9985 31.25 39.9985ZM21.25 37.4985H30V30.8318H21.25V37.4985Z" fill="#DF1119"/>
<path d="M25.4166 30.8318H14.5833C13.8933 30.8318 13.3333 30.2718 13.3333 29.5818V19.5818C13.3333 18.8918 13.8933 18.3318 14.5833 18.3318H25.4166C26.1066 18.3318 26.6666 18.8918 26.6666 19.5818V29.5818C26.6666 30.2718 26.1066 30.8318 25.4166 30.8318ZM15.8333 28.3318H24.1666V20.8318H15.8333V28.3318Z" fill="#DF1119"/>
<path d="M20 39.9985H8.75C8.06 39.9985 7.5 39.4385 7.5 38.7485V29.5818C7.5 28.8918 8.06 28.3318 8.75 28.3318H20C20.69 28.3318 21.25 28.8918 21.25 29.5818V38.7485C21.25 39.4385 20.69 39.9985 20 39.9985ZM10 37.4985H18.75V30.8318H10V37.4985Z" fill="#DF1119"/>
<path d="M20 23.3318C19.31 23.3318 18.75 22.7718 18.75 22.0818V19.5818C18.75 18.8918 19.31 18.3318 20 18.3318C20.69 18.3318 21.25 18.8918 21.25 19.5818V22.0818C21.25 22.7718 20.69 23.3318 20 23.3318Z" fill="#DF1119"/>
<path d="M14.5833 33.3318C13.8933 33.3318 13.3333 32.7718 13.3333 32.0818V29.5818C13.3333 28.8918 13.8933 28.3318 14.5833 28.3318C15.2733 28.3318 15.8333 28.8918 15.8333 29.5818V32.0818C15.8333 32.7718 15.2733 33.3318 14.5833 33.3318Z" fill="#DF1119"/>
<path d="M25.25 33C24.56 33 24 32.44 24 31.75V29.25C24 28.56 24.56 28 25.25 28C25.94 28 26.5 28.56 26.5 29.25V31.75C26.5 32.44 25.94 33 25.25 33Z" fill="#DF1119"/>
<path d="M37.0833 39.9983H2.91667C1.30833 39.9983 0 38.69 0 37.0817V14.165C0 13.7533 0.203333 13.3683 0.541667 13.135L19.2917 0.21832C19.7183 -0.0766797 20.2833 -0.0766797 20.71 0.21832L39.46 13.135C39.7967 13.3683 40 13.7533 40 14.165V37.0817C40 38.69 38.6917 39.9983 37.0833 39.9983ZM2.5 14.8217V37.0817C2.5 37.3117 2.68667 37.4983 2.91667 37.4983H37.0833C37.3133 37.4983 37.5 37.3117 37.5 37.0817V14.8217L20 2.76665L2.5 14.8217Z" fill="#DF1119"/>
</g>
<defs>
<clipPath id="clip0_239_702">
<rect width="40" height="40" fill="white" transform="translate(0 -0.00146484)"/>
</clipPath>
</defs>
</svg>
