<svg width="38" height="38" viewBox="0 0 38 38" fill="none" xmlns="http://www.w3.org/2000/svg">
<g clip-path="url(#clip0_255_1964)">
<path d="M20.463 1.81299C11.361 1.81299 3.88702 9.28699 3.88702 18.389C3.88702 27.565 11.361 34.965 20.463 34.965C29.565 34.965 37.039 27.565 37.039 18.389C37.039 9.28699 29.565 1.81299 20.463 1.81299ZM20.463 32.375C12.73 32.375 6.47702 26.085 6.47702 18.389C6.47702 10.693 12.767 4.40299 20.463 4.40299C28.159 4.40299 34.449 10.693 34.449 18.389C34.449 26.085 28.159 32.375 20.463 32.375Z" fill="white"/>
<path d="M18.798 20.7198L21.129 27.8238L26.309 10.6558L11.324 20.4978L18.798 20.7198Z" fill="#DF1119"/>
</g>
<defs>
<clipPath id="clip0_255_1964">
<rect width="36.9615" height="37.74" fill="white" transform="translate(0.493774)"/>
</clipPath>
</defs>
</svg>
