<svg width="31" height="25" viewBox="0 0 31 25" fill="none" xmlns="http://www.w3.org/2000/svg">
<g clip-path="url(#clip0_255_1881)">
<path fill-rule="evenodd" clip-rule="evenodd" d="M22.2643 15.2703L28.1323 18.514C29.9638 19.526 27.9357 21.8224 26.2906 23.1125C19.022 28.8111 0.307762 10.1804 6.07797 2.89985C7.37653 1.26113 9.66451 -0.773293 10.6765 1.05818L13.9202 6.92613C14.219 7.46671 14.0244 8.04364 13.6519 8.53569L12.4833 10.08C12.1341 10.5417 12.1122 11.1424 12.4257 11.6287C13.8192 13.7867 15.4036 15.371 17.5618 16.7648C18.0481 17.0785 18.6488 17.0566 19.1106 16.7072L20.6548 15.5386C21.147 15.1662 21.7238 14.9715 22.2644 15.2703L22.2643 15.2703Z" fill="#DF1119"/>
<path d="M27.7526 11.3945C27.7558 11.7444 28.0416 12.0264 28.3922 12.023C28.7427 12.0205 29.024 11.734 29.0213 11.3835C28.9644 5.27243 23.9204 0.228912 17.8093 0.171892C17.4595 0.16938 17.1729 0.450563 17.1698 0.801088C17.1673 1.15094 17.4484 1.43749 17.799 1.44066C23.215 1.4904 27.7021 5.97785 27.7527 11.3944L27.7526 11.3945Z" fill="#DF1119"/>
<path d="M24.6845 11.3658C24.6877 11.7156 24.9742 11.9976 25.3241 11.9943C25.6746 11.9918 25.9559 11.7052 25.9532 11.3547C25.9126 6.93029 22.2627 3.28099 17.8379 3.24026C17.4881 3.23708 17.2015 3.51893 17.1984 3.86877C17.1958 4.21929 17.477 4.50581 17.8275 4.50834C21.5569 4.54334 24.6498 7.63567 24.6841 11.3658H24.6845Z" fill="#DF1119"/>
<path d="M21.6165 11.3369C21.619 11.6868 21.9056 11.9688 22.2561 11.9654C22.6059 11.9629 22.8879 11.6764 22.8846 11.3259C22.8593 8.58789 20.6045 6.33336 17.8664 6.30763C17.5165 6.30512 17.23 6.5863 17.2268 6.93683C17.2243 7.28735 17.5055 7.57323 17.856 7.5764C19.8988 7.59516 21.597 9.29331 21.6164 11.3368L21.6165 11.3369Z" fill="#DF1119"/>
<path d="M5.20647 25.1377C5.19525 25.1436 5.18336 25.1478 5.17097 25.1505C5.15891 25.1535 5.14635 25.1552 5.13346 25.1552C5.0941 25.1552 5.06279 25.1443 5.03967 25.1223C5.0169 25.1001 5.00551 25.0701 5.00551 25.0326C5.00551 24.995 5.0169 24.9654 5.03967 24.9435C5.06278 24.9217 5.0941 24.9106 5.13346 24.9106C5.14635 24.9106 5.15891 24.9123 5.17097 24.9153C5.18336 24.918 5.19525 24.9224 5.20647 24.9281V24.977C5.19475 24.9689 5.18336 24.9632 5.17231 24.9595C5.16159 24.956 5.1502 24.9542 5.13814 24.9542C5.11671 24.9542 5.09963 24.9614 5.08723 24.9756C5.07467 24.9895 5.06848 25.0084 5.06848 25.0326C5.06848 25.0572 5.07467 25.0764 5.08723 25.0902C5.09963 25.1041 5.11671 25.1109 5.13814 25.1109C5.1502 25.1109 5.16159 25.1093 5.17231 25.1056C5.18336 25.1021 5.19475 25.0965 5.20647 25.0888V25.1377Z" fill="#DF1119"/>
<path d="M5.91262 24.9224V24.9726H5.9709V25.0128H5.91262V25.0878C5.91262 25.0964 5.91413 25.1022 5.91731 25.1052C5.92032 25.1079 5.92686 25.1093 5.93674 25.1093H5.96554V25.1495H5.91731C5.89487 25.1495 5.87913 25.1448 5.86975 25.1354C5.86037 25.126 5.85568 25.1103 5.85568 25.0878V25.0128H5.82755V24.9726H5.85568V24.9224L5.91262 24.9224Z" fill="#DF1119"/>
<path d="M6.34444 24.9994V24.9043H6.40138V25.1501H6.34444V25.1247C6.33674 25.1351 6.32837 25.1426 6.31899 25.1475C6.30961 25.1523 6.29856 25.1548 6.28616 25.1548C6.26423 25.1548 6.24631 25.1461 6.23257 25.1287C6.21867 25.1113 6.21181 25.089 6.21181 25.0617C6.21181 25.0346 6.21867 25.0122 6.23257 24.9947C6.24631 24.9773 6.26423 24.9686 6.28616 24.9686C6.29856 24.9686 6.30961 24.9711 6.31899 24.976C6.32837 24.981 6.33674 24.9887 6.34444 24.9994ZM6.3076 25.114C6.31966 25.114 6.3287 25.1096 6.33507 25.1006C6.34126 25.0917 6.34444 25.0788 6.34444 25.0617C6.34444 25.0448 6.34126 25.0321 6.33507 25.0235C6.3287 25.0147 6.31966 25.0101 6.3076 25.0101C6.29554 25.0101 6.28616 25.0147 6.27947 25.0235C6.2731 25.0321 6.27009 25.0448 6.27009 25.0617C6.27009 25.0788 6.2731 25.0917 6.27947 25.1006C6.28616 25.1096 6.29554 25.114 6.3076 25.114Z" fill="#DF1119"/>
<path d="M6.66243 25.114C6.67449 25.114 6.68353 25.1096 6.6899 25.1006C6.6966 25.0917 6.69995 25.0788 6.69995 25.0617C6.69995 25.0448 6.6966 25.0321 6.6899 25.0235C6.68353 25.0147 6.67449 25.0101 6.66243 25.0101C6.65038 25.0101 6.641 25.0147 6.6343 25.0235C6.62793 25.0326 6.62492 25.0453 6.62492 25.0617C6.62492 25.0788 6.62793 25.0917 6.6343 25.1006C6.641 25.1096 6.65037 25.114 6.66243 25.114ZM6.62492 24.9994C6.63246 24.9887 6.641 24.981 6.65037 24.976C6.66009 24.9711 6.67114 24.9686 6.6832 24.9686C6.70497 24.9686 6.72289 24.9773 6.73679 24.9947C6.75102 25.0121 6.75823 25.0346 6.75823 25.0617C6.75823 25.089 6.75102 25.1113 6.73679 25.1287C6.72289 25.1461 6.70497 25.1548 6.6832 25.1548C6.67114 25.1548 6.66009 25.1523 6.65037 25.1475C6.641 25.1426 6.63246 25.1351 6.62492 25.1247V25.1501H6.56865V24.9043H6.62492V24.9994Z" fill="#DF1119"/>
<path d="M7.12534 24.9141H7.1863V25.0038H7.27606V24.9141H7.33702V25.1499H7.27606V25.05H7.1863V25.1499H7.12534V24.9141Z" fill="#DF1119"/>
<path d="M8.47115 24.9224V24.9726H8.52943V25.0128H8.47115V25.0878C8.47115 25.0964 8.47266 25.1022 8.47584 25.1052C8.47886 25.1079 8.48539 25.1093 8.49527 25.1093H8.52407V25.1495H8.47584C8.4534 25.1495 8.43766 25.1448 8.42828 25.1354C8.4189 25.126 8.41421 25.1103 8.41421 25.0878V25.0128H8.38608V24.9726H8.41421V24.9224L8.47115 24.9224Z" fill="#DF1119"/>
<path d="M9.15254 25.0423V25.1501H9.0956V25.0678C9.0956 25.0527 9.0951 25.0421 9.09426 25.0363C9.09376 25.0306 9.09259 25.0262 9.09091 25.0235C9.08857 25.0195 9.08555 25.0167 9.08153 25.0148C9.07785 25.0127 9.07383 25.0115 9.06947 25.0115C9.05742 25.0115 9.04804 25.0162 9.04134 25.0255C9.03464 25.0346 9.03129 25.047 9.03129 25.0631V25.1501H8.97502V24.9043H9.03129V24.9994C9.03966 24.9887 9.04871 24.981 9.05809 24.976C9.0678 24.9711 9.07852 24.9686 9.09024 24.9686C9.11067 24.9686 9.12608 24.9751 9.13646 24.988C9.14718 25.0006 9.15254 25.0187 9.15254 25.0423Z" fill="#DF1119"/>
</g>
<defs>
<clipPath id="clip0_255_1881">
<rect width="29.9688" height="24.7588" fill="white" transform="translate(0.855225 0.171875)"/>
</clipPath>
</defs>
</svg>
