<svg width="20" height="22" viewBox="0 0 20 22" fill="none" xmlns="http://www.w3.org/2000/svg">
<path d="M15.928 1.552V19.648C15.928 20.048 16.064 20.392 16.336 20.68C16.624 20.968 16.968 21.112 17.368 21.112H17.968C18.384 21.112 18.728 20.968 19 20.68C19.288 20.392 19.432 20.048 19.432 19.648V1.552C19.432 1.152 19.288 0.807999 19 0.519999C18.712 0.231999 18.368 0.0879989 17.968 0.0879989H17.368C16.968 0.0879989 16.624 0.231999 16.336 0.519999C16.064 0.807999 15.928 1.152 15.928 1.552ZM12.28 21.088H12.88C13.28 21.088 13.616 20.944 13.888 20.656C14.176 20.384 14.32 20.048 14.32 19.648V5.08C14.32 4.68 14.176 4.344 13.888 4.072C13.616 3.784 13.28 3.64 12.88 3.64H12.28C11.88 3.64 11.536 3.784 11.248 4.072C10.96 4.344 10.816 4.68 10.816 5.08V19.648C10.816 20.048 10.96 20.384 11.248 20.656C11.536 20.944 11.88 21.088 12.28 21.088ZM7.144 21.112H7.768C8.168 21.112 8.512 20.968 8.8 20.68C9.088 20.392 9.232 20.048 9.232 19.648V8.632C9.232 8.232 9.088 7.896 8.8 7.624C8.512 7.336 8.168 7.192 7.768 7.192H7.144C6.744 7.192 6.4 7.336 6.112 7.624C5.824 7.896 5.68 8.232 5.68 8.632V19.648C5.68 20.048 5.824 20.392 6.112 20.68C6.4 20.968 6.744 21.112 7.144 21.112ZM2.056 21.088H2.632C3.032 21.088 3.376 20.944 3.664 20.656C3.952 20.384 4.096 20.048 4.096 19.648V12.16C4.096 11.76 3.952 11.424 3.664 11.152C3.376 10.864 3.032 10.72 2.632 10.72H2.056C1.656 10.72 1.312 10.864 1.024 11.152C0.736 11.424 0.592 11.76 0.592 12.16V19.648C0.592 20.048 0.736 20.384 1.024 20.656C1.312 20.944 1.656 21.088 2.056 21.088Z" fill="white"/>
</svg>
