<svg width="32" height="32" viewBox="0 0 32 32" fill="none" xmlns="http://www.w3.org/2000/svg">
<g clip-path="url(#clip0_392_302)">
<path fill-rule="evenodd" clip-rule="evenodd" d="M8.41204 28.0536L8.84348 28.816C8.84373 28.8164 8.84398 28.8168 8.84417 28.8172C9.18908 29.4306 8.97041 30.2134 8.36046 30.5578L6.88175 31.3959C6.88125 31.3962 6.88075 31.3966 6.88024 31.3968C6.26679 31.7417 5.48404 31.5231 5.13944 30.9128L0.790958 23.2292C0.442973 22.6153 0.661703 21.8318 1.27234 21.4869L2.75281 20.6488L2.75325 20.6485C3.36363 20.3038 4.14663 20.5205 4.49424 21.1309L4.49486 21.132L4.84755 21.7553L8.73926 19.5021C9.89784 18.8321 11.0813 18.3934 12.3538 18.8066C13.5994 19.2105 15.633 20.0809 17.7084 20.456C17.7305 20.46 17.7523 20.4654 17.7737 20.4724C18.8093 20.8077 19.4394 21.8544 19.1566 22.9059C19.1081 23.0866 19.042 23.2531 18.9594 23.4037C19.2048 23.3391 19.4444 23.2398 19.6797 23.1027L24.9524 20.0319C26.846 18.9287 28.1078 19.044 28.8224 19.5234C29.4342 19.9339 29.7173 20.635 29.6989 21.323C29.6805 22.0178 29.3502 22.682 28.8053 23.0175L19.2378 28.9082C18.2367 29.526 17.1401 29.6709 16.0041 29.3679L16.0036 29.3677L9.26418 27.5615L8.41204 28.0536ZM5.34205 22.629L7.91755 27.1798L8.94224 26.5882C9.0575 26.5216 9.19454 26.5035 9.32316 26.538L16.263 28.3979C17.1226 28.6272 17.953 28.5214 18.7105 28.0538L18.711 28.0536L28.2789 22.1627C28.5322 22.0067 28.6648 21.6935 28.6913 21.3725C28.732 20.878 28.4994 20.3324 27.8879 20.2043C27.3259 20.0866 26.5346 20.2721 25.4578 20.8994L20.1852 23.9701C19.3443 24.4602 18.4629 24.5955 17.5024 24.4426C17.5018 24.4425 17.5012 24.4424 17.5007 24.4423L16.8469 24.336C16.8467 24.3359 16.8466 24.3359 16.8463 24.3359C16.8395 24.3347 16.8327 24.3335 16.826 24.3321C16.8258 24.3321 16.8256 24.332 16.8253 24.332C15.6358 24.0878 14.5326 23.7284 13.3085 23.3995C13.041 23.3275 12.8821 23.052 12.954 22.7844C13.0259 22.5169 13.3015 22.358 13.5691 22.4299C14.766 22.7516 15.8448 23.1043 17.0069 23.3444C17.6088 23.4114 18.0487 23.1609 18.1871 22.6454L18.1872 22.6452C18.3276 22.1231 18.0009 21.6163 17.4934 21.4373C15.3806 21.0497 13.3123 20.1727 12.044 19.7615L12.0437 19.7614C11.0525 19.4395 10.1444 19.8491 9.24191 20.3711L5.34205 22.629ZM3.6217 21.6274L3.62133 21.6268C3.54616 21.496 3.37819 21.4486 3.24699 21.5226L1.76696 22.3605L1.76652 22.3608C1.63563 22.4347 1.58983 22.6027 1.66437 22.7342L1.66449 22.7345L6.01311 30.4184L6.01336 30.4187C6.08746 30.5499 6.25593 30.5958 6.38782 30.522L7.86547 29.6844L7.8661 29.6841C7.99736 29.61 8.04322 29.4414 7.96925 29.3095L3.6217 21.6274ZM3.04771 22.4465C3.38333 22.3966 3.69499 22.6283 3.74493 22.9639C3.79287 23.2996 3.56115 23.6132 3.22553 23.6611C2.88991 23.711 2.57825 23.4773 2.52831 23.1417C2.48037 22.8061 2.71209 22.4945 3.04771 22.4465ZM11.577 5.90901C11.577 5.72969 11.6726 5.56398 11.8279 5.47431L14.4622 3.95337L16.614 2.71115L19.2483 1.1902C19.4036 1.10054 19.5949 1.10054 19.7503 1.1902L27.1706 5.47431C27.3259 5.56398 27.4216 5.72969 27.4216 5.90901V14.4772C27.4216 14.6566 27.3259 14.8223 27.1706 14.9119L19.7503 19.196C19.5949 19.2857 19.4036 19.2857 19.2483 19.196L11.8279 14.9119C11.6726 14.8223 11.577 14.6566 11.577 14.4772V5.90901ZM14.7132 4.96771L13.0828 5.90901L19.4993 9.61348L21.1297 8.67218L14.7132 4.96771ZM16.8649 3.72542L15.7171 4.38807L22.1336 8.0926L23.2814 7.42995L16.8649 3.72542ZM25.9157 5.90901L19.4993 2.20454L17.8689 3.14584L24.2853 6.85031L25.9157 5.90901ZM20.0012 17.8919L26.4177 14.1874V6.77841L24.7873 7.71971V10.8045C24.7873 10.9838 24.6916 11.1495 24.5363 11.2392L22.3845 12.4814C22.2292 12.5711 22.0379 12.5711 21.8826 12.4814C21.7272 12.3917 21.6316 12.2261 21.6316 12.0467V9.54164L20.0012 10.4829V17.8919ZM12.5809 6.77841V14.1874L18.9973 17.8919V10.4829L12.5809 6.77841ZM23.7834 8.29935L22.6355 8.962V11.1773L23.7834 10.5147V8.29935ZM26.3645 2.883C26.2928 3.15061 26.0174 3.30961 25.7498 3.23795C25.4822 3.16624 25.3231 2.89078 25.3948 2.62318L25.8803 0.811224C25.952 0.543679 26.2274 0.38462 26.4951 0.456338C26.7627 0.527993 26.9217 0.803506 26.85 1.07111L26.3645 2.883ZM28.9294 8.77201C28.6619 8.70004 28.5031 8.4244 28.5751 8.15685C28.6471 7.88937 28.9227 7.73056 29.1902 7.80253L31.0034 8.29025C31.271 8.36222 31.4298 8.63786 31.3578 8.9054C31.2858 9.17295 31.0102 9.33169 30.7426 9.25972L28.9294 8.77201ZM28.8658 5.29831C28.6258 5.43679 28.3186 5.35447 28.1801 5.11453C28.0415 4.87466 28.1239 4.5674 28.3638 4.42885L29.9913 3.48925C30.2312 3.35071 30.5385 3.43303 30.677 3.67296C30.8155 3.9129 30.7332 4.2201 30.4933 4.35864L28.8658 5.29831ZM13.6038 2.62318C13.6754 2.89078 13.5164 3.16624 13.2488 3.23795C12.9812 3.30961 12.7058 3.15061 12.634 2.883L12.1485 1.07111C12.0768 0.803506 12.2359 0.527993 12.5035 0.456338C12.7711 0.38462 13.0465 0.543679 13.1182 0.811224L13.6038 2.62318ZM9.80831 7.80253C10.0759 7.73056 10.3514 7.88937 10.4234 8.15685C10.4954 8.4244 10.3366 8.70004 10.0691 8.77201L8.25587 9.25972C7.98839 9.33169 7.71275 9.17295 7.64078 8.9054C7.56881 8.63786 7.72755 8.36222 7.9951 8.29025L9.80831 7.80253ZM10.6347 4.42885C10.8747 4.5674 10.957 4.87466 10.8184 5.11453C10.68 5.35447 10.3727 5.43679 10.1328 5.29831L8.50528 4.35864C8.26534 4.2201 8.18302 3.9129 8.32156 3.67296C8.46004 3.43303 8.7673 3.35071 9.00724 3.48925L10.6347 4.42885Z" fill="white"/>
</g>
<defs>
<clipPath id="clip0_392_302">
<rect width="32" height="32" fill="white"/>
</clipPath>
</defs>
</svg>
