<svg width="32" height="32" viewBox="0 0 32 32" fill="none" xmlns="http://www.w3.org/2000/svg">
<path d="M31.8067 18.86C27.4333 14.4933 27.7667 14.7933 27.5867 14.72C27.4067 14.6467 28 14.6667 20 14.6667C20 11.9 20.0333 11.28 19.9467 11.0733C19.7267 10.4067 20.92 13.4 16.6133 3.07333C16.5621 2.95307 16.4767 2.85052 16.3676 2.77844C16.2586 2.70637 16.1307 2.66794 16 2.66794C15.8693 2.66794 15.7415 2.70637 15.6324 2.77844C15.5234 2.85052 15.4379 2.95307 15.3867 3.07333C11.8333 11.5867 12.0533 10.9867 12.0133 11.2467C11.9733 11.5067 12 10.6667 12 14.6667C4.04 14.6667 4.46 14.5933 4.19333 14.86C-0.113339 19.1733 -0.180006 19.0267 0.0533276 19.5867C0.286661 20.1467 0.553328 20 4 20V31.3333C4 31.5101 4.07023 31.6797 4.19526 31.8047C4.32028 31.9298 4.48985 32 4.66666 32H27.3333C27.5102 32 27.6797 31.9298 27.8047 31.8047C27.9298 31.6797 28 31.5101 28 31.3333V20C31.5133 20 31.72 20.1333 31.9467 19.5867C31.9977 19.4653 32.0117 19.3314 31.9868 19.2021C31.9618 19.0728 31.8992 18.9537 31.8067 18.86ZM16.6267 6.57999C16.2116 6.60735 15.7951 6.60735 15.38 6.57999L16 5.06666L16.6267 6.57999ZM14.84 7.84666C15.613 7.93623 16.3937 7.93623 17.1667 7.84666L18.4467 10.9133C16.8464 11.3451 15.1603 11.3451 13.56 10.9133L14.84 7.84666ZM13.3333 12.2333C15.0809 12.6966 16.9191 12.6966 18.6667 12.2333V14.6667H13.3333V12.2333ZM4.94 16H9.72667L7.06 18.6667H2.27333L4.94 16ZM5.33333 20C7.50666 20 7.54666 20.06 7.80666 19.8067L10.6667 16.94V30.6667H5.33333V20ZM26.6667 30.6667H12V16.94C15.0733 20 14.9533 20 15.3333 20H26.6667V30.6667ZM15.6067 18.6667L12.94 16H27.06L29.7267 18.6667H15.6067Z" fill="white"/>
<path d="M8.48001 2H11.4C10.3261 2.66846 9.41147 3.56391 8.72045 4.62348C8.02943 5.68304 7.57873 6.88104 7.40001 8.13333C7.13535 8.25975 6.91976 8.46991 6.78663 8.73125C6.65349 8.9926 6.61025 9.29055 6.6636 9.57896C6.71694 9.86737 6.86389 10.1301 7.0817 10.3266C7.2995 10.523 7.576 10.6422 7.86836 10.6655C8.16073 10.6889 8.45265 10.6153 8.69892 10.456C8.94518 10.2966 9.13204 10.0606 9.23056 9.78432C9.32908 9.50806 9.33375 9.20702 9.24386 8.92783C9.15398 8.64864 8.97454 8.40689 8.73334 8.24C9.0105 6.51941 9.89137 4.95378 11.2181 3.82369C12.5448 2.6936 14.2306 2.07293 15.9733 2.07293C17.7161 2.07293 19.4019 2.6936 20.7286 3.82369C22.0553 4.95378 22.9362 6.51941 23.2133 8.24C22.9721 8.40689 22.7927 8.64864 22.7028 8.92783C22.6129 9.20702 22.6176 9.50806 22.7161 9.78432C22.8146 10.0606 23.0015 10.2966 23.2478 10.456C23.494 10.6153 23.786 10.6889 24.0783 10.6655C24.3707 10.6422 24.6472 10.523 24.865 10.3266C25.0828 10.1301 25.2297 9.86737 25.2831 9.57896C25.3364 9.29055 25.2932 8.9926 25.1601 8.73125C25.0269 8.46991 24.8113 8.25975 24.5467 8.13333C24.368 6.88104 23.9173 5.68304 23.2262 4.62348C22.5352 3.56391 21.6206 2.66846 20.5467 2H23.4667C23.6134 2.25419 23.84 2.45285 24.1111 2.56517C24.3823 2.6775 24.683 2.6972 24.9665 2.62123C25.25 2.54527 25.5005 2.37787 25.6792 2.14502C25.8579 1.91216 25.9547 1.62685 25.9547 1.33333C25.9547 1.03982 25.8579 0.754511 25.6792 0.521652C25.5005 0.288793 25.25 0.121399 24.9665 0.0454327C24.683 -0.0305339 24.3823 -0.0108279 24.1111 0.101494C23.84 0.213817 23.6134 0.412478 23.4667 0.666667H8.48001C8.33325 0.412478 8.10672 0.213817 7.83555 0.101494C7.56438 -0.0108279 7.26373 -0.0305339 6.98022 0.0454327C6.6967 0.121399 6.44618 0.288793 6.2675 0.521652C6.08882 0.754511 5.99197 1.03982 5.99197 1.33333C5.99197 1.62685 6.08882 1.91216 6.2675 2.14502C6.44618 2.37787 6.6967 2.54527 6.98022 2.62123C7.26373 2.6972 7.56438 2.6775 7.83555 2.56517C8.10672 2.45285 8.33325 2.25419 8.48001 2Z" fill="white"/>
</svg>
