<svg width="29" height="29" viewBox="0 0 29 29" fill="none" xmlns="http://www.w3.org/2000/svg">
<g clip-path="url(#clip0_392_270)">
<path d="M24.7705 29H9.06229C8.06112 29 7.24979 28.1884 7.24979 27.1875V26.5833H8.45805V27.1875C8.45805 27.5211 8.72864 27.7917 9.06229 27.7917H24.5205L27.7913 24.5207V1.8125C27.7913 1.47885 27.5209 1.20826 27.1873 1.20826H9.06229C8.72864 1.20826 8.45805 1.47885 8.45805 1.8125V10.875H7.24979V1.8125C7.24979 0.811554 8.06112 0 9.06229 0H27.1873C28.1882 0 28.9998 0.811554 28.9998 1.8125V24.7708C28.9998 24.9309 28.9361 25.0847 28.8228 25.198L25.1978 28.823C25.0845 28.9363 24.9307 29 24.7705 29Z" fill="white"/>
<path d="M25.3748 28.3958H24.1663V24.7708C24.1663 24.4371 24.4369 24.1667 24.7705 24.1667H28.3955V25.375H25.3748V28.3958Z" fill="white"/>
<path d="M3.92679 26.5833C3.76262 26.5833 3.60553 26.5162 3.49181 26.3978L0.168821 22.9481C-0.0561924 22.7142 -0.0561924 22.3441 0.168821 22.11L1.88286 20.3309C1.11113 19.1209 1.2607 17.5413 2.2455 16.4975L5.93687 12.661C6.54642 11.9999 7.55201 11.8941 8.2859 12.4138C8.71027 12.7329 8.97732 13.2185 9.01935 13.7477C9.01935 13.7659 9.01935 13.7834 9.02289 13.8015C9.45965 13.8314 9.86941 14.0239 10.171 14.3411C10.4783 14.6626 10.6586 15.0846 10.679 15.5288C11.1177 15.5574 11.5297 15.7503 11.8324 16.0691C11.9675 16.2096 12.0791 16.3714 12.1629 16.5475L13.825 14.8184C14.4356 14.154 15.4467 14.0517 16.1782 14.5803C16.6003 14.8989 16.8661 15.383 16.9077 15.9103C16.9495 16.4375 16.7636 16.9572 16.3968 17.3384L12.2492 21.6491L9.75391 24.2411C8.78394 25.2661 7.21438 25.4378 6.04572 24.6471L4.3589 26.3989C4.24562 26.5162 4.08985 26.5826 3.92679 26.5833ZM1.44301 22.5295L3.92679 25.1086L5.57003 23.4036C5.68398 23.2853 5.84107 23.2182 6.00524 23.2182C6.16985 23.2196 6.32716 23.2868 6.44199 23.4047C6.76391 23.7326 7.2042 23.9174 7.66396 23.9174C8.1235 23.9174 8.5638 23.7326 8.88572 23.4047L15.5317 16.4979C15.6596 16.3665 15.724 16.1859 15.708 16.0032C15.6954 15.8222 15.6045 15.6558 15.4591 15.5476C15.2153 15.3901 14.8927 15.4357 14.7022 15.6545L11.8377 18.635C11.6065 18.8753 11.2239 18.8826 10.9834 18.6511C10.7431 18.4199 10.7358 18.0374 10.9673 17.7969C11.1994 17.5455 11.1994 17.1579 10.9673 16.9063C10.8635 16.7995 10.7208 16.7391 10.5717 16.7391C10.4228 16.7391 10.2801 16.7995 10.1763 16.9063C9.94375 17.138 9.56895 17.1418 9.33198 16.9147C9.09502 16.6877 9.08241 16.3132 9.30389 16.0709C9.5362 15.8196 9.5362 15.4321 9.30389 15.1808C9.20012 15.0746 9.05763 15.0144 8.90917 15.0144C8.76049 15.0144 8.618 15.0746 8.51424 15.1808C8.28259 15.4211 7.90026 15.4282 7.65998 15.1965C7.4197 14.9651 7.41262 14.5825 7.64427 14.3422C7.76972 14.2088 7.83278 14.0283 7.81796 13.8458C7.80291 13.6632 7.71131 13.4953 7.56573 13.384C7.31992 13.2329 7.00065 13.282 6.8117 13.5002L3.11789 17.3353C2.42316 18.0697 2.42316 19.2189 3.11789 19.9532C3.34313 20.1871 3.34313 20.5572 3.11789 20.7911L1.44301 22.5295Z" fill="white"/>
<path d="M10.5726 24.961C9.93712 24.9617 9.32912 24.7017 8.89059 24.2415L9.76012 23.4023C9.97141 23.6256 10.2652 23.7521 10.5726 23.7528C10.8803 23.7521 11.1741 23.6256 11.3859 23.4023L11.795 22.9753C12.0315 22.7253 12.0315 22.3341 11.795 22.0841L11.3799 21.6442L12.2583 20.8148L12.6691 21.2504C13.3462 21.9704 13.3446 23.0934 12.6654 23.8114L12.2552 24.2391C11.8169 24.7002 11.2087 24.961 10.5726 24.961Z" fill="white"/>
<path d="M13.8955 12.0833H10.2705C9.93688 12.0833 9.66629 11.8129 9.66629 11.4792V7.24999C9.66629 5.9154 10.7484 4.83325 12.083 4.83325C13.4178 4.83325 14.4998 5.9154 14.4998 7.24999V11.4792C14.4998 11.8129 14.2292 12.0833 13.8955 12.0833ZM10.8748 10.875H13.2913V7.24999C13.2913 6.5827 12.7503 6.04173 12.083 6.04173C11.4157 6.04173 10.8748 6.5827 10.8748 7.24999V10.875Z" fill="white"/>
<path d="M11.4788 2.41675H12.6873V5.43751H11.4788V2.41675Z" fill="white"/>
<path d="M10.2705 7.25H13.8955V8.45826H10.2705V7.25Z" fill="white"/>
<path d="M25.9788 22.9583H22.3538C22.0202 22.9583 21.7498 22.6879 21.7498 22.3542V18.125C21.7498 16.7904 22.8317 15.7083 24.1663 15.7083C25.5011 15.7083 26.583 16.7904 26.583 18.125V22.3542C26.583 22.6879 26.3127 22.9583 25.9788 22.9583ZM22.958 21.75H25.3748V18.125C25.3748 17.4577 24.8338 16.9167 24.1663 16.9167C23.499 16.9167 22.958 17.4577 22.958 18.125V21.75Z" fill="white"/>
<path d="M23.5623 13.2917H24.7705V16.3125H23.5623V13.2917Z" fill="white"/>
<path d="M22.3538 18.125H25.9788V19.3333H22.3538V18.125Z" fill="white"/>
<path d="M18.7288 3.625H25.9788V4.83326H18.7288V3.625Z" fill="white"/>
<path d="M16.3123 6.04175H25.9788V7.25001H16.3123V6.04175Z" fill="white"/>
<path d="M16.3123 8.45825H25.9788V9.66673H16.3123V8.45825Z" fill="white"/>
<path d="M17.5205 16.9167H19.9373V18.125H17.5205V16.9167Z" fill="white"/>
<path d="M15.708 19.3333H19.9373V20.5417H15.708V19.3333Z" fill="white"/>
<path d="M14.4998 21.75H19.9373V22.9583H14.4998V21.75Z" fill="white"/>
<path d="M16.3123 10.875H23.5623V12.0833H16.3123V10.875Z" fill="white"/>
<path d="M16.3123 3.625H17.5205V4.83326H16.3123V3.625Z" fill="white"/>
<path d="M24.7705 10.875H25.9788V12.0833H24.7705V10.875Z" fill="white"/>
</g>
<defs>
<clipPath id="clip0_392_270">
<rect width="29" height="29" fill="white"/>
</clipPath>
</defs>
</svg>
