<svg width="33" height="25" viewBox="0 0 33 25" fill="none" xmlns="http://www.w3.org/2000/svg">
<path d="M29.1965 1.98168C30.9987 3.96415 32.0801 6.12685 32.0801 9.73134C32.0801 16.0392 27.5745 21.6262 21.2666 24.5098L19.6446 22.1668C25.592 18.9228 26.8536 14.7776 27.214 12.0743C26.3129 12.6149 25.0513 12.7952 23.7897 12.6149C20.5457 12.2545 18.0225 9.73134 18.0225 6.30707C18.0225 4.68505 18.7434 3.06303 19.8248 1.80146C21.0864 0.539885 22.5282 -0.000789642 24.3304 -0.000789642C26.3129 -0.000789642 28.1151 0.900331 29.1965 1.98168ZM11.174 1.98168C12.9763 3.96415 14.0576 6.12685 14.0576 9.73134C14.0576 16.0392 9.55198 21.6262 3.24412 24.5098L1.6221 22.1668C7.56951 18.9228 8.83109 14.7776 9.19153 12.0743C8.29041 12.6149 7.02884 12.7952 5.76727 12.6149C2.52322 12.2545 7.62939e-05 9.73134 7.62939e-05 6.30707C7.62939e-05 4.68505 0.720974 3.06303 1.80232 1.80146C2.88367 0.539885 4.50569 -0.000789642 6.30794 -0.000789642C8.29041 -0.000789642 10.0927 0.900331 11.174 1.98168Z" fill="white"/>
</svg>
