<svg width="43" height="35" viewBox="0 0 43 35" fill="none" xmlns="http://www.w3.org/2000/svg">
<path d="M28.4434 33.7359L26.8339 31.2597C34.4495 26.6509 36.1164 20.8279 36.5956 17.0001L36.7279 15.943L35.8302 16.5167C34.7718 17.1931 33.2413 17.442 31.665 17.2021L31.6568 17.2009L31.6486 17.1999C27.6315 16.7245 24.4946 13.4017 24.4946 8.84813C24.4946 6.71349 25.3859 4.55214 26.7457 2.85628C28.3039 1.20306 30.0645 0.499817 32.3019 0.499817C34.7534 0.499817 36.9955 1.68942 38.3378 3.11443C40.6322 5.80555 42.0079 8.7241 42.0079 13.6515C42.0079 22.1269 36.4105 29.7018 28.4434 33.7359ZM4.70842 33.7359L3.0989 31.2597C10.7145 26.6509 12.3814 20.8279 12.8606 17.0001L12.9929 15.943L12.0952 16.5167C11.0367 17.1931 9.50627 17.442 7.93002 17.2021L7.92181 17.2009L7.91357 17.1999C3.89651 16.7245 0.759598 13.4017 0.759598 8.84813C0.759598 6.70723 1.65612 4.53947 3.02263 2.84138C4.32584 1.22194 6.29777 0.499817 8.56685 0.499817C11.0184 0.499817 13.2604 1.68942 14.6028 3.11443C16.8971 5.80555 18.2729 8.7241 18.2729 13.6515C18.2729 22.1269 12.6755 29.7018 4.70842 33.7359Z" stroke="#DF1119"/>
</svg>
