<svg width="37" height="28" viewBox="0 0 37 28" fill="none" xmlns="http://www.w3.org/2000/svg">
<path d="M36.216 13.4988L36.0338 1.03121e-05L21.0196 0.202247L21.2018 13.701L31.2119 13.5662C31.2412 15.9522 30.2167 18.2538 28.3631 19.9662C26.5096 21.6786 23.9785 22.6618 21.325 22.7002L21.3858 27.1998C25.3659 27.1422 29.1627 25.6674 31.9429 23.0988C34.7232 20.5303 36.2599 17.0777 36.216 13.4988V13.4988Z" fill="#DF1119"/>
<path d="M0.303692 22.9854L0.364426 27.485C4.3449 27.4279 8.14211 25.9532 10.9228 23.3846C13.7034 20.816 15.2404 17.3632 15.1965 13.7839L15.0143 0.285167L2.12252e-05 0.487403L0.182224 13.9862L10.1905 13.8514C10.2198 16.2373 9.1953 18.539 7.34179 20.2514C5.48827 21.9638 2.95713 22.947 0.303692 22.9854Z" fill="#DF1119"/>
</svg>
