<svg width="25" height="26" viewBox="0 0 25 26" fill="none" xmlns="http://www.w3.org/2000/svg">
<path d="M7.31729 25.3913C8.31438 25.3898 9.23089 24.85 9.72813 23.9917L14.8 15.2096C15.158 14.5909 15.7956 14.2309 16.4935 14.2099L20.3622 14.1642C21.3194 14.1627 22.2762 13.922 23.1331 13.5019L23.691 13.2218C24.1294 13.0018 24.1284 12.3637 23.6894 12.145L23.1306 11.8667C22.2724 11.4492 21.3149 11.2113 20.3577 11.2128L16.4889 11.1788C15.7909 11.1798 15.1323 10.8019 14.7923 10.1843L9.69384 1.41758C9.19399 0.560843 8.27585 0.0238073 7.27876 0.0253218C9.35853 3.851 10.5424 8.63525 10.9841 10.6088C11.0443 10.8879 10.8253 11.1276 10.5661 11.1279L10.3455 10.3107C10.2452 9.91198 9.84597 9.67328 9.44723 9.73371L8.37067 9.93477C8.23111 9.95492 8.09164 10.0349 7.99211 10.1547C7.89258 10.2745 7.75311 10.3545 7.59361 10.3747L7.19486 10.4351L7.6337 10.5142C7.77333 10.5339 7.89307 10.5936 7.99293 10.6931L8.15271 10.8524L8.41234 11.1113L7.59473 11.1125C7.07624 11.1133 6.5379 11.1739 6.03954 11.2944L3.46802 11.9364L2.42683 9.16606C2.20656 8.56814 1.60776 8.2101 0.969746 8.29083L0.0127211 8.41194L1.53442 12.4379L0.816784 12.6184C0.697164 12.6386 0.697436 12.818 0.817118 12.8378L1.5353 13.0162L0.0457474 17.0268L1.00314 17.145C1.62145 17.2238 2.21916 16.8639 2.45756 16.2653L3.51026 13.4918L6.06378 14.1261C6.58245 14.2449 7.10103 14.304 7.61952 14.3032L8.43713 14.3019L8.17828 14.5616L8.01899 14.7213C7.91943 14.8212 7.79987 14.8812 7.66031 14.9014L7.22171 14.9818L7.62064 15.041C7.7802 15.0607 7.91992 15.1403 8.01981 15.2598C8.1197 15.3793 8.25938 15.4389 8.39903 15.4786L9.4762 15.6763C9.87515 15.7555 10.2736 15.4957 10.3727 15.0967L10.5908 14.2787C10.87 14.2783 11.0698 14.5372 11.0104 14.7966C10.5547 16.7914 9.38542 21.5593 7.31729 25.3913Z" fill="#DF1119"/>
</svg>
