<svg width="75" height="44" viewBox="0 0 75 44" fill="none" xmlns="http://www.w3.org/2000/svg">
<path d="M50.1822 22.6926C50.1208 22.5139 50.0568 22.3379 49.9902 22.1592C54.2572 21.5352 55.428 20.7431 56.0707 19.447C56.3605 18.8753 56.4983 18.2386 56.4707 17.5982C56.4431 16.9578 56.2512 16.3354 55.9133 15.7907C54.6652 13.7772 52.0837 13.0998 44.2724 12.8918C44.011 10.5052 43.558 8.14363 42.9176 5.82983C42.4882 4.38971 41.1788 0 37.4958 0C33.8128 0 32.506 4.38971 32.0766 5.83249C31.4365 8.14649 30.9826 10.508 30.7192 12.8944C22.9105 13.1024 20.3183 13.7798 19.0782 15.796C18.7412 16.3406 18.55 16.9627 18.5229 17.6026C18.4958 18.2424 18.6338 18.8785 18.9235 19.4496C19.5663 20.7458 20.729 21.5378 25.0041 22.1619C24.9374 22.3379 24.8734 22.5139 24.812 22.6953C6.57583 23.0953 2.30613 24.5621 0.647323 27.229C0.254771 27.8578 0.0328331 28.5781 0.00337158 29.3189C-0.0260899 30.0596 0.13794 30.7953 0.479307 31.4533C1.18603 32.8694 2.38347 33.7682 6.7065 34.6029C7.03038 36.0314 7.82976 37.3075 8.9737 38.2223C10.1176 39.137 11.5383 39.6362 13.003 39.638C14.3664 39.6408 15.695 39.2082 16.7954 38.4033C17.4005 39.1023 18.1489 39.6631 18.9898 40.0474C19.8307 40.4317 20.7445 40.6306 21.6691 40.6306C22.5937 40.6306 23.5075 40.4317 24.3484 40.0474C25.1893 39.6631 25.9377 39.1023 26.5428 38.4033C27.853 40.0523 29.5185 41.3843 31.4153 42.2999C33.312 43.2154 35.391 43.691 37.4971 43.691C39.6033 43.691 41.6822 43.2154 43.579 42.2999C45.4757 41.3843 47.1412 40.0523 48.4514 38.4033C49.0565 39.1023 49.8049 39.6631 50.6458 40.0474C51.4867 40.4317 52.4005 40.6306 53.3251 40.6306C54.2497 40.6306 55.1635 40.4317 56.0044 40.0474C56.8453 39.6631 57.5938 39.1023 58.1989 38.4033C59.3 39.2112 60.6307 39.6458 61.9965 39.6434C63.4617 39.6421 64.883 39.1433 66.0275 38.2284C67.172 37.3136 67.9717 36.0372 68.2957 34.6083C72.6187 33.7735 73.8162 32.8748 74.5202 31.456C74.8615 30.7985 75.0257 30.0635 74.9967 29.3232C74.9677 28.583 74.7465 27.8631 74.3549 27.2343C72.6881 24.5567 68.4184 23.0926 50.1822 22.6926Z" fill="white"/>
<path d="M34.5068 13.9984C35.424 13.497 36.4525 13.2343 37.4978 13.2343C38.543 13.2343 39.5715 13.497 40.4887 13.9984C39.8219 8.3393 38.7365 3.86426 37.4964 3.86426C36.2563 3.86426 35.1736 8.33664 34.5068 13.9984Z" fill="#DF1119"/>
<path d="M10.42 33.1893C10.4089 33.5359 10.4675 33.8811 10.5925 34.2045C10.7174 34.5279 10.9061 34.8229 11.1473 35.072C11.3884 35.3211 11.6772 35.5191 11.9965 35.6543C12.3157 35.7896 12.6589 35.8593 13.0056 35.8593C13.3523 35.8593 13.6955 35.7896 14.0147 35.6543C14.3339 35.5191 14.6227 35.3211 14.8639 35.072C15.1051 34.8229 15.2938 34.5279 15.4187 34.2045C15.5436 33.8811 15.6023 33.5359 15.5911 33.1893C15.5911 33.1733 15.5911 33.1573 15.5911 33.1387C13.6016 32.9307 11.9295 32.7253 10.524 32.528C10.4609 32.743 10.4259 32.9653 10.42 33.1893Z" fill="#DF1119"/>
<path d="M19.1767 33.4935C19.1139 33.7121 19.0807 33.9382 19.078 34.1656C19.0669 34.5121 19.1255 34.8573 19.2504 35.1808C19.3754 35.5042 19.564 35.7992 19.8052 36.0482C20.0464 36.2973 20.3352 36.4953 20.6544 36.6306C20.9737 36.7658 21.3168 36.8355 21.6635 36.8355C22.0103 36.8355 22.3534 36.7658 22.6727 36.6306C22.9919 36.4953 23.2807 36.2973 23.5219 36.0482C23.7631 35.7992 23.9517 35.5042 24.0767 35.1808C24.2016 34.8573 24.2602 34.5121 24.2491 34.1656C24.2491 34.0802 24.2331 34.0002 24.2251 33.9149C23.1237 33.8322 22.0009 33.7389 20.8781 33.6482L19.1767 33.4935Z" fill="#DF1119"/>
<path d="M26.6439 32.9042C26.3306 31.8589 26.1707 30.7738 26.1692 29.6826C26.1833 28.6181 26.303 27.5578 26.5265 26.517C16.5657 26.6903 5.19141 27.2824 3.94864 29.2719C3.90255 29.3405 3.87793 29.4212 3.87793 29.5039C3.87793 29.5865 3.90255 29.6673 3.94864 29.7359C4.76737 30.824 14.8936 32.0481 26.6439 32.9042Z" fill="white"/>
<path d="M59.4045 33.1893C59.3943 33.5631 59.4653 33.9347 59.6125 34.2784C59.7598 34.6222 59.9798 34.9299 60.2574 35.1804C60.535 35.431 60.8636 35.6183 61.2206 35.7296C61.5776 35.8409 61.9545 35.8734 62.3253 35.825C62.6961 35.7766 63.0519 35.6484 63.3684 35.4492C63.6849 35.2501 63.9544 34.9846 64.1584 34.6712C64.3624 34.3579 64.4961 34.004 64.5501 33.634C64.6042 33.2639 64.5774 32.8866 64.4716 32.528C63.0635 32.7253 61.3914 32.9307 59.4045 33.1387C59.4099 33.1573 59.4045 33.1733 59.4045 33.1893Z" fill="#DF1119"/>
<path d="M50.7678 33.9149C50.7678 34.0002 50.7438 34.0802 50.7438 34.1656C50.7326 34.5121 50.7913 34.8573 50.9162 35.1808C51.0411 35.5042 51.2298 35.7992 51.471 36.0482C51.7122 36.2973 52.001 36.4953 52.3202 36.6306C52.6394 36.7658 52.9826 36.8355 53.3293 36.8355C53.676 36.8355 54.0192 36.7658 54.3384 36.6306C54.6577 36.4953 54.9465 36.2973 55.1877 36.0482C55.4288 35.7992 55.6175 35.5042 55.7424 35.1808C55.8674 34.8573 55.926 34.5121 55.9149 34.1656C55.9122 33.9382 55.879 33.7121 55.8162 33.4935L54.1147 33.6429C52.992 33.7389 51.8612 33.8322 50.7678 33.9149Z" fill="#DF1119"/>
<path d="M71.065 29.7199C71.1094 29.6536 71.1331 29.5757 71.1331 29.4959C71.1331 29.4161 71.1094 29.3382 71.065 29.2719C69.8303 27.2824 58.448 26.6903 48.4871 26.517C48.7062 27.5582 48.8214 28.6186 48.8312 29.6826C48.8297 30.7738 48.6698 31.8589 48.3564 32.9042C60.1014 32.0481 70.2303 30.8213 71.065 29.7199Z" fill="white"/>
<path d="M31.1348 16.7614C26.0677 16.8974 23.1688 17.2201 22.4807 17.7241C23.2808 18.0788 26.1237 18.4548 29.652 18.7722C30.099 18.0683 30.5945 17.3964 31.1348 16.7614Z" fill="#DF1119"/>
<path d="M43.8608 16.7614C44.4012 17.3964 44.8966 18.0683 45.3436 18.7722C48.8719 18.4548 51.7068 18.0788 52.5149 17.7241C51.8242 17.2201 48.9279 16.8974 43.8608 16.7614Z" fill="#DF1119"/>
<path d="M42.6372 22.9193H32.3563C32.0794 22.9193 31.855 23.1438 31.855 23.4207V24.7381C31.855 25.015 32.0794 25.2395 32.3563 25.2395H42.6372C42.9141 25.2395 43.1386 25.015 43.1386 24.7381V23.4207C43.1386 23.1438 42.9141 22.9193 42.6372 22.9193Z" fill="#DF1119"/>
<path d="M47.6217 29.6824C47.6217 23.9379 42.8906 14.4358 37.4875 14.4358C32.0843 14.4358 27.3533 23.9379 27.3533 29.6824C27.4654 32.2925 28.5811 34.7584 30.4676 36.5656C32.3541 38.3729 34.8657 39.3817 37.4781 39.3817C40.0906 39.3817 42.6021 38.3729 44.4886 36.5656C46.3752 34.7584 47.4909 32.2925 47.603 29.6824H47.6217ZM32.3564 26.4421C31.9046 26.4414 31.4716 26.2617 31.1521 25.9422C30.8327 25.6228 30.6529 25.1897 30.6522 24.738V23.4206C30.6529 22.969 30.8328 22.5363 31.1523 22.2173C31.4718 21.8982 31.9049 21.7191 32.3564 21.7191H42.6372C43.0887 21.7191 43.5218 21.8982 43.8413 22.2173C44.1608 22.5363 44.3407 22.969 44.3414 23.4206V24.738C44.3407 25.1897 44.1609 25.6228 43.8415 25.9422C43.522 26.2617 43.089 26.4414 42.6372 26.4421H32.3564ZM37.4955 36.3683C36.7433 36.3683 36.008 36.1453 35.3826 35.7274C34.7572 35.3095 34.2698 34.7156 33.982 34.0207C33.6941 33.3258 33.6188 32.5611 33.7655 31.8234C33.9123 31.0857 34.2745 30.4081 34.8063 29.8762C35.3382 29.3443 36.0158 28.9822 36.7535 28.8354C37.4912 28.6887 38.2559 28.764 38.9508 29.0518C39.6457 29.3397 40.2397 29.8271 40.6575 30.4525C41.0754 31.0779 41.2985 31.8132 41.2985 32.5653C41.2977 33.5737 40.8968 34.5406 40.1838 35.2537C39.4708 35.9667 38.5039 36.3676 37.4955 36.3683Z" fill="white"/>
<path d="M37.4955 35.1657C38.9315 35.1657 40.0957 34.0015 40.0957 32.5654C40.0957 31.1294 38.9315 29.9652 37.4955 29.9652C36.0594 29.9652 34.8953 31.1294 34.8953 32.5654C34.8953 34.0015 36.0594 35.1657 37.4955 35.1657Z" fill="#DF1119"/>
<path d="M48.4317 31.0239C48.4317 31.0239 67.988 31.0239 71.5456 29.0691C71.5456 29.0691 72.4337 30.2239 71.1003 30.5812C69.7668 30.9386 47.8103 33.6908 47.8103 33.6908L48.4317 31.0239Z" fill="#E6E7E8"/>
<path d="M26.588 31.0239C26.588 31.0239 7.02902 31.0239 3.47406 29.0691C3.47406 29.0691 2.58599 30.2239 3.91943 30.5812C5.25288 30.9386 27.2094 33.6908 27.2094 33.6908L26.588 31.0239Z" fill="#E6E7E8"/>
<path d="M47.6232 29.6825C47.6181 29.0576 47.5691 28.4337 47.4766 27.8157C46.6152 29.1491 44.631 31.6107 41.2894 32.7814C41.2398 33.7455 40.8249 34.6544 40.1291 35.3236C39.4333 35.9927 38.5088 36.3717 37.5435 36.3836C36.5783 36.3955 35.6447 36.0393 34.9326 35.3875C34.2206 34.7358 33.7834 33.8373 33.7101 32.8748C31.116 32.0336 28.9113 30.2871 27.4989 27.9544C27.418 28.5278 27.3761 29.1061 27.3735 29.6852C27.4856 32.2952 28.6014 34.7612 30.4879 36.5684C32.3744 38.3756 34.8859 39.3845 37.4984 39.3845C40.1109 39.3845 42.6224 38.3756 44.5089 36.5684C46.3954 34.7612 47.5111 32.2952 47.6232 29.6852V29.6825Z" fill="#E6E7E8"/>
<path d="M34.9205 31.736C34.9205 31.736 35.6326 33.5148 37.5874 33.6028C39.5422 33.6908 40.521 31.2026 40.521 31.2026C40.521 31.2026 42.1211 35.7364 37.4994 35.7364C32.8777 35.7364 34.3871 32.0907 34.9205 31.736Z" fill="#DF1119"/>
<path d="M22.4802 17.7242C22.4802 17.7242 29.9475 18.1349 31.0143 17.6015C32.0811 17.0681 29.6809 19.823 29.6809 19.823C29.6809 19.823 21.7735 19.447 22.4802 17.7242Z" fill="#DF1119"/>
<path d="M52.6611 17.7242C52.6611 17.7242 45.1938 18.1349 44.1271 17.6015C43.0603 17.0681 45.4605 19.823 45.4605 19.823C45.4605 19.823 53.3652 19.447 52.6611 17.7242Z" fill="#DF1119"/>
<path d="M35.0993 8.62207C35.0993 8.62207 35.0113 12.5344 37.6782 12.5344C40.345 12.5344 40.2544 9.15545 40.2544 9.15545L41.2331 15.2013C41.2331 15.2013 39.633 13.6012 37.4115 13.7798C35.1899 13.9585 33.4111 15.7347 33.4111 15.7347C33.4111 15.7347 33.9445 9.60082 35.0993 8.62207Z" fill="#DF1119"/>
<path d="M11.5407 32.3574C11.5407 32.3574 11.0953 34.4029 12.7835 34.6696C14.4716 34.9363 14.6503 32.6241 14.6503 32.6241L11.5407 32.3574Z" fill="#DF1119"/>
<path d="M19.8994 32.9495C19.8994 32.9495 19.5927 35.4697 21.6808 35.675C23.769 35.8804 23.3583 33.1601 23.3583 33.1601L19.8994 32.9495Z" fill="#DF1119"/>
<path d="M63.3425 32.3574C63.3425 32.3574 63.7879 34.4029 62.097 34.6696C60.4062 34.9363 60.2302 32.6241 60.2302 32.6241L63.3425 32.3574Z" fill="#DF1119"/>
<path d="M54.9855 32.9495C54.9855 32.9495 55.3002 35.467 53.2014 35.675C51.1025 35.883 51.5266 33.1601 51.5266 33.1601L54.9855 32.9495Z" fill="#DF1119"/>
<path d="M31.8603 24.7381L33.3244 22.4019L34.5245 22.8019L32.391 26.0022C32.391 26.0022 31.3269 25.2101 31.8603 24.7381Z" fill="white"/>
<path d="M33.6758 25.9142L35.5853 22.6686L36.6094 22.7139L34.7852 25.7808L33.6758 25.9142Z" fill="white"/>
<path d="M48.203 25.3195C47.7044 23.4427 46.9771 21.6344 46.0375 19.935C50.7819 19.487 53.3528 18.9296 53.6835 18.2655C53.7715 18.1001 53.8144 17.9144 53.8078 17.7271C53.8013 17.5399 53.7455 17.3576 53.6462 17.1988C52.9874 16.132 50.0672 15.6573 42.6586 15.5266C42.387 15.2777 42.1031 15.0427 41.8078 14.8226C41.2104 9.08875 39.9837 2.66687 37.4955 2.66687C35.0073 2.66687 33.7831 9.08875 33.1938 14.8226C32.9057 15.0377 32.6231 15.2724 32.3457 15.5266C24.9371 15.6573 22.0142 16.1373 21.3581 17.1988C21.2587 17.3576 21.203 17.5399 21.1964 17.7271C21.1899 17.9144 21.2328 18.1001 21.3208 18.2655C21.6515 18.9296 24.2223 19.487 28.9667 19.935C28.0244 21.634 27.2944 23.4424 26.7932 25.3195C10.9172 25.5861 4.194 26.5756 2.91656 28.6397C2.76317 28.8827 2.67803 29.1624 2.67005 29.4496C2.66207 29.7368 2.73156 30.0208 2.87122 30.2719C3.08457 30.6986 3.45793 31.4453 9.31442 32.352C9.18851 32.8714 9.17394 33.4115 9.27167 33.9369C9.36941 34.4623 9.57723 34.9611 9.88149 35.4004C10.1857 35.8398 10.5795 36.2097 11.037 36.486C11.4944 36.7623 12.0052 36.9386 12.5357 37.0034C13.0661 37.0682 13.6043 37.02 14.1148 36.8619C14.6253 36.7039 15.0965 36.4396 15.4976 36.0864C15.8987 35.7332 16.2204 35.2991 16.4417 34.8127C16.6631 34.3263 16.7789 33.7985 16.7817 33.2641L17.9498 33.3788C17.8417 33.8967 17.8433 34.4314 17.9545 34.9486C18.0657 35.4658 18.284 35.954 18.5954 36.3817C18.9068 36.8094 19.3043 37.167 19.7623 37.4317C20.2204 37.6964 20.7288 37.8621 21.2549 37.9183C21.7809 37.9744 22.3129 37.9198 22.8165 37.7578C23.3201 37.5958 23.7842 37.3301 24.1788 36.9778C24.5735 36.6255 24.8899 36.1944 25.1078 35.7123C25.3257 35.2303 25.4401 34.7079 25.4438 34.1789C25.4438 34.1255 25.4438 34.0749 25.4438 34.0215L27.0812 34.1415C27.9521 36.1829 29.4035 37.9234 31.2553 39.1466C33.107 40.3699 35.2775 41.0221 37.4968 41.0221C39.7161 41.0221 41.8865 40.3699 43.7383 39.1466C45.5901 37.9234 47.0415 36.1829 47.9123 34.1415L49.5498 34.0215C49.5498 34.0749 49.5498 34.1255 49.5498 34.1789C49.5499 34.7104 49.6617 35.2361 49.8782 35.7216C50.0946 36.2071 50.4108 36.6416 50.8061 36.997C51.2015 37.3523 51.6671 37.6205 52.1729 37.7842C52.6787 37.9478 53.2132 38.0032 53.7418 37.9468C54.2703 37.8903 54.7811 37.7233 55.2409 37.4566C55.7007 37.1899 56.0993 36.8294 56.4107 36.3986C56.7221 35.9678 56.9394 35.4763 57.0485 34.9561C57.1576 34.4358 57.1559 33.8984 57.0438 33.3788L58.2119 33.2641C58.2147 33.7985 58.3305 34.3263 58.5518 34.8127C58.7732 35.2991 59.0949 35.7332 59.496 36.0864C59.897 36.4396 60.3683 36.7039 60.8788 36.8619C61.3893 37.02 61.9275 37.0682 62.4579 37.0034C62.9884 36.9386 63.4991 36.7623 63.9566 36.486C64.414 36.2097 64.8078 35.8398 65.1121 35.4004C65.4164 34.9611 65.6242 34.4623 65.7219 33.9369C65.8196 33.4115 65.8051 32.8714 65.6792 32.352C71.5463 31.4453 71.9117 30.6986 72.125 30.2719C72.2647 30.0208 72.3342 29.7368 72.3262 29.4496C72.3182 29.1624 72.2331 28.8827 72.0797 28.6397C70.7969 26.5756 64.079 25.6021 48.203 25.3195ZM64.5751 33.1895C64.5862 33.536 64.5276 33.8812 64.4026 34.2046C64.2777 34.528 64.089 34.823 63.8479 35.0721C63.6067 35.3212 63.3179 35.5192 62.9986 35.6544C62.6794 35.7897 62.3362 35.8594 61.9895 35.8594C61.6428 35.8594 61.2996 35.7897 60.9804 35.6544C60.6612 35.5192 60.3724 35.3212 60.1312 35.0721C59.89 34.823 59.7013 34.528 59.5764 34.2046C59.4515 33.8812 59.3928 33.536 59.404 33.1895C59.404 33.1735 59.404 33.1574 59.404 33.1388C61.3935 32.9308 63.0656 32.7254 64.4711 32.5281C64.5342 32.7431 64.5692 32.9654 64.5751 33.1895ZM48.3497 32.9041C48.663 31.8589 48.8229 30.7737 48.8244 29.6825C48.8147 28.6185 48.6994 27.5581 48.4804 26.5169C58.4412 26.6902 69.8155 27.2823 71.0583 29.2718C71.1026 29.3381 71.1263 29.416 71.1263 29.4958C71.1263 29.5756 71.1026 29.6535 71.0583 29.7198C70.2289 30.8213 60.1 32.048 48.3497 32.9041ZM55.9157 34.1655C55.9268 34.5121 55.8682 34.8573 55.7432 35.1807C55.6183 35.5041 55.4296 35.7991 55.1885 36.0482C54.9473 36.2972 54.6585 36.4953 54.3392 36.6305C54.02 36.7658 53.6768 36.8355 53.3301 36.8355C52.9834 36.8355 52.6403 36.7658 52.321 36.6305C52.0018 36.4953 51.713 36.2972 51.4718 36.0482C51.2306 35.7991 51.0419 35.5041 50.917 35.1807C50.7921 34.8573 50.7334 34.5121 50.7446 34.1655C50.7446 34.0802 50.7606 34.0002 50.7686 33.9148C51.87 33.8322 52.9928 33.7388 54.1155 33.6482L55.817 33.4988C55.8793 33.7157 55.9125 33.9399 55.9157 34.1655ZM37.4955 39.806C34.8077 39.806 32.23 38.7383 30.3295 36.8378C28.429 34.9372 27.3613 32.3596 27.3613 29.6718C27.3613 23.9273 32.0923 14.4252 37.4955 14.4252C42.8986 14.4252 47.6296 23.9273 47.6296 29.6718C47.6296 32.3596 46.5619 34.9372 44.6614 36.8378C42.7609 38.7383 40.1832 39.806 37.4955 39.806ZM24.249 34.1655C24.2601 34.5121 24.2015 34.8573 24.0766 35.1807C23.9516 35.5041 23.763 35.7991 23.5218 36.0482C23.2806 36.2972 22.9918 36.4953 22.6726 36.6305C22.3533 36.7658 22.0102 36.8355 21.6635 36.8355C21.3168 36.8355 20.9736 36.7658 20.6543 36.6305C20.3351 36.4953 20.0463 36.2972 19.8051 36.0482C19.5639 35.7991 19.3753 35.5041 19.2503 35.1807C19.1254 34.8573 19.0668 34.5121 19.0779 34.1655C19.0806 33.9381 19.1138 33.7121 19.1766 33.4935L20.8781 33.6428C22.0008 33.7388 23.1236 33.8322 24.225 33.9095C24.233 34.0002 24.249 34.0802 24.249 34.1655ZM3.94597 29.7358C3.89988 29.6672 3.87527 29.5865 3.87527 29.5038C3.87527 29.4212 3.89988 29.3404 3.94597 29.2718C5.17808 27.2823 16.563 26.6902 26.5239 26.5169C26.3048 27.5581 26.1896 28.6185 26.1798 29.6825C26.1813 30.7737 26.3412 31.8589 26.6546 32.9041C14.8936 32.048 4.76737 30.8239 3.94597 29.7358ZM15.5923 33.1895C15.6035 33.5635 15.5335 33.9355 15.387 34.2799C15.2406 34.6242 15.0211 34.9327 14.7439 35.184C14.4666 35.4353 14.1381 35.6235 13.781 35.7355C13.424 35.8476 13.0469 35.8808 12.6757 35.833C12.3046 35.7851 11.9483 35.6573 11.6313 35.4583C11.3144 35.2594 11.0443 34.9941 10.8399 34.6806C10.6354 34.3672 10.5014 34.0131 10.4471 33.6429C10.3928 33.2726 10.4194 32.895 10.5252 32.5361C11.9333 32.7334 13.6055 32.9388 15.5923 33.1468C15.5923 33.1574 15.5923 33.1735 15.5923 33.1895ZM40.4904 13.9878C39.5732 13.4864 38.5447 13.2237 37.4995 13.2237C36.4542 13.2237 35.4257 13.4864 34.5085 13.9878C35.1753 8.32601 36.258 3.85364 37.4981 3.85364C38.7382 3.85364 39.821 8.33668 40.4877 13.9958L40.4904 13.9878ZM43.8613 16.7614C48.9284 16.8974 51.8273 17.2201 52.5154 17.7241C51.7153 18.0788 48.8724 18.4549 45.3441 18.7722C44.8971 18.0684 44.4017 17.3965 43.8613 16.7614ZM31.1376 16.7614C30.5973 17.3965 30.1018 18.0684 29.6548 18.7722C26.1265 18.4549 23.2889 18.0788 22.4835 17.7241C23.1689 17.2201 26.0705 16.8974 31.1349 16.7614H31.1376Z" fill="#152532"/>
<path d="M42.6374 26.4422C43.0891 26.4415 43.5221 26.2617 43.8416 25.9423C44.161 25.6228 44.3408 25.1898 44.3415 24.738V23.4206C44.3408 22.9691 44.1609 22.5363 43.8414 22.2173C43.5219 21.8983 43.0889 21.7191 42.6374 21.7191H32.3565C31.905 21.7191 31.4719 21.8983 31.1524 22.2173C30.8329 22.5363 30.6531 22.9691 30.6523 23.4206V24.738C30.653 25.1898 30.8328 25.6228 31.1523 25.9423C31.4717 26.2617 31.9047 26.4415 32.3565 26.4422H42.6374ZM32.3565 25.2394C32.2235 25.2394 32.096 25.1866 32.002 25.0926C31.9079 24.9985 31.8551 24.871 31.8551 24.738V23.4206C31.8551 23.2876 31.9079 23.1601 32.002 23.0661C32.096 22.972 32.2235 22.9192 32.3565 22.9192H42.6374C42.7703 22.9192 42.8979 22.972 42.9919 23.0661C43.0859 23.1601 43.1387 23.2876 43.1387 23.4206V24.738C43.1387 24.871 43.0859 24.9985 42.9919 25.0926C42.8979 25.1866 42.7703 25.2394 42.6374 25.2394H32.3565Z" fill="#152532"/>
<path d="M41.2991 32.5654C41.2991 31.8133 41.076 31.078 40.6582 30.4526C40.2403 29.8272 39.6463 29.3398 38.9514 29.0519C38.2565 28.7641 37.4919 28.6888 36.7542 28.8355C36.0165 28.9823 35.3388 29.3445 34.807 29.8763C34.2751 30.4082 33.9129 31.0858 33.7662 31.8235C33.6195 32.5612 33.6948 33.3259 33.9826 34.0208C34.2704 34.7157 34.7579 35.3096 35.3833 35.7275C36.0087 36.1454 36.7439 36.3684 37.4961 36.3684C38.5045 36.3677 39.4714 35.9668 40.1844 35.2538C40.8975 34.5407 41.2984 33.5738 41.2991 32.5654ZM34.8986 32.5654C34.898 32.0504 35.0503 31.5468 35.3361 31.1184C35.6219 30.6899 36.0284 30.3559 36.5041 30.1585C36.9798 29.9612 37.5034 29.9094 38.0086 30.0098C38.5137 30.1101 38.9778 30.3581 39.342 30.7223C39.7061 31.0864 39.9541 31.5505 40.0544 32.0556C40.1548 32.5608 40.103 33.0844 39.9057 33.5601C39.7083 34.0358 39.3743 34.4423 38.9459 34.7281C38.5174 35.0139 38.0138 35.1662 37.4988 35.1657C36.8091 35.165 36.1479 34.8909 35.66 34.4035C35.1721 33.9161 34.8973 33.2551 34.8959 32.5654H34.8986Z" fill="#152532"/>
</svg>
