<svg width="50" height="50" viewBox="0 0 50 50" fill="none" xmlns="http://www.w3.org/2000/svg">
<path d="M4.70206 27.355V38.3446C4.70669 39.3339 4.94591 40.308 5.40007 41.187C5.85424 42.0659 6.51039 42.8246 7.31467 43.4007V43.5889C7.31551 45.1812 7.9482 46.7081 9.07381 47.8343C10.1994 48.9605 11.726 49.594 13.3182 49.5957H15.5959C17.0164 49.5937 18.3904 49.0891 19.4746 48.1713C20.5587 47.2535 21.2832 45.9817 21.5197 44.581H29.2682C29.5067 45.9799 30.2321 47.2495 31.3161 48.1654C32.4001 49.0813 33.7729 49.5845 35.192 49.5861H37.4697C39.062 49.5844 40.5885 48.9509 41.7141 47.8247C42.8397 46.6985 43.4724 45.1716 43.4733 43.5793V42.7308C44.6383 41.5631 45.2933 39.9813 45.2948 38.3318V27.355C46.6129 27.1181 47.8059 26.426 48.6659 25.3993C49.5258 24.3726 49.998 23.0767 50 21.7374V15.3032C49.998 13.964 49.5258 12.668 48.6659 11.6414C47.8059 10.6147 46.6129 9.92254 45.2948 9.68563V6.73808C45.2931 5.08205 44.6345 3.49434 43.4635 2.32335C42.2925 1.15236 40.7048 0.493754 39.0487 0.492065H10.9481C9.29204 0.493754 7.70433 1.15236 6.53334 2.32335C5.36235 3.49434 4.70375 5.08205 4.70206 6.73808V9.68563C3.38427 9.92262 2.19158 10.6149 1.33218 11.6416C0.472791 12.6683 0.00129274 13.9643 4.62082e-06 15.3032V21.7247C-0.0017003 23.0658 0.468438 24.3648 1.32809 25.3941C2.18774 26.4235 3.38212 27.1177 4.70206 27.355Z" fill="white"/>
<path d="M6.81383 14.225H5.70371C5.10822 14.225 4.62549 14.7077 4.62549 15.3032V21.7247C4.62549 22.3201 5.10822 22.8029 5.70371 22.8029H6.81383C7.40931 22.8029 7.89205 22.3201 7.89205 21.7247V15.3032C7.89205 14.7077 7.40931 14.225 6.81383 14.225Z" fill="#ED5F57"/>
<path d="M44.2931 14.225H43.183C42.5875 14.225 42.1047 14.7077 42.1047 15.3032V21.7247C42.1047 22.3201 42.5875 22.8029 43.183 22.8029H44.2931C44.8886 22.8029 45.3713 22.3201 45.3713 21.7247V15.3032C45.3713 14.7077 44.8886 14.225 44.2931 14.225Z" fill="#ED5F57"/>
<path d="M11.9402 41.391V43.5793C11.9402 43.9448 12.0854 44.2953 12.3438 44.5538C12.6023 44.8122 12.9528 44.9574 13.3183 44.9574H15.5959C15.7769 44.9574 15.9561 44.9218 16.1233 44.8525C16.2905 44.7833 16.4424 44.6817 16.5704 44.5538C16.6983 44.4258 16.7998 44.2739 16.8691 44.1067C16.9384 43.9395 16.974 43.7603 16.974 43.5793V41.391H11.9402Z" fill="#414042"/>
<path d="M33.814 41.391V43.5793C33.814 43.9448 33.9592 44.2953 34.2176 44.5538C34.476 44.8122 34.8266 44.9574 35.192 44.9574H37.4697C37.8352 44.9574 38.1857 44.8122 38.4441 44.5538C38.7026 44.2953 38.8478 43.9448 38.8478 43.5793V41.391H33.814Z" fill="#414042"/>
<path d="M15.1366 32.4335C14.7984 32.4335 14.4678 32.5338 14.1867 32.7216C13.9055 32.9095 13.6863 33.1766 13.5569 33.489C13.4275 33.8014 13.3936 34.1452 13.4596 34.4769C13.5256 34.8086 13.6884 35.1132 13.9276 35.3523C14.1667 35.5915 14.4713 35.7543 14.803 35.8203C15.1347 35.8863 15.4785 35.8524 15.7909 35.723C16.1034 35.5936 16.3704 35.3744 16.5583 35.0932C16.7462 34.8121 16.8464 34.4815 16.8464 34.1433C16.8464 33.6898 16.6663 33.2549 16.3456 32.9343C16.025 32.6136 15.5901 32.4335 15.1366 32.4335Z" fill="white"/>
<path d="M9.32422 38.3317C9.32506 38.7604 9.49573 39.1713 9.79885 39.4744C10.102 39.7775 10.5129 39.9482 10.9415 39.949H39.0422C39.4709 39.9482 39.8818 39.7775 40.1849 39.4744C40.488 39.1713 40.6587 38.7604 40.6595 38.3317V6.75075C40.6587 6.32207 40.488 5.91119 40.1849 5.60806C39.8818 5.30493 39.4709 5.13427 39.0422 5.13342H10.9479C10.5192 5.13427 10.1084 5.30493 9.80523 5.60806C9.50211 5.91119 9.33144 6.32207 9.3306 6.75075V38.3317H9.32422ZM15.13 37.2886C14.507 37.2892 13.8978 37.105 13.3796 36.7593C12.8613 36.4136 12.4573 35.9219 12.2186 35.3464C11.9799 34.771 11.9173 34.1376 12.0386 33.5266C12.16 32.9155 12.46 32.3542 12.9005 31.9137C13.341 31.4732 13.9023 31.1733 14.5134 31.0519C15.1244 30.9305 15.7577 30.9931 16.3332 31.2318C16.9086 31.4705 17.4003 31.8746 17.7461 32.3928C18.0918 32.9111 18.276 33.5203 18.2753 34.1432C18.2737 34.9758 17.9426 35.7739 17.3545 36.3632C16.7664 36.9525 15.969 37.2852 15.1364 37.2886H15.13ZM29.3925 38.6539H20.5977C20.4152 38.6417 20.2441 38.5607 20.1191 38.4271C19.9942 38.2935 19.9247 38.1175 19.9247 37.9346C19.9247 37.7516 19.9942 37.5756 20.1191 37.442C20.2441 37.3084 20.4152 37.2274 20.5977 37.2152H29.3989C29.5814 37.2274 29.7524 37.3084 29.8774 37.442C30.0023 37.5756 30.0719 37.7516 30.0719 37.9346C30.0719 38.1175 30.0023 38.2935 29.8774 38.4271C29.7524 38.5607 29.5814 38.6417 29.3989 38.6539H29.3925ZM29.3925 35.9233H20.5977C20.4152 35.9111 20.2441 35.83 20.1191 35.6965C19.9942 35.5629 19.9247 35.3868 19.9247 35.2039C19.9247 35.021 19.9942 34.8449 20.1191 34.7114C20.2441 34.5778 20.4152 34.4967 20.5977 34.4846H29.3989C29.5814 34.4967 29.7524 34.5778 29.8774 34.7114C30.0023 34.8449 30.0719 35.021 30.0719 35.2039C30.0719 35.3868 30.0023 35.5629 29.8774 35.6965C29.7524 35.83 29.5814 35.9111 29.3989 35.9233H29.3925ZM29.3925 33.1926H20.5977C20.4152 33.1805 20.2441 33.0994 20.1191 32.9658C19.9942 32.8323 19.9247 32.6562 19.9247 32.4733C19.9247 32.2904 19.9942 32.1143 20.1191 31.9807C20.2441 31.8472 20.4152 31.7661 20.5977 31.7539H29.3989C29.5814 31.7661 29.7524 31.8472 29.8774 31.9807C30.0023 32.1143 30.0719 32.2904 30.0719 32.4733C30.0719 32.6562 30.0023 32.8323 29.8774 32.9658C29.7524 33.0994 29.5814 33.1805 29.3989 33.1926H29.3925ZM35.6449 37.2886C35.022 37.2886 34.4132 37.1038 33.8953 36.7577C33.3775 36.4116 32.9739 35.9197 32.7357 35.3442C32.4975 34.7687 32.4353 34.1355 32.5571 33.5246C32.6788 32.9138 32.979 32.3528 33.4197 31.9126C33.8603 31.4724 34.4216 31.1728 35.0326 31.0516C35.6435 30.9305 36.2767 30.9933 36.852 31.2321C37.4272 31.4709 37.9187 31.875 38.2643 32.3932C38.6099 32.9113 38.794 33.5204 38.7934 34.1432C38.7926 34.9766 38.4613 35.7757 37.8723 36.3653C37.2834 36.9549 36.4846 37.2869 35.6513 37.2886H35.6449ZM10.6162 13.9378C10.6162 12.6688 11.1203 11.4517 12.0177 10.5543C12.915 9.65695 14.1321 9.15282 15.4012 9.15282H34.5635C35.8325 9.15282 37.0496 9.65695 37.947 10.5543C38.8443 11.4517 39.3485 12.6688 39.3485 13.9378V24.4648C39.3485 25.7339 38.8443 26.9509 37.947 27.8483C37.0496 28.7457 35.8325 29.2498 34.5635 29.2498H15.4171C14.1481 29.2498 12.931 28.7457 12.0336 27.8483C11.1362 26.9509 10.6321 25.7339 10.6321 24.4648L10.6162 13.9378Z" fill="#ED5F57"/>
<path d="M35.6512 32.4335C35.3131 32.4335 34.9825 32.5338 34.7013 32.7216C34.4201 32.9095 34.201 33.1766 34.0716 33.489C33.9421 33.8014 33.9083 34.1452 33.9743 34.4769C34.0402 34.8086 34.2031 35.1132 34.4422 35.3523C34.6813 35.5915 34.986 35.7543 35.3177 35.8203C35.6493 35.8863 35.9931 35.8524 36.3056 35.723C36.618 35.5936 36.885 35.3744 37.0729 35.0932C37.2608 34.8121 37.3611 34.4815 37.3611 34.1433C37.3611 33.6898 37.1809 33.2549 36.8603 32.9343C36.5396 32.6136 36.1047 32.4335 35.6512 32.4335Z" fill="white"/>
<path d="M34.5795 10.582H15.4172C13.5638 10.582 12.0613 12.0845 12.0613 13.9379V24.4521C12.0613 26.3055 13.5638 27.808 15.4172 27.808H34.5795C36.4329 27.808 37.9353 26.3055 37.9353 24.4521V13.9379C37.9353 12.0845 36.4329 10.582 34.5795 10.582Z" fill="#2ABCBF"/>
<path d="M8.94457 32.8833C8.94457 32.8833 12.8778 37.882 25.2136 37.882C37.5493 37.882 41.4825 33.097 41.4825 33.097C41.4825 33.097 42.2258 37.7768 41.4825 39.158C40.7393 40.5393 38.0788 40.753 36.2701 40.6477C34.4613 40.5425 11.8156 40.5393 10.2206 40.434C8.62557 40.3288 8.19811 33.6298 8.94457 32.8833Z" fill="#EA3745"/>
<path d="M4.15975 19.9128C4.15975 19.9128 4.58402 21.613 6.17902 21.5078C7.77402 21.4025 8.51729 17.2523 8.51729 17.2523C8.51729 17.2523 8.83629 21.932 8.41202 22.7838C7.98775 23.6355 3.30803 25.122 4.15975 19.9128Z" fill="#EA3745"/>
<path d="M45.9487 19.9128C45.9487 19.9128 45.5212 21.613 43.9262 21.5078C42.3312 21.4025 41.588 17.2523 41.588 17.2523C41.588 17.2523 41.269 21.932 41.6932 22.7838C42.1175 23.6355 46.7972 25.122 45.9487 19.9128Z" fill="#EA3745"/>
<path d="M10.9641 19.5939L15.9628 9.91541L17.7684 10.0239L11.0694 23.9514L10.9641 19.5939Z" fill="white"/>
<path d="M11.6021 26.079L19.7908 10.129H24.1483L14.473 28.312C14.473 28.312 12.2401 27.7793 11.6021 26.079Z" fill="white"/>
<path d="M15.1366 35.3779C15.8184 35.3779 16.3712 34.8252 16.3712 34.1433C16.3712 33.4615 15.8184 32.9088 15.1366 32.9088C14.4548 32.9088 13.9021 33.4615 13.9021 34.1433C13.9021 34.8252 14.4548 35.3779 15.1366 35.3779Z" fill="#F4C117"/>
<path d="M35.6513 35.3779C36.3331 35.3779 36.8858 34.8252 36.8858 34.1433C36.8858 33.4615 36.3331 32.9088 35.6513 32.9088C34.9695 32.9088 34.4167 33.4615 34.4167 34.1433C34.4167 34.8252 34.9695 35.3779 35.6513 35.3779Z" fill="#F4C117"/>
<path d="M8.58768 13C8.58768 13 9.36923 7.79077 10.9642 6.40631C12.5592 5.02185 38.5417 5.76831 39.3743 6.40631C40.2069 7.04431 41.4733 11.6188 41.4733 11.6188C41.4733 11.6188 42.5452 6.55943 40.1973 5.12074C37.8495 3.68205 12.4954 4.36152 10.6133 4.48274C8.73123 4.60396 8.44413 11.5103 8.58768 13Z" fill="white"/>
<path d="M4.15969 19.9128C4.15969 19.9128 4.69242 16.2411 5.75469 15.233C6.81696 14.225 8.19823 15.871 8.19823 15.871C8.19823 15.871 9.58269 15.6637 8.19823 14.225C6.81377 12.7863 4.9221 13.1468 4.05123 14.225C3.18037 15.3032 4.15969 19.9128 4.15969 19.9128Z" fill="white"/>
<path d="M45.8338 19.9128C45.8338 19.9128 45.3011 16.2411 44.2388 15.233C43.1765 14.225 41.7952 15.871 41.7952 15.871C41.7952 15.871 40.4108 15.6637 41.7952 14.225C43.1797 12.7863 45.0714 13.1468 45.9422 14.225C46.8131 15.3032 45.8338 19.9128 45.8338 19.9128Z" fill="white"/>
<path d="M15.4173 29.2466H34.5796C35.8487 29.2466 37.0658 28.7425 37.9631 27.8451C38.8605 26.9478 39.3646 25.7307 39.3646 24.4616V13.9347C39.3646 12.6656 38.8605 11.4485 37.9631 10.5512C37.0658 9.65379 35.8487 9.14966 34.5796 9.14966H15.4173C14.1483 9.14966 12.9312 9.65379 12.0338 10.5512C11.1365 11.4485 10.6323 12.6656 10.6323 13.9347V24.4616C10.6323 25.7307 11.1365 26.9478 12.0338 27.8451C12.9312 28.7425 14.1483 29.2466 15.4173 29.2466ZM12.0614 13.9347C12.0623 13.0449 12.4161 12.1918 13.0453 11.5626C13.6745 10.9335 14.5275 10.5796 15.4173 10.5788H34.5796C35.4694 10.5796 36.3225 10.9335 36.9517 11.5626C37.5808 12.1918 37.9347 13.0449 37.9355 13.9347V24.4616C37.9347 25.3511 37.5807 26.2039 36.9515 26.8325C36.3222 27.4612 35.4691 27.8143 34.5796 27.8143H15.4173C14.5278 27.8143 13.6747 27.4612 13.0455 26.8325C12.4162 26.2039 12.0623 25.3511 12.0614 24.4616V13.9347Z" fill="#152532"/>
<path d="M15.1363 30.9948C14.5135 30.9941 13.9044 31.1782 13.3862 31.5238C12.868 31.8694 12.464 32.3609 12.2252 32.9362C11.9864 33.5114 11.9236 34.1446 12.0447 34.7556C12.1659 35.3665 12.4655 35.9278 12.9057 36.3685C13.3459 36.8091 13.9069 37.1093 14.5177 37.2311C15.1286 37.3528 15.7618 37.2907 16.3373 37.0524C16.9128 36.8142 17.4047 36.4107 17.7508 35.8928C18.0969 35.375 18.2817 34.7661 18.2817 34.1433C18.2808 33.309 17.9493 32.5092 17.3597 31.919C16.7701 31.3288 15.9706 30.9964 15.1363 30.9948ZM15.1363 35.8499C14.798 35.8499 14.4673 35.7496 14.1861 35.5615C13.9048 35.3735 13.6857 35.1063 13.5563 34.7937C13.427 34.4811 13.3934 34.1371 13.4596 33.8053C13.5258 33.4736 13.689 33.1689 13.9284 32.9299C14.1679 32.6909 14.4728 32.5283 14.8047 32.4627C15.1366 32.3971 15.4805 32.4314 15.7929 32.5613C16.1053 32.6912 16.3721 32.9109 16.5596 33.1925C16.7471 33.4741 16.8468 33.805 16.8462 34.1433C16.8453 34.5962 16.6648 35.0303 16.3442 35.3503C16.0237 35.6702 15.5893 35.8499 15.1363 35.8499Z" fill="#152532"/>
<path d="M35.6515 30.9948C35.0287 30.9948 34.42 31.1794 33.9022 31.5254C33.3845 31.8713 32.9809 32.3631 32.7426 32.9384C32.5043 33.5137 32.4419 34.1468 32.5634 34.7575C32.6849 35.3683 32.9848 35.9293 33.4251 36.3696C33.8654 36.8099 34.4265 37.1098 35.0372 37.2313C35.648 37.3528 36.281 37.2904 36.8563 37.0521C37.4317 36.8138 37.9234 36.4103 38.2694 35.8925C38.6153 35.3747 38.8 34.766 38.8 34.1433C38.7991 33.3085 38.4671 32.5081 37.8769 31.9179C37.2866 31.3276 36.4862 30.9956 35.6515 30.9948ZM35.6515 35.8499C35.3131 35.8499 34.9824 35.7496 34.7012 35.5615C34.4199 35.3735 34.2008 35.1063 34.0715 34.7937C33.9421 34.4811 33.9085 34.1371 33.9747 33.8053C34.0409 33.4736 34.2041 33.1689 34.4435 32.9299C34.683 32.6909 34.988 32.5283 35.3198 32.4627C35.6517 32.3971 35.9956 32.4314 36.308 32.5613C36.6204 32.6912 36.8872 32.9109 37.0747 33.1925C37.2622 33.4741 37.3619 33.805 37.3613 34.1433C37.3604 34.5962 37.1799 35.0303 36.8594 35.3503C36.5388 35.6702 36.1044 35.8499 35.6515 35.8499Z" fill="#152532"/>
<path d="M29.399 31.7539H20.5978C20.4153 31.7661 20.2442 31.8471 20.1193 31.9807C19.9943 32.1143 19.9248 32.2903 19.9248 32.4733C19.9248 32.6562 19.9943 32.8322 20.1193 32.9658C20.2442 33.0994 20.4153 33.1804 20.5978 33.1926H29.399C29.5815 33.1804 29.7526 33.0994 29.8775 32.9658C30.0025 32.8322 30.072 32.6562 30.072 32.4733C30.072 32.2903 30.0025 32.1143 29.8775 31.9807C29.7526 31.8471 29.5815 31.7661 29.399 31.7539Z" fill="#152532"/>
<path d="M29.399 34.4846H20.5978C20.4153 34.4968 20.2442 34.5779 20.1193 34.7114C19.9943 34.845 19.9248 35.0211 19.9248 35.204C19.9248 35.3869 19.9943 35.5629 20.1193 35.6965C20.2442 35.8301 20.4153 35.9111 20.5978 35.9233H29.399C29.5815 35.9111 29.7526 35.8301 29.8775 35.6965C30.0025 35.5629 30.072 35.3869 30.072 35.204C30.072 35.0211 30.0025 34.845 29.8775 34.7114C29.7526 34.5779 29.5815 34.4968 29.399 34.4846Z" fill="#152532"/>
<path d="M29.399 37.2153H20.5978C20.4153 37.2275 20.2442 37.3086 20.1193 37.4421C19.9943 37.5757 19.9248 37.7518 19.9248 37.9347C19.9248 38.1176 19.9943 38.2937 20.1193 38.4272C20.2442 38.5608 20.4153 38.6419 20.5978 38.654H29.399C29.5815 38.6419 29.7526 38.5608 29.8775 38.4272C30.0025 38.2937 30.072 38.1176 30.072 37.9347C30.072 37.7518 30.0025 37.5757 29.8775 37.4421C29.7526 37.3086 29.5815 37.2275 29.399 37.2153Z" fill="#152532"/>
<path d="M5.70366 24.2417H6.81378C7.18796 24.24 7.5568 24.1527 7.892 23.9865V38.3414C7.89439 39.0728 8.15956 39.779 8.63914 40.3312C9.11872 40.8833 9.78077 41.2448 10.5046 41.3496V43.5826C10.5054 44.3288 10.802 45.0443 11.3294 45.5723C11.8568 46.1003 12.5719 46.3977 13.3182 46.3994H15.5958C16.3426 46.3985 17.0586 46.1015 17.5867 45.5734C18.1147 45.0454 18.4118 44.3294 18.4126 43.5826V41.3911H32.3752V43.5794C32.3761 44.3262 32.6731 45.0422 33.2012 45.5702C33.7292 46.0983 34.4452 46.3953 35.192 46.3962H37.4696C38.2161 46.3953 38.9318 46.0982 39.4593 45.57C39.9869 45.0419 40.2832 44.3259 40.2832 43.5794V41.1231C40.8242 40.8847 41.2843 40.4943 41.6076 39.9993C41.931 39.5044 42.1036 38.9262 42.1047 38.3351V23.9801C42.44 24.146 42.8088 24.2333 43.1829 24.2353H44.293C44.9603 24.2344 45.6 23.969 46.0718 23.4972C46.5437 23.0253 46.8091 22.3856 46.8099 21.7184V15.3033C46.8091 14.636 46.5437 13.9963 46.0718 13.5245C45.6 13.0527 44.9603 12.7872 44.293 12.7864H43.1829C42.8088 12.7883 42.44 12.8756 42.1047 13.0416V6.73815C42.1039 5.9279 41.7816 5.15108 41.2087 4.57815C40.6357 4.00522 39.8589 3.68297 39.0487 3.68213H10.948C10.1378 3.68297 9.36095 4.00522 8.78802 4.57815C8.21508 5.15108 7.89284 5.9279 7.892 6.73815V13.0384C7.55604 12.8746 7.18754 12.7884 6.81378 12.7864H5.70366C5.03669 12.7872 4.39732 13.0528 3.926 13.5247C3.45468 13.9966 3.18994 14.6363 3.18994 15.3033V21.7247C3.18994 22.3917 3.45468 23.0314 3.926 23.5033C4.39732 23.9753 5.03669 24.2408 5.70366 24.2417ZM42.1047 15.3097C42.1055 15.024 42.2194 14.7502 42.4214 14.5482C42.6235 14.3462 42.8972 14.2323 43.1829 14.2314H44.293C44.5787 14.2323 44.8525 14.3462 45.0545 14.5482C45.2566 14.7502 45.3704 15.024 45.3713 15.3097V21.7311C45.3704 22.0168 45.2566 22.2906 45.0545 22.4926C44.8525 22.6946 44.5787 22.8085 44.293 22.8093H43.1829C42.8972 22.8085 42.6235 22.6946 42.4214 22.4926C42.2194 22.2906 42.1055 22.0168 42.1047 21.7311V15.3097ZM9.3243 6.73815C9.32515 6.30946 9.49581 5.89858 9.79894 5.59545C10.1021 5.29233 10.5129 5.12166 10.9416 5.12082H39.0423C39.471 5.12166 39.8819 5.29233 40.185 5.59545C40.4881 5.89858 40.6588 6.30946 40.6596 6.73815V38.3191C40.6588 38.7478 40.4881 39.1587 40.185 39.4618C39.8819 39.7649 39.471 39.9356 39.0423 39.9364H10.948C10.5193 39.9356 10.1084 39.7649 9.80532 39.4618C9.5022 39.1587 9.33153 38.7478 9.33068 38.3191V6.73815H9.3243ZM37.4633 44.9543H35.1856C34.8201 44.9543 34.4696 44.8091 34.2112 44.5507C33.9527 44.2922 33.8075 43.9417 33.8075 43.5762V41.3911H38.8413V43.5794C38.8405 43.9432 38.6958 44.292 38.4388 44.5495C38.1819 44.8071 37.8335 44.9526 37.4696 44.9543H37.4633ZM15.5895 44.9543H13.3118C12.9463 44.9543 12.5958 44.8091 12.3374 44.5507C12.0789 44.2922 11.9337 43.9417 11.9337 43.5762V41.3911H16.9803V43.5794C16.9799 43.7606 16.9437 43.94 16.8739 44.1073C16.804 44.2745 16.7019 44.4263 16.5733 44.5541C16.4447 44.6818 16.2922 44.7829 16.1244 44.8515C15.9567 44.9202 15.7771 44.9551 15.5958 44.9543H15.5895ZM4.62544 15.3033C4.62628 15.0176 4.74015 14.7438 4.94217 14.5418C5.1442 14.3398 5.41796 14.2259 5.70366 14.2251H6.81378C7.09948 14.2259 7.37324 14.3398 7.57526 14.5418C7.77729 14.7438 7.89116 15.0176 7.892 15.3033V21.7247C7.89116 22.0105 7.77729 22.2842 7.57526 22.4862C7.37324 22.6883 7.09948 22.8021 6.81378 22.803H5.70366C5.41796 22.8021 5.1442 22.6883 4.94217 22.4862C4.74015 22.2842 4.62628 22.0105 4.62544 21.7247V15.3033Z" fill="#152532"/>
</svg>
