<svg width="46" height="46" viewBox="0 0 46 46" fill="none" xmlns="http://www.w3.org/2000/svg">
<g clip-path="url(#clip0_381_1048)">
<path d="M45.4425 44.2383L42.5419 42.9603C41.1386 42.3347 39.5745 42.1663 38.0701 42.478L45.8794 28.1289C46.0061 27.8841 46.0182 27.5954 45.9131 27.3408C45.8076 27.0857 45.5947 26.8903 45.332 26.8064L42.3125 25.9145V19.3289C42.3125 18.821 41.9007 18.4092 41.3928 18.4092H37.714V10.132C37.714 9.6241 37.3022 9.21231 36.7943 9.21231H33.1156V0.935073C33.1156 0.427177 32.7038 0.0153809 32.1959 0.0153809H13.802C13.2941 0.0153809 12.8823 0.427177 12.8823 0.935073V9.21231H9.20356C8.69566 9.21231 8.28386 9.6241 8.28386 10.132V18.4092H4.6051C4.0972 18.4092 3.6854 18.821 3.6854 19.3289V25.9145L0.665867 26.8064C0.402713 26.8903 0.190304 27.0857 0.0847727 27.3408C-0.0207584 27.5954 -0.00863348 27.8841 0.118453 28.1289L7.92775 42.4784C6.42337 42.1659 4.85882 42.3347 3.45593 42.9603L0.555396 44.2383C0.251826 44.369 0.0421113 44.6524 0.0057367 44.9806C-0.0310869 45.3089 0.111268 45.6318 0.378014 45.8262C0.64521 46.0207 0.995933 46.057 1.29726 45.9214L4.19779 44.6434C5.62538 43.9958 7.26313 43.9958 8.69072 44.6434L8.97408 44.7682C9.18021 44.8589 9.38947 44.9353 9.59964 45.0067L9.62209 45.0152C11.3663 45.6062 13.2694 45.5177 14.9516 44.7682L15.2341 44.6434C16.6617 43.9958 18.2994 43.9958 19.727 44.6434L20.0104 44.7682C21.9126 45.617 24.0857 45.617 25.9879 44.7682L26.2704 44.6434C27.698 43.9958 29.3357 43.9958 30.7633 44.6434L31.0467 44.7682C32.9489 45.617 35.122 45.617 37.0242 44.7682L37.3067 44.6434C38.7343 43.9963 40.372 43.9963 41.8001 44.6434L44.7006 45.9214C45.0019 46.0579 45.3536 46.022 45.6208 45.8276C45.8884 45.6331 46.0312 45.3098 45.9939 44.9811C45.9571 44.6524 45.7465 44.3685 45.4425 44.2383ZM22.0792 20.2486V20.4808L14.7217 22.6543V20.2486H22.0792ZM19.3202 11.0517H26.6777V18.4092H19.3202V11.0517ZM31.2762 22.6543L23.9186 20.4808V20.2486H31.2762V22.6543ZM2.27847 28.2488L22.0792 22.3992V25.0635L3.31896 30.1609L2.27847 28.2488ZM23.9186 22.3992L43.7194 28.2488L42.6789 30.1609L23.9186 25.0635V22.3992ZM40.4731 25.3711L33.1156 23.1976V20.2486H40.4731V25.3711ZM35.8746 18.4092H28.5171V11.0517H35.8746V18.4092ZM31.2762 9.21231H23.9186V1.85477H31.2762V9.21231ZM14.7217 1.85477H22.0792V9.21231H14.7217V1.85477ZM10.1232 11.0517H17.4808V18.4092H10.1232V11.0517ZM5.52479 20.2486H12.8823V23.1976L5.52479 25.3711V20.2486ZM20.4693 42.9603C18.5671 42.1115 16.394 42.1115 14.4918 42.9603L14.2093 43.0851C13.0444 43.6114 11.7314 43.7089 10.5018 43.3599L4.22249 31.8216L22.0792 26.9694V43.4834C21.6225 43.4048 21.1771 43.271 20.7527 43.0851L20.4693 42.9603ZM31.789 43.0851L31.5056 42.9603C29.6034 42.1115 27.4303 42.1115 25.5281 42.9603L25.2456 43.0851C24.8208 43.271 24.3753 43.4048 23.9186 43.4834V26.9694L41.7749 31.8216L35.4961 43.3599C34.2665 43.7089 32.9534 43.6114 31.789 43.0851Z" fill="white"/>
<path d="M30.5799 30.3926L26.9011 29.4729C26.408 29.3494 25.9087 29.6489 25.7856 30.142C25.6621 30.6346 25.9616 31.134 26.4547 31.2575L30.1335 32.1772C30.6261 32.3002 31.1255 32.0007 31.249 31.508C31.372 31.015 31.0725 30.5156 30.5799 30.3926Z" fill="white"/>
<path d="M30.5799 33.1516L26.9011 32.2319C26.408 32.1084 25.9087 32.4079 25.7856 32.901C25.6621 33.3936 25.9616 33.893 26.4547 34.0165L30.1335 34.9362C30.6261 35.0592 31.1255 34.7597 31.249 34.2671C31.372 33.774 31.0725 33.2746 30.5799 33.1516Z" fill="white"/>
<path d="M19.0971 29.4729L15.4183 30.3926C14.9253 30.5156 14.6257 31.015 14.7492 31.508C14.8723 32.0007 15.3716 32.3002 15.8647 32.1772L19.5435 31.2575C20.0361 31.134 20.3356 30.6346 20.2126 30.142C20.0891 29.6489 19.5897 29.3494 19.0971 29.4729Z" fill="white"/>
<path d="M19.0971 32.2319L15.4183 33.1516C14.9253 33.2746 14.6257 33.774 14.7492 34.2671C14.8723 34.7597 15.3716 35.0592 15.8647 34.9362L19.5435 34.0165C20.0361 33.893 20.3356 33.3936 20.2126 32.901C20.0891 32.4079 19.5897 32.1084 19.0971 32.2319Z" fill="white"/>
</g>
<defs>
<clipPath id="clip0_381_1048">
<rect width="46" height="46" fill="white"/>
</clipPath>
</defs>
</svg>
