<svg width="49" height="49" viewBox="0 0 49 49" fill="none" xmlns="http://www.w3.org/2000/svg">
<g clip-path="url(#clip0_265_4239)">
<path d="M10.1471 36.4659L3.07753 30.9053C2.69137 30.6148 2.56494 30.102 2.79673 29.7663C3.92976 28.1253 6.11256 27.5649 8.25727 28.3643L14.651 31.9911L10.1471 36.4659Z" fill="#FF2C5C"/>
<path d="M12.5195 38.8385L18.0947 45.9226C18.3852 46.3088 18.898 46.4352 19.2337 46.2034L19.6552 45.9124C21.0431 44.954 21.5172 43.1078 20.841 41.2937L17.0088 34.3491L12.5195 38.8385Z" fill="#FF2C5C"/>
<path d="M10.5594 29.6704L6.55957 33.6443L10.1469 36.466L14.6509 31.9913L10.5594 29.6704Z" fill="#E62753"/>
<path d="M12.0623 14.688C11.1778 13.8034 11.1001 12.3913 11.89 11.4213C13.0257 10.0267 14.4515 8.47156 15.3059 7.61712C16.5627 6.36035 16.5837 6.61941 18.1315 5.63147L21.1188 8.61884C20.1309 10.1667 20.39 10.1876 19.1332 11.4444C18.2787 12.2988 16.7236 13.7246 15.329 14.8603C14.359 15.6502 12.9469 15.5725 12.0623 14.688Z" fill="#C3D3DB"/>
<path d="M34.3123 36.9378C33.4278 36.0532 33.3501 34.6411 34.14 33.6712C35.2757 32.2766 36.7015 30.7214 37.5559 29.867C38.8127 28.6102 38.8337 28.8693 40.3815 27.8813L43.3688 30.8687C42.3809 32.4166 42.64 32.4375 41.3832 33.6943C40.5287 34.5487 38.9736 35.9745 37.579 37.1102C36.609 37.9001 35.1968 37.8224 34.3123 36.9378Z" fill="#C3D3DB"/>
<path d="M23.1921 23.0918L31.9142 14.3697L4.89518 5.88065C4.33885 5.73863 3.78569 5.87386 3.41762 6.24193L1.13491 8.52464C0.370429 9.28912 0.698595 10.6905 1.77774 11.27L23.1921 23.0918Z" fill="#FF2C5C"/>
<path d="M25.8094 12.4517L18.0229 20.2382L23.1923 23.0918L31.9144 14.3698L25.8094 12.4517Z" fill="#E62753"/>
<path d="M25.9082 25.8079L34.6303 17.0858L43.1195 44.1048C43.2615 44.6611 43.1262 45.2143 42.7582 45.5824L40.4755 47.8651C39.711 48.6296 38.3096 48.3014 37.7301 47.2222L25.9082 25.8079Z" fill="#FF2C5C"/>
<path d="M42.3711 13.4193L27.7183 28.0721C25.2596 30.5308 22.6457 32.824 19.9091 34.9234L12.9376 40.2714C11.3237 41.5096 9.40417 41.6593 8.37259 40.6276C7.34091 39.596 7.49069 37.6765 8.7288 36.0626L14.0769 29.0911C16.1762 26.3545 18.4695 23.7406 20.9282 21.2819L35.5809 6.6291C37.584 4.62594 39.8845 2.95707 42.3148 1.81131C44.4078 0.824611 46.6324 0.206465 47.7131 1.28714C48.7937 2.36782 48.1756 4.59235 47.1889 6.68538C46.0431 9.11566 44.3742 11.4162 42.3711 13.4193Z" fill="#E0F3FC"/>
<path d="M47.7128 1.28713C47.3324 0.90681 46.81 0.737606 46.2018 0.720093C46.2455 1.84547 45.7575 3.27278 45.1113 4.64363C43.9655 7.07402 42.2965 9.37453 40.2935 11.3776L25.6406 26.0304C23.1819 28.4891 20.5681 30.7824 17.8315 32.8817L10.86 38.2298C9.83337 39.0173 8.68349 39.3638 7.7168 39.2467C7.78944 39.7832 8.00601 40.2616 8.37217 40.6277C9.40385 41.6594 11.3233 41.5096 12.9372 40.2715L19.9087 34.9234C22.6453 32.8241 25.2592 30.5309 27.7179 28.0722L42.3706 13.4194C44.3738 11.4163 46.0426 9.11584 47.1884 6.68546C48.1753 4.59234 48.7934 2.36772 47.7128 1.28713Z" fill="#C3D3DB"/>
<path d="M43.5852 10.6131L43.0849 11.1134C42.6203 11.578 37.4221 6.37991 37.8868 5.91527L38.3871 5.41494C38.7026 5.0995 39.1655 5.00016 39.5424 5.16687C41.4207 5.99777 43.0023 7.57945 43.8332 9.45772C44 9.83479 43.9006 10.2977 43.5852 10.6131Z" fill="#51C4F5"/>
<path d="M40.8924 27.3715C40.6542 27.1334 40.2827 27.0931 39.9988 27.2741C39.5142 27.5834 39.1828 27.767 38.9165 27.9145C38.8796 27.935 38.8438 27.9549 38.8083 27.9746L36.4233 20.3829L38.431 18.3753C38.7113 18.0949 38.7113 17.6405 38.431 17.3601C38.1506 17.0798 37.696 17.0798 37.4157 17.3601C37.4145 17.3614 37.417 17.3588 37.4157 17.3601L27.2134 27.5624C24.7829 29.9929 22.179 32.2774 19.4742 34.3523L12.9448 39.3611C12.9424 39.363 12.9399 39.3644 12.9376 39.3662C12.9362 39.3674 12.9351 39.3686 12.9336 39.3698L12.5019 39.7009C11.1987 40.7005 9.64201 40.8802 8.88088 40.1192C8.11966 39.358 8.29949 37.8013 9.2992 36.4982L9.62967 36.0674C9.63139 36.0653 9.6333 36.0636 9.63493 36.0615C9.63799 36.0576 9.64039 36.0534 9.64335 36.0495L14.6478 29.526C14.9969 29.0709 15.3555 28.6142 15.7134 28.1684C15.9617 27.8593 15.9123 27.4074 15.6033 27.1592C15.2941 26.9108 14.8423 26.9602 14.5941 27.2693C14.2294 27.7234 13.8642 28.1886 13.5087 28.6522L12.5129 29.9502L8.61225 27.7381C8.57923 27.7194 8.54487 27.7034 8.50937 27.69C7.78949 27.4211 7.05487 27.2848 6.32571 27.2848C4.61674 27.2848 3.11525 28.04 2.20645 29.3564C1.75904 30.0033 1.9537 30.9506 2.6396 31.472L8.07114 35.7446C6.69646 37.6244 6.60334 39.8719 7.86586 41.1344C8.46161 41.7303 9.27681 42.0243 10.1691 42.0243C11.1674 42.0243 12.2622 41.6551 13.2545 40.9296L17.5282 46.3606C17.86 46.797 18.3642 47.0345 18.8534 47.0345C19.1331 47.0345 19.408 46.9568 19.6429 46.7944L20.0656 46.503C21.7232 45.3576 22.3061 43.1632 21.5161 41.0427C21.5037 41.0096 21.489 40.9775 21.472 40.9466L19.0231 36.5079L20.3481 35.4915C22.7195 33.6724 25.0137 31.6946 27.1852 29.6007L33.9392 41.8339C34.0701 42.071 34.3154 42.205 34.5683 42.205C34.6856 42.205 34.8046 42.1762 34.9146 42.1154C35.2616 41.9238 35.3877 41.487 35.1961 41.14L28.249 28.5571L35.2781 21.528L37.7134 29.2796C37.7138 29.2813 37.7144 29.2829 37.7149 29.2846L42.4319 44.2989C42.5046 44.6011 42.4386 44.8902 42.2548 45.0745L39.9721 47.3572C39.7474 47.5819 39.4494 47.5764 39.2918 47.5532C38.9133 47.4974 38.5585 47.2403 38.3621 46.8746L36.6756 43.8198C36.4839 43.4727 36.0471 43.3468 35.7002 43.5383C35.3531 43.73 35.2271 44.1667 35.4187 44.5137L37.1013 47.5613C37.5106 48.3232 38.2513 48.8511 39.0826 48.9736C39.2023 48.9912 39.3212 48.9999 39.4385 48.9999C40.0291 48.9999 40.5798 48.7799 40.9873 48.3724L43.2707 46.089C43.8199 45.5383 44.0248 44.7297 43.8186 43.9259C43.8154 43.9135 43.812 43.9013 43.8081 43.889L41.0273 35.0377C41.3531 34.7315 41.6486 34.4462 41.8946 34.2002C42.777 33.3178 42.9747 32.9907 43.3379 32.335C43.4855 32.0686 43.6692 31.7369 43.9783 31.2522C44.1594 30.9683 44.1188 30.5966 43.8806 30.3585L40.8924 27.3715ZM3.50974 30.3302C3.42609 30.2672 3.40064 30.1885 3.39863 30.1566C4.03706 29.2437 5.10262 28.7206 6.32571 28.7206C6.86547 28.7206 7.41337 28.8199 7.95515 29.016L11.6306 31.1003L8.943 34.6038L3.52189 30.3395C3.51787 30.3363 3.51385 30.3333 3.50974 30.3302ZM20.1882 41.5919C20.7194 43.0706 20.3453 44.5646 19.25 45.3214L18.8437 45.6016C18.8118 45.5996 18.7329 45.5742 18.6699 45.4904C18.6668 45.4863 18.6637 45.4822 18.6604 45.4781L14.3953 40.058L17.8709 37.3918L20.1882 41.5919ZM42.082 31.6396C41.7808 32.1834 41.6561 32.4085 40.8795 33.1852C40.7778 33.287 40.6661 33.3965 40.5477 33.5114L39.2489 29.3772C39.3564 29.3125 39.4717 29.2483 39.6123 29.1704C39.7964 29.0684 40.0097 28.9502 40.2795 28.7887L42.4637 30.9722C42.3022 31.2421 42.184 31.4555 42.082 31.6396Z" fill="black"/>
<path d="M48.2253 0.774789C47.0773 -0.373361 44.9871 -0.244736 42.0128 1.15731C39.567 2.31035 37.1685 4.02554 35.0768 6.11732L28.6172 12.5769L21.0255 10.1919C21.0452 10.1564 21.0651 10.1206 21.0856 10.0836C21.2331 9.8173 21.4167 9.48588 21.726 9.00143C21.9071 8.71757 21.8666 8.34586 21.6285 8.10775L18.6414 5.11962C18.4032 4.88141 18.0316 4.84093 17.7477 5.0219C17.2631 5.33102 16.9313 5.51468 16.6649 5.66225C16.0092 6.02545 15.6821 6.22317 14.7997 7.10555C14.5537 7.3516 14.2685 7.64704 13.9622 7.97291L5.11086 5.19197C5.0987 5.18814 5.08645 5.1846 5.07401 5.18154C4.2701 4.97539 3.4616 5.1802 2.91026 5.73011L0.627452 8.01272C0.139079 8.50119 -0.0800811 9.19542 0.0263408 9.9174C0.148745 10.7487 0.676739 11.4894 1.43136 11.8947L19.3987 21.8145C18.4282 22.8211 17.4801 23.8563 16.5693 24.9048C16.3093 25.2042 16.3411 25.6575 16.6405 25.9175C16.7764 26.0356 16.9441 26.0934 17.111 26.0934C17.3117 26.0934 17.5113 26.0097 17.6532 25.8463C18.8601 24.4569 20.1335 23.0911 21.4378 21.7866L29.3149 13.9095C29.3169 13.9077 29.3187 13.9057 29.3206 13.9038L36.0921 7.13235C36.4372 6.78734 36.7913 6.45391 37.1523 6.13168C37.2261 6.60043 37.6096 7.08842 37.8773 7.42855C38.3096 7.97779 38.9333 8.66599 39.6337 9.36635C40.3341 10.0667 41.0222 10.6905 41.5715 11.1227C41.9118 11.3906 42.4 11.7737 42.8688 11.8472C42.5465 12.2083 42.213 12.5627 41.8677 12.9079L39.5813 15.1942C39.3009 15.4745 39.3009 15.929 39.5813 16.2093C39.8615 16.4896 40.3161 16.4896 40.5964 16.2093L42.8828 13.9231C44.9746 11.8312 46.6898 9.43276 47.8428 6.98698C49.2448 4.0131 49.3736 1.92294 48.2253 0.774789ZM15.8149 8.12058C16.5916 7.34385 16.8167 7.21925 17.3605 6.91807C17.5446 6.81605 17.758 6.69786 18.0278 6.5365L20.2113 8.72073C20.0498 8.99052 19.9316 9.20375 19.8296 9.38788C19.7518 9.52847 19.6876 9.64379 19.6228 9.75126L15.4886 8.45248C15.6036 8.334 15.7131 8.22231 15.8149 8.12058ZM20.4429 20.7512L2.11803 10.6339C1.75962 10.4415 1.50247 10.0867 1.44667 9.7082C1.42342 9.55057 1.41806 9.25255 1.64267 9.02794L3.92481 6.7459C4.10971 6.56138 4.39892 6.49554 4.70106 6.56808L19.6766 11.2729C19.679 11.2738 19.6814 11.2744 19.6839 11.2752L27.4721 13.7221L20.4429 20.7512ZM40.6488 8.35132C39.6186 7.32117 38.964 6.52626 38.6958 6.12086L38.8984 5.91826C39.0017 5.8149 39.152 5.77327 39.2557 5.81911C40.9597 6.57296 42.4271 8.04038 43.181 9.74428C43.2269 9.84802 43.1851 9.99837 43.0818 10.1017L42.8792 10.3043C42.4738 10.0361 41.6789 9.38147 40.6488 8.35132ZM46.5442 6.37495C46.0216 7.4832 45.3739 8.58206 44.6228 9.64484C44.6043 9.48014 44.5622 9.31773 44.4939 9.16346C43.5861 7.11139 41.8886 5.4139 39.8365 4.50606C39.6823 4.43783 39.52 4.39572 39.3552 4.37725C40.4179 3.62607 41.5169 2.97835 42.6251 2.45581C44.8932 1.38662 46.5644 1.14401 47.2102 1.78982C47.8561 2.43591 47.6133 4.10708 46.5442 6.37495Z" fill="black"/>
<path d="M9.44901 38.5359C9.16869 38.8162 9.16869 39.2707 9.44901 39.5511C9.58921 39.6913 9.77286 39.7614 9.95661 39.7614C10.1404 39.7614 10.324 39.6913 10.4642 39.5511L16.5494 33.466C16.8297 33.1856 16.8297 32.7312 16.5494 32.4508C16.2691 32.1705 15.8146 32.1705 15.5343 32.4508L9.44901 38.5359Z" fill="black"/>
</g>
<defs>
<clipPath id="clip0_265_4239">
<rect width="49" height="49" fill="white"/>
</clipPath>
</defs>
</svg>
