<svg width="50" height="60" viewBox="0 0 50 60" fill="none" xmlns="http://www.w3.org/2000/svg">
<path d="M45.8707 50.2658C44.9076 50.2669 43.9751 50.6047 43.2347 51.2207C43.1207 51.3101 42.99 51.3758 42.8503 51.4139C42.7105 51.452 42.5646 51.4618 42.421 51.4426C42.2614 51.442 42.102 51.4319 41.9436 51.4124L48.9102 33.6125C49.113 33.0903 49.2074 32.5322 49.1875 31.9723C49.1675 31.4124 49.0338 30.8625 48.7944 30.356C48.555 29.8494 48.2149 29.397 47.7949 29.0262C47.3749 28.6554 46.8838 28.3741 46.3515 28.1993L42.7942 27.0393V23.3106C42.7965 22.5831 42.6053 21.868 42.2402 21.2388C41.875 20.6096 41.3491 20.0887 40.7164 19.7298V17.5544C40.7204 16.6957 40.4545 15.8574 39.9561 15.1581C39.4577 14.4588 38.7522 13.9339 37.9391 13.6575V11.7948C37.9364 10.8539 37.6138 9.94192 37.0241 9.20869C36.4345 8.47546 35.613 7.96462 34.6945 7.76011L32.8789 7.36336V4.10868C32.8745 3.01802 32.4383 1.97353 31.6659 1.20357C30.8934 0.43362 29.8474 0.00087983 28.7568 0H21.2421C20.1503 0.00177821 19.1037 0.436299 18.3317 1.20833C17.5596 1.98037 17.1251 3.02695 17.1234 4.11877V7.37344L15.3044 7.77018C14.3869 7.97591 13.5665 8.4872 12.9776 9.22024C12.3887 9.95329 12.0663 10.8646 12.0632 11.8049V13.6676C11.2498 13.9435 10.544 14.4683 10.0455 15.1677C9.54707 15.8671 9.28132 16.7056 9.28592 17.5645V19.7399C8.65315 20.0988 8.12722 20.6196 7.76209 21.2489C7.39695 21.8781 7.20574 22.5931 7.20805 23.3207V27.0393L3.6575 28.1993C3.12324 28.3724 2.63005 28.653 2.20831 29.0238C1.78657 29.3947 1.44519 29.8479 1.20518 30.3556C0.965178 30.8633 0.831629 31.4148 0.812758 31.9761C0.793886 32.5374 0.890085 33.0966 1.09544 33.6193L8.04525 51.4023C7.88684 51.4218 7.72741 51.4319 7.5678 51.4325C7.4227 51.4519 7.27519 51.4416 7.13418 51.4023C6.99317 51.363 6.8616 51.2955 6.74742 51.2039C5.90777 50.5078 4.82632 50.1732 3.74029 50.2734C2.65426 50.3737 1.65232 50.9005 0.954234 51.7385C0.255099 52.5782 -0.0820239 53.6612 0.0169597 54.7494C0.115943 55.8376 0.642936 56.842 1.48211 57.5418C3.19646 58.966 5.3664 59.7251 7.5947 59.6802C10.4358 59.6802 13.203 58.6446 15.6641 57.7267C15.8303 57.6519 16.0074 57.6043 16.1886 57.5855C16.5752 57.6734 16.9524 57.7984 17.315 57.9587C22.26 59.9178 27.7658 59.9178 32.7108 57.9587C33.0734 57.7984 33.4506 57.6734 33.8372 57.5855C34.0195 57.6044 34.1976 57.6521 34.365 57.7267C36.8094 58.6446 39.5766 59.6802 42.4177 59.6802C44.6413 59.7258 46.8072 58.9704 48.5202 57.5519C49.1706 57.0087 49.6378 56.2783 49.8581 55.4601C50.0785 54.6419 50.0414 53.7756 49.7518 52.9792C49.4622 52.1829 48.9343 51.4951 48.2398 51.0096C47.5453 50.5241 46.7181 50.2644 45.8707 50.2658Z" fill="white"/>
<path d="M24.8565 9.13535C24.9057 9.13195 24.9551 9.13195 25.0044 9.13535C25.057 9.13026 25.1099 9.13026 25.1624 9.13535L28.0035 9.75401V4.87537H21.9985V9.75401L24.8397 9.13535H24.8565Z" fill="#2ABCBF"/>
<path d="M25.7576 32.0355L42.1889 37.3882L44.0718 32.5768L25.7576 26.5953V32.0355Z" fill="#2ABCBF"/>
<path d="M24.242 32.0355V26.5953L5.92773 32.5768L7.81059 37.3882L24.242 32.0355Z" fill="#2ABCBF"/>
<path d="M41.6367 38.8006L25.7567 33.6294V47.6198C25.7636 47.7236 25.7491 47.8277 25.7142 47.9257C25.6792 48.0237 25.6245 48.1135 25.5534 48.1894C25.4823 48.2654 25.3964 48.326 25.3009 48.3674C25.2055 48.4088 25.1026 48.4301 24.9985 48.4301C24.8945 48.4301 24.7915 48.4088 24.6961 48.3674C24.6006 48.326 24.5147 48.2654 24.4436 48.1894C24.3725 48.1135 24.3178 48.0237 24.2829 47.9257C24.2479 47.8277 24.2334 47.7236 24.2403 47.6198V33.6294L8.36035 38.8006L13.972 53.1372C16.2146 52.3068 17.5292 52.801 19.0523 53.3961C22.8699 54.9205 27.1271 54.9205 30.9447 53.3961C32.4678 52.8111 33.7824 52.3068 36.0251 53.1372L41.6367 38.8006Z" fill="white"/>
<path d="M24.8336 24.82H24.9547C25.0279 24.8156 25.1015 24.8212 25.1732 24.8368C25.1934 24.8368 25.2136 24.8368 25.2337 24.8368L37.9162 28.9791V23.9559L25.0017 21.8411L12.0806 23.9559V28.9724L24.763 24.8301L24.8336 24.82Z" fill="white"/>
<path d="M24.9843 20.3416C25.0301 20.3366 25.0763 20.3366 25.1221 20.3416L35.8376 22.0934V18.2032L25.0011 16.5591L14.1611 18.2032V22.0765L24.8767 20.3416C24.9124 20.3382 24.9485 20.3382 24.9843 20.3416Z" fill="white"/>
<path d="M24.9975 15.0493C25.0356 15.0461 25.0738 15.0461 25.1119 15.0493L33.0602 16.253V12.4066L24.9908 10.6515L16.9214 12.4066V16.2497L24.8698 15.046C24.9124 15.0426 24.9552 15.0438 24.9975 15.0493Z" fill="white"/>
<path d="M8.36177 38.8004C8.36177 38.8004 15.8226 47.9962 25.0016 47.9962C34.1806 47.9962 41.6381 38.8004 41.6381 38.8004L42.0786 39.7587L36.1946 53.9642C35.7508 53.6354 35.2345 53.418 34.6892 53.3302C34.1439 53.2425 33.5855 53.2869 33.061 53.4599C31.2353 54.0483 28.0176 55.3091 24.9915 55.3091C21.9655 55.3091 18.5461 53.628 16.9221 53.2077C15.2981 52.7874 13.4825 53.8802 13.4825 53.8802C13.4825 53.8802 7.76328 39.6107 8.36177 38.8004Z" fill="#E6E7E8"/>
<path d="M6.27026 35.9763L25.0014 28.9727V32.4761L7.363 38.8006L6.27026 35.9763Z" fill="#DF1119"/>
<path d="M43.7288 35.9763L25.001 28.9727V32.4761L42.6361 38.8006L43.7288 35.9763Z" fill="#DF1119"/>
<path d="M11.1462 28.1588C11.1462 28.1588 21.1187 23.8719 25.0021 23.8719C28.8855 23.8719 38.6428 28.1588 38.6428 28.1588V30.1762L25.0021 25.8893L11.1462 30.1762V28.1588Z" fill="#E6E7E8"/>
<path d="M13.582 21.098L24.8893 18.9966L36.5295 21.098V23.0313L24.8893 21.0139L13.582 22.7791V21.098Z" fill="#E6E7E8"/>
<path d="M16.1885 15.2983L24.89 13.4524L33.4201 15.2983V16.5591L24.806 15.5504L16.1885 17.3997V15.2983Z" fill="#E6E7E8"/>
<path d="M21.998 4.87537C21.998 4.87537 22.2401 8.40574 24.8055 8.40574C27.3709 8.40574 27.9997 4.87537 27.9997 4.87537L28.9646 10.6517L24.8896 9.75401L20.9792 10.6517C20.9792 10.6517 21.3356 5.29901 21.998 4.87537Z" fill="#DF1119"/>
<path d="M21.999 4.87528C21.999 4.87528 25.1561 6.44546 28.0006 4.87528V4.20283C28.0006 4.20283 21.8309 3.94057 21.999 4.87528Z" fill="white"/>
<path d="M5.4021 33.8885L24.8057 27.0261L44.0715 33.6296L45.0768 31.9922L25.0007 25.8896L5.4021 31.9922V33.8885Z" fill="white"/>
<path d="M45.3873 53.7929C43.4507 55.4034 40.8416 54.8587 37.4524 53.6551L45.7774 32.382C45.8171 32.2853 45.8364 32.1813 45.834 32.0767C45.8316 31.9722 45.8075 31.8692 45.7632 31.7744C45.719 31.6797 45.6556 31.5951 45.577 31.526C45.4984 31.457 45.4063 31.405 45.3067 31.3733L39.4328 29.4535V23.3106C39.4327 23.131 39.3687 22.9573 39.2523 22.8206C39.1359 22.6838 38.9746 22.5929 38.7973 22.5642L37.3549 22.3255V17.5544C37.3546 17.373 37.2893 17.1976 37.1709 17.0601C37.0525 16.9225 36.8888 16.8319 36.7093 16.8046L34.5777 16.4684V11.7949C34.577 11.6219 34.5174 11.4543 34.4085 11.3198C34.2997 11.1853 34.1483 11.0919 33.9792 11.0552L29.5175 10.0835V4.11882C29.5175 4.01919 29.4978 3.92055 29.4596 3.82854C29.4213 3.73654 29.3653 3.65299 29.2947 3.58269C29.2241 3.5124 29.1403 3.45675 29.0481 3.41893C28.956 3.38111 28.8572 3.36187 28.7576 3.36231H21.2429C21.1433 3.36187 21.0446 3.38111 20.9524 3.41893C20.8602 3.45675 20.7764 3.5124 20.7058 3.58269C20.6352 3.65299 20.5792 3.73654 20.541 3.82854C20.5027 3.92055 20.4831 4.01919 20.4831 4.11882V10.0835L16.0213 11.0552C15.8523 11.0919 15.7008 11.1853 15.592 11.3198C15.4832 11.4543 15.4235 11.6219 15.4229 11.7949V16.4819L13.2912 16.8181C13.1118 16.8454 12.9481 16.936 12.8297 17.0735C12.7113 17.2111 12.646 17.3864 12.6456 17.5679V22.3255L11.2032 22.5642C11.0259 22.5929 10.8647 22.6838 10.7482 22.8206C10.6318 22.9573 10.5678 23.131 10.5678 23.3106V29.4669L4.6838 31.3868C4.5841 31.4184 4.49205 31.4704 4.41347 31.5395C4.33488 31.6085 4.27147 31.6931 4.22723 31.7879C4.183 31.8827 4.1589 31.9856 4.15646 32.0902C4.15403 32.1948 4.17331 32.2987 4.21308 32.3954L12.538 53.6685C9.14888 54.8722 6.53977 55.4202 4.60311 53.8064C4.44839 53.6779 4.249 53.6163 4.0488 53.6349C3.8486 53.6535 3.66399 53.7508 3.53558 53.9055C3.40717 54.0603 3.34549 54.2596 3.36409 54.4598C3.38269 54.66 3.48006 54.8446 3.63477 54.9731C4.7463 55.8833 6.14942 56.3609 7.58543 56.318C9.81797 56.318 12.2287 55.4135 14.4613 54.5763C16.1861 53.9308 17.0569 54.2636 18.496 54.8184C22.6634 56.4816 27.3103 56.4816 31.4777 54.8184C32.9234 54.2636 33.7943 53.9308 35.5124 54.5763C37.7449 55.4135 40.1557 56.318 42.3882 56.318C43.8242 56.3609 45.2273 55.8833 46.3389 54.9731C46.4936 54.8446 46.5909 54.66 46.6096 54.4598C46.6282 54.2596 46.5665 54.0603 46.438 53.9055C46.3096 53.7508 46.125 53.6535 45.9248 53.6349C45.7246 53.6163 45.5252 53.6779 45.3705 53.8064L45.3873 53.7929ZM42.1898 37.3884L25.7585 32.0357V26.5955L44.0727 32.577L42.1898 37.3884ZM21.9994 4.87533H28.0011V9.75398L25.16 9.13531C25.1074 9.13023 25.0545 9.13023 25.0019 9.13531C24.9527 9.13192 24.9033 9.13192 24.854 9.13531L22.0129 9.75398L21.9994 4.87533ZM16.9392 12.4068L25.0087 10.6517L33.0781 12.4068V16.2499L25.1297 15.0462C25.0917 15.0429 25.0534 15.0429 25.0154 15.0462C24.9785 15.0428 24.9414 15.0428 24.9044 15.0462L16.9561 16.2499L16.9392 12.4068ZM14.162 18.2033L25.0019 16.5592L35.8385 18.2033V22.0767L25.123 20.3417C25.0772 20.3367 25.031 20.3367 24.9851 20.3417C24.9494 20.3383 24.9133 20.3383 24.8775 20.3417L14.162 22.0935V18.2033ZM12.0808 23.9562L24.9986 21.8413L37.913 23.9562V28.9727L25.2306 24.8304C25.2104 24.8304 25.1902 24.8304 25.1701 24.8304C25.0983 24.8148 25.0248 24.8091 24.9515 24.8135H24.8305H24.7632L12.0808 28.9727V23.9562ZM24.2387 26.5955V32.0357L7.8107 37.3884L5.92784 32.577L24.2387 26.5955ZM30.9431 53.3962C27.1255 54.9205 22.8683 54.9205 19.0507 53.3962C17.5276 52.8111 16.213 52.3068 13.9704 53.1372L8.36211 38.8006L24.2421 33.6294V47.6198C24.2352 47.7236 24.2496 47.8277 24.2846 47.9257C24.3196 48.0237 24.3743 48.1135 24.4454 48.1894C24.5165 48.2654 24.6024 48.326 24.6978 48.3674C24.7933 48.4088 24.8962 48.4302 25.0003 48.4302C25.1043 48.4302 25.2072 48.4088 25.3027 48.3674C25.3981 48.326 25.4841 48.2654 25.5551 48.1894C25.6262 48.1135 25.681 48.0237 25.7159 47.9257C25.7509 47.8277 25.7654 47.7236 25.7585 47.6198V33.6294L41.6384 38.8006L36.0268 53.1372C33.7842 52.3068 32.4695 52.8111 30.9464 53.3962H30.9431Z" fill="#152532"/>
</svg>
