<svg width="44" height="44" viewBox="0 0 44 44" fill="none" xmlns="http://www.w3.org/2000/svg">
<path d="M28.8798 3.4375C28.4054 3.4375 28.0204 3.8225 28.0204 4.29688C28.0204 4.77125 28.4054 5.15625 28.8798 5.15625C29.3541 5.15625 29.7391 4.77125 29.7391 4.29688C29.7391 3.8225 29.3541 3.4375 28.8798 3.4375Z" fill="white"/>
<path d="M15.1298 3.4375C14.6554 3.4375 14.2704 3.8225 14.2704 4.29688C14.2704 4.77125 14.6554 5.15625 15.1298 5.15625C15.6041 5.15625 15.9891 4.77125 15.9891 4.29688C15.9891 3.8225 15.6041 3.4375 15.1298 3.4375Z" fill="white"/>
<path d="M39.8783 42.5464L34.1916 36.6054C36.489 36.5231 38.3329 34.6296 38.3329 32.3125V6.81227C38.3329 5.42377 37.8476 4.06785 36.9662 2.99423C36.0842 1.92087 34.8486 1.18121 33.4875 0.911969C30.4374 0.306797 27.3146 0 24.2057 0H19.6656C16.7088 0 13.6288 0.28325 10.5122 0.906125C7.71025 1.4667 5.67663 3.9478 5.67663 6.80539V32.3125C5.67663 34.6491 7.55178 36.5548 9.87613 36.6069L4.12528 42.5427C3.88509 42.7905 3.81651 43.158 3.95117 43.4757C4.08566 43.7935 4.39736 44 4.74248 44H10.887C11.1625 44 11.4213 43.8679 11.5829 43.6448L14.1898 40.0469H29.8962L32.503 43.6449C32.6647 43.8679 32.9235 44 33.199 44H39.2576C39.6017 44 39.9127 43.7946 40.0478 43.4782C40.183 43.1616 40.1163 42.7951 39.8783 42.5464ZM7.39537 32.3125V6.80539C7.39537 4.76412 8.84798 2.99191 10.8492 2.59145C13.6545 2.03079 16.6187 1.71875 19.6655 1.71875H24.2056C27.2025 1.71875 30.2127 2.01446 33.1532 2.5978C34.1255 2.79022 35.0081 3.31856 35.6379 4.08504C36.2674 4.85186 36.614 5.82037 36.614 6.81218V32.3125C36.614 33.7341 35.4575 34.8906 34.0359 34.8906H9.97341C8.55192 34.8906 7.39537 33.7341 7.39537 32.3125ZM10.4485 42.2812H6.77164L12.2667 36.6094H14.558L10.4485 42.2812ZM15.4351 38.3281L16.6804 36.6094H27.4057L28.6509 38.3281H15.4351ZM33.6375 42.2812L29.5281 36.6094H31.8162L37.2453 42.2812H33.6375Z" fill="white"/>
<path d="M34.036 6.875H9.97351C9.49896 6.875 9.11414 7.25983 9.11414 7.73438V22C9.11414 22.4745 9.49896 22.8594 9.97351 22.8594H34.036C34.5106 22.8594 34.8954 22.4745 34.8954 22V7.73438C34.8954 7.25983 34.5106 6.875 34.036 6.875ZM21.1454 21.1406H10.8329V8.59375H21.1454V21.1406ZM33.1766 21.1406H22.8641V8.59375H33.1766V21.1406Z" fill="white"/>
<path d="M25.4423 3.4375H18.5673C18.0927 3.4375 17.7079 3.82233 17.7079 4.29688C17.7079 4.77142 18.0927 5.15625 18.5673 5.15625H25.4423C25.9168 5.15625 26.3016 4.77142 26.3016 4.29688C26.3016 3.82233 25.9168 3.4375 25.4423 3.4375Z" fill="white"/>
<path d="M31.4579 25.4375C29.5624 25.4375 28.0204 26.9796 28.0204 28.875C28.0204 30.7704 29.5624 32.3125 31.4579 32.3125C33.3533 32.3125 34.8954 30.7704 34.8954 28.875C34.8954 26.9796 33.3533 25.4375 31.4579 25.4375ZM31.4579 30.5938C30.5102 30.5938 29.7391 29.8227 29.7391 28.875C29.7391 27.9273 30.5102 27.1562 31.4579 27.1562C32.4056 27.1562 33.1766 27.9273 33.1766 28.875C33.1766 29.8227 32.4056 30.5938 31.4579 30.5938Z" fill="white"/>
<path d="M12.5516 25.4375C10.6562 25.4375 9.11414 26.9796 9.11414 28.875C9.11414 30.7704 10.6563 32.3125 12.5516 32.3125C14.4471 32.3125 15.9891 30.7704 15.9891 28.875C15.9891 26.9796 14.4471 25.4375 12.5516 25.4375ZM12.5516 30.5938C11.6039 30.5938 10.8329 29.8227 10.8329 28.875C10.8329 27.9273 11.6039 27.1562 12.5516 27.1562C13.4994 27.1562 14.2704 27.9273 14.2704 28.875C14.2704 29.8227 13.4994 30.5938 12.5516 30.5938Z" fill="white"/>
<path d="M25.4423 26.2969H18.5673C18.0927 26.2969 17.7079 26.6817 17.7079 27.1562C17.7079 27.6308 18.0927 28.0156 18.5673 28.0156H25.4423C25.9168 28.0156 26.3016 27.6308 26.3016 27.1562C26.3016 26.6817 25.9169 26.2969 25.4423 26.2969Z" fill="white"/>
<path d="M25.4423 29.7344H18.5673C18.0927 29.7344 17.7079 30.1192 17.7079 30.5938C17.7079 31.0683 18.0927 31.4531 18.5673 31.4531H25.4423C25.9168 31.4531 26.3016 31.0683 26.3016 30.5938C26.3016 30.1192 25.9169 29.7344 25.4423 29.7344Z" fill="white"/>
</svg>
