<svg width="50" height="50" viewBox="0 0 50 50" fill="none" xmlns="http://www.w3.org/2000/svg">
<g clip-path="url(#clip0_265_4304)">
<path fill-rule="evenodd" clip-rule="evenodd" d="M22.979 12.064H25.8137V23.6464H22.979V12.064Z" fill="#DB733C"/>
<path d="M10.2064 12.8393C9.48936 13.0884 8.70596 12.7091 8.45684 11.992C8.20489 11.2779 8.58419 10.4945 9.30118 10.2425C10.3725 9.8689 11.502 9.54214 12.6757 9.26265C13.8466 8.98579 15.0896 8.7478 16.3935 8.55396C17.653 8.36851 18.9679 8.22456 20.3299 8.12769C21.6669 8.03354 23.0289 7.98364 24.3964 7.98364C25.7667 7.98364 27.1259 8.03354 28.4657 8.12769C29.8249 8.22456 31.1398 8.36851 32.3994 8.55396C33.7032 8.74771 34.9489 8.98579 36.1172 9.26265C37.2909 9.54214 38.4204 9.8689 39.4917 10.2425C40.2087 10.4945 40.5879 11.2779 40.3388 11.992C40.0868 12.7091 39.3034 13.0884 38.5893 12.8393C37.648 12.5125 36.61 12.2107 35.4806 11.9422C34.3732 11.6792 33.2078 11.4578 32.0009 11.2778C30.8022 11.1006 29.5537 10.965 28.2721 10.8736C27.0319 10.7851 25.7363 10.7379 24.3965 10.7379C23.0567 10.7379 21.7611 10.785 20.5237 10.8736C19.2394 10.965 17.9908 11.1005 16.7922 11.2778C15.5853 11.4578 14.4197 11.6792 13.3125 11.9422C12.1828 12.2107 11.1447 12.5125 10.2064 12.8393Z" fill="#F08851"/>
<path d="M37.4101 9.59473C38.1243 9.79131 38.8219 10.01 39.4918 10.2425C40.2088 10.4944 40.588 11.2778 40.3389 11.992C40.0869 12.7091 39.3035 13.0884 38.5865 12.8393C38.0965 12.6676 37.5761 12.5042 37.0308 12.3463C37.4211 12.1996 37.7505 11.8536 37.8972 11.3747C38.0993 10.7076 37.8861 9.99062 37.4101 9.59473Z" fill="#DB733C"/>
<path d="M23.6655 2.97307C23.6655 2.56887 23.9922 2.24231 24.3963 2.24231C24.8005 2.24231 25.1299 2.56897 25.1299 2.97307V6.25628C25.1299 6.66048 24.8005 6.98704 24.3963 6.98704C23.9922 6.98704 23.6655 6.66038 23.6655 6.25628V2.97307Z" fill="#1480AE"/>
<path fill-rule="evenodd" clip-rule="evenodd" d="M27.2865 7.41609V11.3082C27.2865 11.9449 26.766 12.468 26.1266 12.468H22.6662C22.0268 12.468 21.5063 11.9449 21.5063 11.3082V7.41609C21.5063 6.77664 22.0268 6.25623 22.6662 6.25623H26.1266C26.766 6.25623 27.2865 6.77673 27.2865 7.41609ZM27.2865 25.9384V24.283C27.2865 23.6435 26.766 23.1231 26.1266 23.1231H22.6662C22.0268 23.1231 21.5063 23.6435 21.5063 24.283V25.9384H27.2865Z" fill="#FB9A67"/>
<path fill-rule="evenodd" clip-rule="evenodd" d="M27.2865 7.41609V11.3082C27.2865 11.9449 26.766 12.468 26.1266 12.468H23.6851C24.3245 12.468 24.8449 11.9449 24.8449 11.3082V7.41609C24.8449 6.77664 24.3245 6.25623 23.6851 6.25623H26.1266C26.766 6.25623 27.2865 6.77673 27.2865 7.41609ZM27.2865 25.9384V24.283C27.2865 23.6435 26.766 23.1231 26.1266 23.1231H23.6851C24.3245 23.1231 24.8449 23.6435 24.8449 24.283V25.9384H27.2865Z" fill="#F08851"/>
<path fill-rule="evenodd" clip-rule="evenodd" d="M9.07686 37.0334H3.54043C3.11133 37.0334 2.75977 36.6819 2.75977 36.2529V26.1016C2.75977 25.6726 3.11133 25.321 3.54043 25.321H9.07686C9.50596 25.321 9.85752 25.6727 9.85752 26.1016V36.2528C9.85752 36.6819 9.50596 37.0334 9.07686 37.0334ZM32.7675 28.8256L24.3631 28.0422L15.9587 28.8256H13.5697C13.1406 28.8256 12.7891 29.1773 12.7891 29.6063V36.2529C12.7891 36.6819 13.1406 37.0334 13.5697 37.0334H35.209C35.6409 37.0334 35.9925 36.6819 35.9925 36.2529V29.6063C35.9925 29.1772 35.6409 28.8256 35.209 28.8256H32.7675Z" fill="#B7D8FB"/>
<path fill-rule="evenodd" clip-rule="evenodd" d="M33.3212 28.3246L33.3351 27.3613C33.3461 26.5807 32.6956 25.9385 31.9149 25.9385H16.8778C16.0972 25.9385 15.4688 26.5807 15.4577 27.3613L15.4438 28.3246C15.4633 28.3246 15.4826 28.8257 15.9587 28.8257H32.8228C33.0971 28.8257 33.3212 28.6015 33.3212 28.3246Z" fill="#F08851"/>
<path fill-rule="evenodd" clip-rule="evenodd" d="M33.3215 28.3246L33.3353 27.3613C33.3464 26.5807 32.6959 25.9385 31.9152 25.9385H29.4736C30.2543 25.9385 30.9048 26.5807 30.8937 27.3613L30.8799 28.3246C30.8799 28.6015 30.6557 28.8257 30.3816 28.8257H32.8232C33.0974 28.8257 33.3215 28.6015 33.3215 28.3246Z" fill="#DB733C"/>
<path fill-rule="evenodd" clip-rule="evenodd" d="M24.3967 3.46309C25.3489 3.46309 26.1269 2.68516 26.1269 1.73018C26.1269 0.77793 25.349 0 24.3967 0C23.4444 0 22.6665 0.77793 22.6665 1.73018C22.6665 2.68516 23.4444 3.46309 24.3967 3.46309Z" fill="#F08851"/>
<path fill-rule="evenodd" clip-rule="evenodd" d="M9.07725 37.0334H6.63574C7.06484 37.0334 7.41641 36.6819 7.41641 36.2529V26.1016C7.41641 25.6726 7.06484 25.321 6.63574 25.321H9.07725C9.50635 25.321 9.85791 25.6727 9.85791 26.1016V36.2528C9.85791 36.6819 9.50635 37.0334 9.07725 37.0334ZM35.2094 37.0334H32.7679C33.1997 37.0334 33.5513 36.6819 33.5513 36.2529V29.6063C33.5513 29.1772 33.1997 28.8256 32.7679 28.8256H35.2094C35.6413 28.8256 35.9929 29.1773 35.9929 29.6063V36.2529C35.9929 36.6819 35.6413 37.0334 35.2094 37.0334Z" fill="#89C8FE"/>
<path fill-rule="evenodd" clip-rule="evenodd" d="M50 38.7693C50 44.9452 44.9452 50.0001 38.7692 50.0001H11.2336C5.05478 50.0001 0 44.9452 0 38.7693L26.11 37.7395L50 38.7693Z" fill="#21A1FF"/>
<path fill-rule="evenodd" clip-rule="evenodd" d="M50 38.7692H0V36.3857C0 35.9566 0.351562 35.6051 0.780664 35.6051H49.2193C49.6484 35.6051 49.9999 35.9567 49.9999 36.3857V38.7692H50Z" fill="#FF6270"/>
<path fill-rule="evenodd" clip-rule="evenodd" d="M50.0001 38.7692H47.5585V36.3857C47.5585 35.9566 47.2069 35.6051 46.7778 35.6051H49.2194C49.6485 35.6051 50 35.9567 50 36.3857V38.7692H50.0001Z" fill="#F64B51"/>
<path fill-rule="evenodd" clip-rule="evenodd" d="M49.9999 38.7693C49.9999 44.9452 44.9451 50 38.7691 50H36.3276C42.5036 50 47.5584 44.9452 47.5584 38.7693H49.9999Z" fill="#1991FF"/>
<path d="M5.58076 32.9476C5.17656 32.9476 4.84717 32.621 4.84717 32.214C4.84717 31.8098 5.17666 31.4833 5.58076 31.4833H7.03691C7.44111 31.4833 7.77051 31.8099 7.77051 32.214C7.77051 32.621 7.44111 32.9476 7.03691 32.9476H5.58076ZM17.0828 32.9476C16.6786 32.9476 16.352 32.621 16.352 32.214C16.352 31.8098 16.6787 31.4833 17.0828 31.4833H18.5389C18.9431 31.4833 19.2725 31.8099 19.2725 32.214C19.2725 32.621 18.9431 32.9476 18.5389 32.9476H17.0828ZM30.2402 32.9476C29.836 32.9476 29.5066 32.621 29.5066 32.214C29.5066 31.8098 29.836 31.4833 30.2402 31.4833H31.6964C32.1006 31.4833 32.43 31.8099 32.43 32.214C32.43 32.621 32.1005 32.9476 31.6964 32.9476H30.2402ZM25.8554 32.9476C25.4512 32.9476 25.1218 32.621 25.1218 32.214C25.1218 31.8098 25.4512 31.4833 25.8554 31.4833H27.3115C27.7157 31.4833 28.0423 31.8099 28.0423 32.214C28.0423 32.621 27.7156 32.9476 27.3115 32.9476H25.8554ZM21.4678 32.9476C21.0636 32.9476 20.737 32.621 20.737 32.214C20.737 31.8098 21.0637 31.4833 21.4678 31.4833H22.9239C23.3309 31.4833 23.6575 31.8099 23.6575 32.214C23.6575 32.621 23.3309 32.9476 22.9239 32.9476H21.4678ZM5.58076 29.5289C5.17656 29.5289 4.84717 29.202 4.84717 28.798C4.84717 28.3938 5.17666 28.0643 5.58076 28.0643H7.03691C7.44111 28.0643 7.77051 28.3938 7.77051 28.798C7.77051 29.2021 7.44111 29.5289 7.03691 29.5289H5.58076Z" fill="#21A1FF"/>
<path d="M41.28 40.9173C41.5679 40.6294 42.0302 40.6294 42.3181 40.9173C42.6033 41.2025 42.6033 41.6675 42.3181 41.9527L41.7977 42.4704L42.1327 42.8053C42.4206 43.0905 42.4206 43.5555 42.1327 43.8407C41.8476 44.1258 41.3853 44.1258 41.0973 43.8407L40.7623 43.5057L38.3678 45.9002C38.5062 45.9529 38.6474 45.9862 38.7914 46.0028C39.1844 46.0444 39.5886 45.9584 39.9319 45.7397C40.2723 45.5238 40.7236 45.6236 40.9395 45.9614C41.1554 46.3018 41.0558 46.753 40.7153 46.9689C40.0841 47.3731 39.345 47.5336 38.6308 47.4561C38.1575 47.4036 37.6951 47.2485 37.2799 46.9883L37.1803 47.0908C36.8924 47.3759 36.4301 47.3759 36.1422 47.0908C35.8572 46.8029 35.8572 46.3406 36.1422 46.0554L36.2447 45.9529C35.9845 45.5376 35.8294 45.0753 35.7796 44.6019C35.6994 43.8877 35.8626 43.1487 36.2641 42.5175C36.48 42.177 36.9312 42.0773 37.2717 42.2932C37.6095 42.5091 37.7119 42.9604 37.4932 43.3008C37.2745 43.6441 37.1887 44.0482 37.233 44.4441C37.2468 44.5852 37.28 44.7292 37.3327 44.8649L39.7272 42.4705L39.3921 42.1355C39.1071 41.8503 39.1071 41.3853 39.3921 41.1001C39.6773 40.8123 40.1424 40.8123 40.4276 41.1001L40.7625 41.4351L41.28 40.9173Z" fill="#047297"/>
<path d="M11.9452 8.77251C11.9452 8.36831 12.2718 8.04175 12.676 8.04175C13.083 8.04175 13.4096 8.36841 13.4096 8.77251V14.8074L15.9703 19.6102C16.1613 19.9645 16.0256 20.4074 15.6713 20.5957C15.317 20.7867 14.8741 20.651 14.6831 20.2967L12.676 16.5346L10.6691 20.2966C10.4808 20.6509 10.0379 20.7866 9.68354 20.5956C9.32641 20.4073 9.1935 19.9644 9.38178 19.6101L11.9452 14.8073V8.77251ZM34.1105 20.2967C33.9195 20.651 33.4793 20.7867 33.1222 20.5957C32.7679 20.4074 32.6323 19.9645 32.8233 19.6102L35.3839 14.8074V8.77251C35.3839 8.36831 35.7133 8.04175 36.1175 8.04175C36.5217 8.04175 36.8483 8.36841 36.8483 8.77251V14.8074L39.4117 19.6102C39.5999 19.9645 39.467 20.4074 39.1099 20.5957C38.7556 20.7867 38.3126 20.651 38.1245 20.2967L36.1175 16.5347L34.1105 20.2967Z" fill="#1480AE"/>
<path fill-rule="evenodd" clip-rule="evenodd" d="M12.6757 22.5198C11.059 22.5198 9.6749 21.6117 8.91084 20.305C8.59248 19.7624 8.85547 19.588 9.37315 19.588H15.981C16.4986 19.588 16.7616 19.7624 16.4433 20.305C15.6793 21.6117 14.2951 22.5198 12.6757 22.5198ZM36.1172 22.5198C34.4978 22.5198 33.1137 21.6117 32.3496 20.305C32.0312 19.7624 32.2942 19.588 32.8146 19.588H39.4196C39.9373 19.588 40.2003 19.7624 39.8819 20.305C39.1179 21.6117 37.7365 22.5198 36.1172 22.5198Z" fill="#B7D8FB"/>
<path fill-rule="evenodd" clip-rule="evenodd" d="M12.6759 22.5198C12.2523 22.5198 11.8427 22.4561 11.4551 22.3398C12.5402 22.0131 13.4399 21.2685 14.0019 20.305C14.3202 19.7624 14.0572 19.588 13.5396 19.588H15.9812C16.4988 19.588 16.7618 19.7624 16.4435 20.305C15.6795 21.6117 14.2953 22.5198 12.6759 22.5198ZM36.1174 22.5198C35.6911 22.5198 35.2814 22.4561 34.8966 22.3398C35.979 22.0131 36.8787 21.2685 37.4406 20.305C37.759 19.7624 37.496 19.588 36.9783 19.588H39.4198C39.9375 19.588 40.2005 19.7624 39.8821 20.305C39.1181 21.6117 37.7367 22.5198 36.1174 22.5198Z" fill="#89C8FE"/>
</g>
<defs>
<clipPath id="clip0_265_4304">
<rect width="50" height="50" fill="white"/>
</clipPath>
</defs>
</svg>
