<svg width="50" height="50" viewBox="0 0 50 50" fill="none" xmlns="http://www.w3.org/2000/svg">
<path d="M33.5938 7.03125H44.5312V13.2812H33.5938V7.03125Z" fill="#FFF176"/>
<path d="M33.5938 13.2812H44.5312V19.5312H33.5938V13.2812Z" fill="#65C7EA"/>
<path d="M33.5938 19.5312H44.5312V25.7812H33.5938V19.5312Z" fill="#55FB9B"/>
<path d="M22.6562 7.03125H33.5938V13.2812H22.6562V7.03125Z" fill="#55FB9B"/>
<path d="M22.6562 13.2812H33.5938V19.5312H22.6562V13.2812Z" fill="#FFF176"/>
<path d="M22.6562 19.5312H33.5938V25.7812H22.6562V19.5312Z" fill="#65C7EA"/>
<path d="M47.6562 22.6562L41.7188 39.8125C41.0625 41.7031 39.2812 42.9688 37.2812 42.9688H11.9844C8.21875 42.9688 4.98438 40.2656 4.29688 36.5469L2.34375 25.7812H34.375L35.9375 22.6562H47.6562Z" fill="#FF8A80"/>
<path d="M44.9829 22.6562L43.1204 28.0375C41.1595 33.7016 35.8235 37.5 29.8298 37.5H4.56104C5.58447 40.7125 8.55166 42.9688 11.9829 42.9688H37.2798C39.2798 42.9688 41.061 41.7031 41.7173 39.8125L47.6548 22.6562H44.9829Z" fill="#F27670"/>
<path d="M34.0625 28.125L35.625 25H46.8453L47.6562 22.6562H35.9375L34.375 25.7812H2.34375L2.76875 28.125H34.0625Z" fill="#FFADA9"/>
<path d="M44.5312 42.9688C42.375 42.9688 41.3281 42.1562 40.625 40.625C39.875 42.1562 38.875 42.9688 36.7188 42.9688C34.5625 42.9688 33.5938 42.1406 32.8125 40.625C32.0625 42.1562 31.0625 42.9688 28.9062 42.9688C26.75 42.9688 25.7812 42.1406 25 40.625C24.2656 42.1562 23.25 42.9688 21.0938 42.9688C19.7516 42.9688 18.8219 42.6359 18.1516 42.025C17.7656 41.6625 17.4563 41.1984 17.1875 40.625C16.9156 41.1906 16.6047 41.6578 16.2125 42.0234C15.5453 42.6344 14.625 42.9688 13.2812 42.9688C11.9375 42.9688 11.0062 42.6344 10.3359 42.0234C9.94375 41.6578 9.63594 41.1906 9.375 40.625C8.6875 42.1094 7.625 42.9688 5.46875 42.9688C3.3125 42.9688 2.26562 42.1562 1.5625 40.625V44.4875C1.5625 45.0938 1.7125 45.7047 2.06875 46.1953C2.76406 47.1547 3.77344 47.6562 5.46875 47.6562C7.625 47.6562 8.6875 46.7969 9.375 45.3125C9.63594 45.8781 9.94375 46.3453 10.3359 46.7109C11.0062 47.3219 11.9375 47.6562 13.2812 47.6562C14.625 47.6562 15.5453 47.3219 16.2125 46.7109C16.6047 46.3453 16.9156 45.8781 17.1875 45.3125C17.4563 45.8859 17.7656 46.35 18.1516 46.7125C18.8219 47.3219 19.7516 47.6562 21.0938 47.6562C23.25 47.6562 24.2656 46.8438 25 45.3125C25.7812 46.8281 26.75 47.6562 28.9062 47.6562C31.0625 47.6562 32.0625 46.8438 32.8125 45.3125C33.5938 46.8281 34.5625 47.6562 36.7188 47.6562C38.875 47.6562 39.875 46.8438 40.625 45.3125C41.3281 46.8438 42.375 47.6562 44.5312 47.6562C46.2266 47.6562 47.2359 47.1547 47.9313 46.1953C48.2875 45.7047 48.4375 45.0922 48.4375 44.4875V40.625C47.7344 42.1562 46.6875 42.9688 44.5312 42.9688Z" fill="#80D8FF"/>
<path d="M5.46875 17.9688H16.4062V25.7812H5.46875V17.9688Z" fill="#ECEFF1"/>
<path d="M5.46875 10.1562H13.2812V14.8438H5.46875V10.1562Z" fill="white"/>
<path d="M3.90625 14.8438H17.9688V17.9688H3.90625V14.8438Z" fill="white"/>
<path d="M44.5312 23.4375C44.1 23.4375 43.75 23.0875 43.75 22.6562V20.3125H35.9375C35.5063 20.3125 35.1562 19.9625 35.1562 19.5312C35.1562 19.1 35.5063 18.75 35.9375 18.75H44.5312C44.9625 18.75 45.3125 19.1 45.3125 19.5312V22.6562C45.3125 23.0875 44.9625 23.4375 44.5312 23.4375Z" fill="#455A64"/>
<path d="M33.5938 23.4375C33.1625 23.4375 32.8125 23.0875 32.8125 22.6562V20.3125H25C24.5688 20.3125 24.2188 19.9625 24.2188 19.5312C24.2188 19.1 24.5688 18.75 25 18.75H33.5938C34.025 18.75 34.375 19.1 34.375 19.5312V22.6562C34.375 23.0875 34.025 23.4375 33.5938 23.4375Z" fill="#455A64"/>
<path d="M44.5312 17.9688C44.1 17.9688 43.75 17.6188 43.75 17.1875V14.0625H35.9375C35.5063 14.0625 35.1562 13.7125 35.1562 13.2812C35.1562 12.85 35.5063 12.5 35.9375 12.5H44.5312C44.9625 12.5 45.3125 12.85 45.3125 13.2812V17.1875C45.3125 17.6188 44.9625 17.9688 44.5312 17.9688Z" fill="#455A64"/>
<path d="M33.5938 17.9688C33.1625 17.9688 32.8125 17.6188 32.8125 17.1875V14.0625H25C24.5688 14.0625 24.2188 13.7125 24.2188 13.2812C24.2188 12.85 24.5688 12.5 25 12.5H33.5938C34.025 12.5 34.375 12.85 34.375 13.2812V17.1875C34.375 17.6188 34.025 17.9688 33.5938 17.9688Z" fill="#455A64"/>
<path d="M44.5312 21.0938C44.1 21.0938 43.75 20.7437 43.75 20.3125V7.8125H35.9375C35.5063 7.8125 35.1562 7.4625 35.1562 7.03125C35.1562 6.6 35.5063 6.25 35.9375 6.25H44.5312C44.9625 6.25 45.3125 6.6 45.3125 7.03125V20.3125C45.3125 20.7437 44.9625 21.0938 44.5312 21.0938Z" fill="#455A64"/>
<path d="M33.5938 23.4375C33.1625 23.4375 32.8125 23.0875 32.8125 22.6562V7.8125H25C24.5688 7.8125 24.2188 7.4625 24.2188 7.03125C24.2188 6.6 24.5672 6.25 25 6.25H33.5938C34.025 6.25 34.375 6.6 34.375 7.03125V22.6562C34.375 23.0875 34.025 23.4375 33.5938 23.4375Z" fill="#455A64"/>
<path d="M22.6562 25.7812C22.225 25.7812 21.875 25.4312 21.875 25V7.03125C21.875 6.6 22.225 6.25 22.6562 6.25C23.0875 6.25 23.4375 6.6 23.4375 7.03125V25C23.4375 25.4312 23.0875 25.7812 22.6562 25.7812Z" fill="#455A64"/>
<path d="M37.2812 43.75H36.8749C36.4437 43.75 36.0937 43.4 36.0937 42.9688C36.0937 42.5375 36.4437 42.1875 36.8749 42.1875H37.2812C38.9468 42.1875 40.4343 41.1297 40.9812 39.5562L46.5593 23.4375H36.4203L35.0734 26.1313C34.9406 26.3953 34.6703 26.5625 34.3749 26.5625H3.27964L5.06714 36.4078C5.26714 37.4922 5.70464 38.4906 6.36557 39.3703C6.62495 39.7156 6.55464 40.2047 6.20932 40.4641C5.86557 40.7234 5.37495 40.6547 5.11557 40.3078C4.32026 39.2484 3.77339 37.9969 3.52964 36.6891L1.57651 25.9203C1.53589 25.6922 1.59682 25.4578 1.74526 25.2797C1.89214 25.1031 2.11245 25 2.3437 25H33.8921L35.239 22.3063C35.3718 22.0422 35.6421 21.875 35.9374 21.875H47.6562C47.9093 21.875 48.1453 21.9969 48.2921 22.2031C48.439 22.4094 48.4765 22.6734 48.3937 22.9125L42.4562 40.0687C41.6921 42.2703 39.6124 43.75 37.2812 43.75Z" fill="#455A64"/>
<path d="M16.4062 26.5625H5.46875C5.0375 26.5625 4.6875 26.2125 4.6875 25.7812V17.9688C4.6875 17.5375 5.0375 17.1875 5.46875 17.1875C5.9 17.1875 6.25 17.5375 6.25 17.9688V25H15.625V17.9688C15.625 17.5375 15.975 17.1875 16.4062 17.1875C16.8375 17.1875 17.1875 17.5375 17.1875 17.9688V25.7812C17.1875 26.2125 16.8375 26.5625 16.4062 26.5625Z" fill="#455A64"/>
<path d="M16.4062 21.875H13.2812C12.85 21.875 12.5 21.525 12.5 21.0938C12.5 20.6625 12.85 20.3125 13.2812 20.3125H16.4062C16.8375 20.3125 17.1875 20.6625 17.1875 21.0938C17.1875 21.525 16.8375 21.875 16.4062 21.875Z" fill="#455A64"/>
<path d="M17.9688 18.75H10.1562C9.725 18.75 9.375 18.4 9.375 17.9688C9.375 17.5375 9.725 17.1875 10.1562 17.1875H17.1875V15.625H4.6875V17.1875H7.03125C7.4625 17.1875 7.8125 17.5375 7.8125 17.9688C7.8125 18.4 7.4625 18.75 7.03125 18.75H3.90625C3.475 18.75 3.125 18.4 3.125 17.9688V14.8438C3.125 14.4125 3.475 14.0625 3.90625 14.0625H17.9688C18.4 14.0625 18.75 14.4125 18.75 14.8438V17.9688C18.75 18.4 18.4 18.75 17.9688 18.75Z" fill="#455A64"/>
<path d="M40.625 29.6875H39.0625C38.6313 29.6875 38.2812 29.3375 38.2812 28.9062C38.2812 28.475 38.6313 28.125 39.0625 28.125H40.625C41.0563 28.125 41.4062 28.475 41.4062 28.9062C41.4062 29.3375 41.0563 29.6875 40.625 29.6875Z" fill="#455A64"/>
<path d="M10.1562 10.9375C9.725 10.9375 9.375 10.5875 9.375 10.1562V3.90625C9.375 3.475 9.725 3.125 10.1562 3.125C10.5875 3.125 10.9375 3.475 10.9375 3.90625V10.1562C10.9375 10.5875 10.5875 10.9375 10.1562 10.9375Z" fill="#455A64"/>
<path d="M7.03125 10.9375C6.6 10.9375 6.25 10.5875 6.25 10.1562V7.8125C6.25 7.38125 6.6 7.03125 7.03125 7.03125C7.4625 7.03125 7.8125 7.38125 7.8125 7.8125V10.1562C7.8125 10.5875 7.4625 10.9375 7.03125 10.9375Z" fill="#455A64"/>
<path d="M13.2812 15.625H5.46875C5.0375 15.625 4.6875 15.275 4.6875 14.8438V10.1562C4.6875 9.725 5.0375 9.375 5.46875 9.375H13.2812C13.7125 9.375 14.0625 9.725 14.0625 10.1562V14.8438C14.0625 15.275 13.7125 15.625 13.2812 15.625ZM6.25 14.0625H12.5V10.9375H6.25V14.0625Z" fill="#455A64"/>
<path d="M44.5313 48.4376C42.7422 48.4376 41.5125 47.9376 40.6203 46.8079C39.7219 47.9392 38.4953 48.4376 36.7188 48.4376C34.9563 48.4376 33.6828 47.9157 32.8031 46.8142C31.9078 47.9157 30.6406 48.4376 28.9063 48.4376C28.475 48.4376 28.125 48.0876 28.125 47.6563C28.125 47.2251 28.475 46.8751 28.9063 46.8751C30.8328 46.8751 31.5781 46.1188 32.1031 44.9845C32.2313 44.7063 32.4859 44.4954 32.8188 44.5313C33.125 44.5345 33.4031 44.7157 33.5266 44.997C34.1156 46.3313 35.0406 46.8751 36.7188 46.8751C38.6344 46.8751 39.3438 46.1782 39.9203 44.9751C40.05 44.7032 40.325 44.5313 40.625 44.5313C40.9266 44.5329 41.2031 44.7079 41.3313 44.9798C41.8953 46.1798 42.6016 46.8751 44.5313 46.8751C46.1094 46.8751 46.7359 46.4017 47.1063 45.9907C47.3969 45.6704 47.8891 45.6438 48.2094 45.9313C48.5313 46.2188 48.5578 46.7126 48.2688 47.0345C47.4094 47.9907 46.2219 48.4376 44.5313 48.4376Z" fill="#455A64"/>
<path d="M36.7188 43.7499C34.9438 43.7499 33.6906 43.2374 32.8016 42.1155C31.8953 43.2499 30.6703 43.7499 28.9062 43.7499C27.1453 43.7499 25.9453 43.2609 25.0234 42.1093C24.1406 43.2343 22.8844 43.7499 21.0938 43.7499C19.3047 43.7499 18.075 43.2499 17.1828 42.1202C16.2844 43.2515 15.0578 43.7499 13.2812 43.7499C11.5188 43.7499 10.2453 43.228 9.36562 42.1265C8.47031 43.228 7.20312 43.7499 5.46875 43.7499C5.0375 43.7499 4.6875 43.3999 4.6875 42.9687C4.6875 42.5374 5.0375 42.1874 5.46875 42.1874C7.39531 42.1874 8.14062 41.4312 8.66563 40.2968C8.79375 40.0187 9.07344 39.7937 9.38125 39.8437C9.6875 39.8468 9.96562 40.028 10.0891 40.3093C10.6781 41.6437 11.6031 42.1874 13.2812 42.1874C15.1969 42.1874 15.9062 41.4905 16.4828 40.2874C16.6125 40.0155 16.8875 39.8437 17.1875 39.8437H17.1891C17.4906 39.8452 17.7656 40.0202 17.8937 40.2921C18.4578 41.4921 19.1641 42.1874 21.0938 42.1874C23.0562 42.1874 23.75 41.4968 24.2875 40.3046C24.4109 40.0312 24.6797 39.8515 24.9797 39.8437C25.2797 39.8468 25.5578 39.9999 25.6953 40.2671C26.3359 41.5124 27.0391 42.1874 28.9062 42.1874C30.8062 42.1874 31.5188 41.489 32.1109 40.2812C32.2422 40.0124 32.5141 39.8437 32.8125 39.8437H32.8219C33.1234 39.8468 33.3953 40.0249 33.5219 40.2999C34.0578 41.4655 34.7797 42.1874 36.7188 42.1874C37.15 42.1874 37.5 42.5374 37.5 42.9687C37.5 43.3999 37.15 43.7499 36.7188 43.7499Z" fill="#455A64"/>
<path d="M2.40005 42.8405C2.2313 42.8405 2.06411 42.7765 1.92505 42.6374L1.81567 42.528C1.51099 42.2233 1.51099 41.728 1.81567 41.4233C2.12036 41.1187 2.61567 41.1187 2.92036 41.4233C3.22505 41.728 3.27974 42.278 2.97505 42.5827C2.80786 42.7499 2.60161 42.8405 2.40005 42.8405Z" fill="#455A64"/>
<path d="M10.1563 21.875H10C9.56875 21.875 9.21875 21.525 9.21875 21.0938C9.21875 20.6625 9.56875 20.3125 10 20.3125C10.4313 20.3125 10.8594 20.6625 10.8594 21.0938C10.8594 21.525 10.5875 21.875 10.1563 21.875Z" fill="#455A64"/>
<path d="M25.9375 48.4375H25.7813C25.35 48.4375 25 48.0875 25 47.6562C25 47.225 25.35 46.875 25.7813 46.875C26.2125 46.875 26.6406 47.225 26.6406 47.6562C26.6406 48.0875 26.3688 48.4375 25.9375 48.4375Z" fill="#455A64"/>
</svg>
