<svg width="45" height="44" viewBox="0 0 45 44" fill="none" xmlns="http://www.w3.org/2000/svg">
<path d="M29.0281 32.2864H16.8406C16.6251 32.2864 16.4184 32.372 16.2661 32.5244C16.1137 32.6767 16.0281 32.8834 16.0281 33.0989V42.8489C16.0281 43.0644 16.1137 43.271 16.2661 43.4234C16.4184 43.5758 16.6251 43.6614 16.8406 43.6614H29.0281C29.2436 43.6614 29.4502 43.5758 29.6026 43.4234C29.755 43.271 29.8406 43.0644 29.8406 42.8489V33.0989C29.8406 32.8834 29.755 32.6767 29.6026 32.5244C29.4502 32.372 29.2436 32.2864 29.0281 32.2864ZM28.2156 42.0364H17.6531V33.9114H22.1218V34.7239C22.1218 34.9394 22.2074 35.146 22.3598 35.2984C22.5122 35.4508 22.7188 35.5364 22.9343 35.5364C23.1498 35.5364 23.3565 35.4508 23.5088 35.2984C23.6612 35.146 23.7468 34.9394 23.7468 34.7239V33.9114H28.2156V42.0364Z" fill="white"/>
<path d="M43.6531 32.2864H31.4656C31.2501 32.2864 31.0434 32.372 30.8911 32.5244C30.7387 32.6767 30.6531 32.8834 30.6531 33.0989V42.8489C30.6531 43.0644 30.7387 43.271 30.8911 43.4234C31.0434 43.5758 31.2501 43.6614 31.4656 43.6614H43.6531C43.8686 43.6614 44.0752 43.5758 44.2276 43.4234C44.38 43.271 44.4656 43.0644 44.4656 42.8489V33.0989C44.4656 32.8834 44.38 32.6767 44.2276 32.5244C44.0752 32.372 43.8686 32.2864 43.6531 32.2864ZM42.8406 42.0364H32.2781V33.9114H36.7468V34.7239C36.7468 34.9394 36.8324 35.146 36.9848 35.2984C37.1372 35.4508 37.3438 35.5364 37.5593 35.5364C37.7748 35.5364 37.9815 35.4508 38.1338 35.2984C38.2862 35.146 38.3718 34.9394 38.3718 34.7239V33.9114H42.8406V42.0364Z" fill="white"/>
<path d="M43.6531 20.0989H31.4656C31.2501 20.0989 31.0434 20.1845 30.8911 20.3369C30.7387 20.4892 30.6531 20.6959 30.6531 20.9114V30.6614C30.6531 30.8769 30.7387 31.0835 30.8911 31.2359C31.0434 31.3883 31.2501 31.4739 31.4656 31.4739H43.6531C43.8686 31.4739 44.0752 31.3883 44.2276 31.2359C44.38 31.0835 44.4656 30.8769 44.4656 30.6614V20.9114C44.4656 20.6959 44.38 20.4892 44.2276 20.3369C44.0752 20.1845 43.8686 20.0989 43.6531 20.0989ZM42.8406 29.8489H32.2781V21.7239H36.7468V22.5364C36.7468 22.7519 36.8324 22.9585 36.9848 23.1109C37.1372 23.2633 37.3438 23.3489 37.5593 23.3489C37.7748 23.3489 37.9815 23.2633 38.1338 23.1109C38.2862 22.9585 38.3718 22.7519 38.3718 22.5364V21.7239H42.8406V29.8489Z" fill="white"/>
<path d="M31.3599 18.4495C31.4637 18.4221 31.561 18.3745 31.6462 18.3094C31.7315 18.2443 31.803 18.1629 31.8566 18.07C31.9102 17.9771 31.9449 17.8745 31.9587 17.7681C31.9725 17.6617 31.965 17.5536 31.9368 17.4501L31.2218 14.777L33.6593 12.7214L33.7243 12.6645C35.3481 10.9552 36.5622 8.89926 37.2749 6.65198C37.8372 4.87278 38.0712 3.00616 37.9656 1.14322C37.9544 0.947055 37.8725 0.761585 37.735 0.621161C37.5976 0.480737 37.4139 0.394875 37.2181 0.379474C35.3814 0.245967 33.5359 0.452551 31.7743 0.98885C29.4592 1.71029 27.3504 2.97507 25.6237 4.6776L23.5599 7.1151L18.7499 5.80698C18.9013 5.65474 18.9862 5.44881 18.9862 5.23416C18.9862 5.01951 18.9013 4.81358 18.7499 4.66135C18.6744 4.5852 18.5845 4.52475 18.4855 4.4835C18.3865 4.44225 18.2803 4.42101 18.1731 4.42101C18.0658 4.42101 17.9596 4.44225 17.8606 4.4835C17.7616 4.52475 17.6717 4.5852 17.5962 4.66135L17.0274 5.2301C16.9949 5.2715 16.9651 5.31492 16.9381 5.3601L13.2818 4.37698L13.5743 4.08448C13.6505 4.00894 13.7109 3.91908 13.7522 3.82007C13.7934 3.72106 13.8146 3.61486 13.8146 3.5076C13.8146 3.40034 13.7934 3.29414 13.7522 3.19513C13.7109 3.09612 13.6505 3.00626 13.5743 2.93073C13.4221 2.7794 13.2161 2.69446 13.0015 2.69446C12.7868 2.69446 12.5809 2.7794 12.4287 2.93073L11.4374 3.87323L4.44181 2.00447C4.26898 1.95674 4.08521 1.96751 3.91914 2.03511C3.75308 2.10272 3.61403 2.22335 3.52368 2.37823L1.63056 5.7501C1.5757 5.84206 1.53957 5.94396 1.52423 6.04993C1.50889 6.1559 1.51465 6.26386 1.54118 6.3676C1.56987 6.47204 1.61916 6.56968 1.68613 6.6548C1.75311 6.73991 1.83642 6.81078 1.93118 6.86323L16.6212 15.232L8.49618 24.7382L1.55743 23.9989C1.41168 23.9835 1.2645 24.0079 1.13147 24.0694C0.99845 24.1309 0.884539 24.2273 0.801806 24.3482L-0.327569 25.9895C-0.394227 26.0885 -0.43825 26.201 -0.456506 26.3189C-0.474761 26.4369 -0.466802 26.5574 -0.433194 26.672C-0.401108 26.786 -0.344486 26.8916 -0.267293 26.9814C-0.1901 27.0713 -0.0942035 27.1431 0.0136813 27.192L6.10743 29.9139L8.40681 32.2132L11.1287 38.307C11.1776 38.4149 11.2494 38.5108 11.3392 38.588C11.4291 38.6651 11.5347 38.7218 11.6487 38.7539C11.7213 38.7657 11.7954 38.7657 11.8681 38.7539C12.0325 38.753 12.1932 38.705 12.3312 38.6157L14.0131 37.4701C14.1353 37.3867 14.2325 37.2715 14.2941 37.1369C14.3557 37.0023 14.3793 36.8534 14.3624 36.7064L13.6231 29.7839L21.4474 23.097L23.1212 21.667L27.5087 29.3695C27.5618 29.4626 27.6327 29.5443 27.7175 29.6098C27.8023 29.6754 27.8992 29.7235 28.0027 29.7515C28.1061 29.7794 28.2141 29.7866 28.3204 29.7726C28.4266 29.7587 28.5291 29.7238 28.6218 29.6701C28.8077 29.5629 28.9436 29.3866 28.9999 29.1796C29.0562 28.9726 29.0284 28.7517 28.9224 28.5651L24.3806 20.6189L29.8487 15.947L30.3687 17.8726C30.424 18.0803 30.5594 18.2577 30.7452 18.3658C30.9309 18.4739 31.152 18.504 31.3599 18.4495ZM3.44243 5.8151L4.65306 3.7351L22.3656 8.46385L17.6937 13.9401L3.44243 5.8151ZM29.7756 13.8751L22.8124 19.8145L20.3749 21.8864L12.2499 28.8576C12.1498 28.944 12.0723 29.0536 12.0242 29.1768C11.9761 29.3 11.9587 29.4331 11.9737 29.5645L12.7049 36.4301L12.2256 36.7551L9.81243 31.4089C9.77105 31.3178 9.7132 31.2352 9.64181 31.1651L7.13118 28.6545C7.06288 28.5868 6.9831 28.5318 6.89556 28.492L1.56556 26.1032L1.89056 25.6239L8.76431 26.3551C8.89572 26.3701 9.0288 26.3527 9.15198 26.3046C9.27517 26.2564 9.38474 26.179 9.47118 26.0789L24.4374 8.52073L26.7612 5.80698C28.2875 4.30508 30.1514 3.19065 32.1968 2.55697C33.53 2.14373 34.9207 1.94623 36.3162 1.97197C36.3228 3.39711 36.1062 4.81449 35.6743 6.1726C35.0534 8.16414 33.9895 9.98917 32.5624 11.5107L29.7756 13.8751Z" fill="white"/>
<path d="M28.5568 10.9175L19.9362 18.3844C19.781 18.5276 19.6877 18.7256 19.6761 18.9364C19.6644 19.1473 19.7352 19.3544 19.8736 19.5139C20.0119 19.6734 20.207 19.7727 20.4173 19.7909C20.6277 19.8091 20.8369 19.7447 21.0006 19.6113L29.6212 12.1444C29.7764 12.0012 29.8697 11.8032 29.8814 11.5923C29.893 11.3815 29.8222 11.1744 29.6838 11.0149C29.5455 10.8554 29.3504 10.7561 29.1401 10.7379C28.9297 10.7197 28.7205 10.7841 28.5568 10.9175Z" fill="white"/>
<path d="M11.2993 25.8758L9.67426 27.5008C9.52293 27.653 9.43799 27.859 9.43799 28.0736C9.43799 28.2883 9.52293 28.4942 9.67426 28.6464C9.82427 28.7995 10.0287 28.8871 10.243 28.8902C10.3505 28.8897 10.4568 28.8679 10.5559 28.8261C10.6549 28.7843 10.7446 28.7232 10.8199 28.6464L12.4449 27.0214C12.578 26.866 12.6475 26.666 12.6396 26.4616C12.6317 26.2571 12.547 26.0631 12.4023 25.9184C12.2576 25.7737 12.0636 25.6889 11.8591 25.681C11.6546 25.6731 11.4547 25.7427 11.2993 25.8758Z" fill="white"/>
</svg>
