<svg width="56" height="56" viewBox="0 0 56 56" fill="none" xmlns="http://www.w3.org/2000/svg">
<path d="M43.75 28C44.3251 28 44.8634 27.718 45.1898 27.2446C46.4109 25.4775 52.5 16.449 52.5 12.25C52.5 7.42554 48.5745 3.5 43.75 3.5C38.9255 3.5 35 7.42554 35 12.25C35 16.449 41.0891 25.4775 42.3102 27.2446C42.6366 27.718 43.1749 28 43.75 28ZM40.25 12.25C40.25 10.3197 41.8197 8.75 43.75 8.75C45.6803 8.75 47.25 10.3197 47.25 12.25C47.25 14.1803 45.6803 15.75 43.75 15.75C41.8197 15.75 40.25 14.1803 40.25 12.25Z" fill="white"/>
<path d="M44.69 30.0235L25.44 17.7735C24.8658 17.4095 24.1343 17.4095 23.5601 17.7735L4.31012 30.0235C3.49493 30.5422 3.25482 31.624 3.7735 32.44C4.29217 33.2552 5.37311 33.4953 6.19 32.9766L7.00006 32.4612V50.7501C7.00006 51.7165 7.78363 52.5001 8.75006 52.5001H40.2501C41.2165 52.5001 42.0001 51.7165 42.0001 50.7501V32.4612L42.8101 32.9766C43.1015 33.162 43.4271 33.2501 43.7483 33.2501C44.3268 33.2501 44.8925 32.9638 45.2266 32.44C45.7453 31.624 45.5052 30.5422 44.69 30.0235ZM35.0001 41.8248C35.0001 43.1578 34.2601 44.3575 33.0672 44.9539L24.4998 49.5253L15.8936 44.9351C14.7409 44.3575 14.0001 43.1578 14.0001 41.8248V31.9138C14.0001 31.246 14.3802 30.6363 14.9799 30.3423L22.9346 26.4439C23.4183 26.203 23.9592 26.0748 24.5001 26.0748C25.0409 26.0748 25.5818 26.203 26.0655 26.4439L34.0249 30.3743C34.622 30.6692 35.0001 31.2775 35.0001 31.9434V41.8248Z" fill="white"/>
<path d="M25.2828 28.1846C24.7906 27.9385 24.2095 27.9385 23.7173 28.1846C23.7173 28.1846 16.6088 31.7614 16.5527 31.798L24.5 35.7716L32.4474 31.798C32.3913 31.7614 25.2828 28.1846 25.2828 28.1846Z" fill="white"/>
<path d="M15.75 42C15.75 42.6631 16.1243 43.2689 16.7173 43.5654L23.625 47.25V37.2909L15.75 33.3534V42Z" fill="white"/>
<path d="M25.375 47.25L32.2827 43.5654C32.8757 43.2689 33.25 42.6631 33.25 42V33.3534L25.375 37.2909V47.25Z" fill="white"/>
</svg>
