<svg width="61" height="61" viewBox="0 0 61 61" fill="none" xmlns="http://www.w3.org/2000/svg">
<g clip-path="url(#clip0_255_1530)">
<path d="M51.7134 18.8763C53.6622 22.4259 54.6898 26.4119 54.6898 30.5C54.6898 30.8797 54.6603 31.2614 54.6435 31.6432C55.0021 31.5885 55.3671 31.5517 55.7415 31.5517C56.0833 31.5517 56.4177 31.5833 56.7469 31.6285C56.7627 31.252 56.7932 30.8755 56.7932 30.5C56.7932 25.7062 55.4849 21.046 53.028 16.9633C52.7209 17.5049 52.3791 18.0276 51.9921 18.5198L51.7134 18.8763Z" fill="white"/>
<path d="M20.3719 8.53471C23.4535 7.10752 26.7454 6.3629 30.1803 6.31978C30.439 5.58988 30.7598 4.89049 31.1426 4.2279C27.0651 4.1343 22.9255 5.00407 19.2297 6.75519C19.6914 7.28737 20.0774 7.8858 20.3719 8.53471Z" fill="white"/>
<path d="M9.57389 18.3747L8.21821 16.5668C5.78768 20.4455 4.42675 24.8617 4.24585 29.4483H6.3493C6.51758 25.5296 7.61452 21.7476 9.57389 18.3747Z" fill="white"/>
<path d="M47.0383 48.1427L47.6126 50.4396C49.1796 49.0945 50.5774 47.5779 51.7869 45.9099L50.4596 44.1409C49.4626 45.5954 48.3225 46.9385 47.0383 48.1427Z" fill="white"/>
<path d="M29.4483 31.5518H21.0345V39.5638L15.7759 36.9345L10.5173 39.5638V31.5518H2.10352V52.5862H4.92739C6.11163 50.1031 8.63998 48.3793 11.569 48.3793C14.4981 48.3793 17.0264 50.1031 18.2107 52.5862H29.4483V31.5518Z" fill="white"/>
<path d="M18.8469 54.6896C18.8964 55.0345 18.9311 55.3837 18.9311 55.7413C18.9311 56.0989 18.8964 56.4481 18.8469 56.793H29.5324C29.483 56.4481 29.4483 56.0989 29.4483 55.7413C29.4483 55.3837 29.483 55.0345 29.5324 54.6896H18.8469Z" fill="white"/>
<path d="M44.4028 46.2759H37.8621C36.7021 46.2759 35.7587 45.3325 35.7587 44.1724V42.069C35.7587 40.9089 36.7021 39.9655 37.8621 39.9655H42.8252L42.4981 38.6582C42.3814 38.1902 41.9617 37.8621 41.4779 37.8621H31.5518V50.5995C32.8896 49.2312 34.7511 48.3793 36.8104 48.3793C39.7394 48.3793 42.2678 50.1031 43.452 52.5862H45.9804L44.4028 46.2759Z" fill="white"/>
<path d="M0 54.6896V56.793H4.29103C4.2416 56.4481 4.20689 56.0989 4.20689 55.7413C4.20689 55.3837 4.2416 55.0345 4.29103 54.6896H0Z" fill="white"/>
<path d="M11.5689 50.4828C8.66932 50.4828 6.3103 52.8418 6.3103 55.7414C6.3103 58.641 8.66932 61 11.5689 61C14.4685 61 16.8275 58.641 16.8275 55.7414C16.8275 52.8418 14.4685 50.4828 11.5689 50.4828ZM11.5689 57.8449C10.4068 57.8449 9.46548 56.9036 9.46548 55.7414C9.46548 54.5793 10.4068 53.638 11.5689 53.638C12.7311 53.638 13.6724 54.5793 13.6724 55.7414C13.6724 56.9036 12.7311 57.8449 11.5689 57.8449Z" fill="white"/>
<path d="M12.6206 36.1604L15.7758 34.5828L18.9309 36.1604V31.5518H12.6206V36.1604Z" fill="white"/>
<path d="M36.8104 50.4828C33.9108 50.4828 31.5518 52.8418 31.5518 55.7414C31.5518 58.641 33.9108 61 36.8104 61C39.71 61 42.069 58.641 42.069 55.7414C42.069 52.8418 39.71 50.4828 36.8104 50.4828ZM36.8104 57.8449C35.6482 57.8449 34.7069 56.9036 34.7069 55.7414C34.7069 54.5793 35.6482 53.638 36.8104 53.638C37.9725 53.638 38.9138 54.5793 38.9138 55.7414C38.9138 56.9036 37.9725 57.8449 36.8104 57.8449Z" fill="white"/>
<path d="M37.8621 44.1724H43.8769L43.351 42.069H37.8621V44.1724Z" fill="white"/>
<path d="M44.1725 55.7413C44.1725 56.0989 44.1378 56.4481 44.0884 56.793H46.276V54.6896H44.0884C44.1378 55.0345 44.1725 55.3837 44.1725 55.7413Z" fill="white"/>
<path d="M13.6724 20.3329L17.8793 14.723C18.5577 13.8207 18.9311 12.6995 18.9311 11.5689C18.9311 8.66932 16.572 6.3103 13.6724 6.3103C10.7728 6.3103 8.41382 8.66932 8.41382 11.5689C8.41382 12.6995 8.78718 13.8207 9.46554 14.723L13.6724 20.3329ZM13.6724 9.46548C14.8346 9.46548 15.7759 10.4068 15.7759 11.5689C15.7759 12.7311 14.8346 13.6724 13.6724 13.6724C12.5103 13.6724 11.569 12.7311 11.569 11.5689C11.569 10.4068 12.5103 9.46548 13.6724 9.46548Z" fill="white"/>
<path d="M55.7413 33.6552C52.8417 33.6552 50.4827 36.0142 50.4827 38.9138C50.4827 40.0444 50.856 41.1655 51.5344 42.0679L55.7413 47.6778L59.9482 42.0679C60.6265 41.1655 60.9999 40.0444 60.9999 38.9138C60.9999 36.0142 58.6409 33.6552 55.7413 33.6552ZM55.7413 41.0172C54.5791 41.0172 53.6378 40.0759 53.6378 38.9138C53.6378 37.7516 54.5791 36.8103 55.7413 36.8103C56.9034 36.8103 57.8447 37.7516 57.8447 38.9138C57.8447 40.0759 56.9034 41.0172 55.7413 41.0172Z" fill="white"/>
<path d="M42.069 27.7466L50.3387 17.2199C51.788 15.3762 52.5862 13.0687 52.5862 10.7223V10.5172C52.5862 4.71804 47.8682 0 42.069 0C36.2698 0 31.5518 4.71804 31.5518 10.5172V10.7223C31.5518 13.0677 32.35 15.3762 33.7993 17.2199L42.069 27.7466ZM42.069 3.15517C46.135 3.15517 49.4311 6.45128 49.4311 10.5172C49.4311 14.5832 46.135 17.8793 42.069 17.8793C38.003 17.8793 34.7069 14.5832 34.7069 10.5172C34.7069 6.45128 38.003 3.15517 42.069 3.15517Z" fill="white"/>
<path d="M23.1379 25.2413H25.2414V27.3448H23.1379V25.2413Z" fill="white"/>
<path d="M27.3447 25.2413H29.4482V27.3448H27.3447V25.2413Z" fill="white"/>
<path d="M31.5518 25.2413H33.6552V27.3448H31.5518V25.2413Z" fill="white"/>
</g>
<defs>
<clipPath id="clip0_255_1530">
<rect width="61" height="61" fill="white"/>
</clipPath>
</defs>
</svg>
