<svg width="42" height="50" viewBox="0 0 42 50" fill="none" xmlns="http://www.w3.org/2000/svg">
<g clip-path="url(#clip0_255_1991)">
<path d="M23.0998 0C13.3726 0 5.45979 7.78179 5.45979 17.346C5.45979 26.9102 13.3726 34.692 23.0998 34.692C32.827 34.692 40.7398 26.9102 40.7398 17.346C40.7398 7.78179 32.827 0 23.0998 0ZM23.0998 33.04C14.2991 33.04 7.13983 25.9999 7.13983 17.346C7.13983 8.69207 14.2992 1.65203 23.0998 1.65203C31.9004 1.65203 39.0599 8.69197 39.0599 17.346C39.0599 26 31.9005 33.04 23.0998 33.04Z" fill="white"/>
<path d="M26.2054 17.5425C26.1281 16.9717 25.7744 16.4637 25.2578 16.1829C24.7429 15.902 24.144 15.878 23.6165 16.1151V16.116C22.2566 16.7256 20.632 16.206 19.918 14.929C18.8579 13.0309 17.0721 12.5758 17.0426 12.57C14.7485 11.8696 13.7263 11.3756 13.2769 11.0947C13.3877 11.0584 13.5272 11.0179 13.7011 10.9783C14.2899 10.8411 14.9249 10.7866 15.5894 10.8221C18.9545 10.975 20.6546 8.62825 21.0889 7.35546C21.7013 5.55891 20.0498 2.3499 19.3114 1.05389L18.988 0.485596L18.3505 0.663218C12.3092 2.33916 7.58416 7.0672 6.01841 13.0028L5.86052 13.5992L6.39641 13.9171C7.94621 14.8389 9.50861 14.7795 9.82863 14.7547C10.6636 14.7613 11.3145 15.0058 11.8185 15.5039C12.95 16.6207 13.0634 18.7286 13.06 19.5827C13.0567 20.4526 13.1373 21.2323 13.3078 21.9674C14.3267 26.3519 17.3407 26.7252 18.3369 26.7252C18.4368 26.7252 18.5166 26.7219 18.572 26.717C19.9899 26.7054 21.2625 25.9322 21.8993 24.6908C22.2597 23.9887 22.82 23.3816 23.518 22.9356C26.2541 21.1885 26.3759 18.8062 26.2054 17.5425ZM22.6035 21.5502C21.6568 22.1548 20.8949 22.9833 20.401 23.9464C20.0465 24.6361 19.335 25.0648 18.5429 25.0648L18.4245 25.0731C18.3203 25.0904 15.8272 25.391 14.9469 21.5989C14.8049 20.9885 14.7377 20.331 14.7411 19.5885C14.7461 18.2718 14.5285 15.8376 13.0098 14.3376C12.1791 13.5182 11.098 13.1028 9.79516 13.1028L9.70775 13.1077C9.69683 13.1094 8.82073 13.1853 7.82612 12.7823C9.33812 7.92124 13.218 4.04153 18.164 2.44486C19.0586 4.14887 19.755 6.06768 19.4946 6.82928C19.487 6.85406 18.6109 9.33118 15.6742 9.17186C14.8493 9.13382 14.0572 9.19751 13.3147 9.3701C12.8266 9.48325 11.3398 9.82766 11.2996 10.9593C11.2651 11.9282 12.1303 12.7996 16.5832 14.1584C16.6303 14.1708 17.7508 14.4797 18.4455 15.7245C19.5795 17.7565 22.1574 18.5899 24.3145 17.6177C24.3549 17.6011 24.3993 17.6036 24.4447 17.6284C24.4708 17.6417 24.5296 17.6821 24.5405 17.7598C24.7514 19.3193 24.0995 20.5946 22.6035 21.5502Z" fill="white"/>
<path d="M40.1343 12.7826L39.9427 12.078L39.2086 12.1763C35.5705 12.6654 33.8611 12.0492 33.2949 11.76C32.4146 11.3123 31.4486 11.2694 30.648 11.6476C29.5518 12.1606 28.3246 13.4772 28.7068 16.8771C28.7244 16.9804 29.1637 19.4229 31.8996 20.7799C32.7471 21.2004 33.1948 22.1164 32.9882 23.0076C32.3649 25.6979 32.973 27.8967 34.7488 29.367L35.3562 29.87L35.9014 29.3026C39.0211 26.0523 40.7398 21.7952 40.7398 17.314C40.7399 15.7851 40.5358 14.2603 40.1343 12.7826ZM35.2631 27.5267C34.4407 26.4967 34.2265 25.1048 34.6281 23.3752C35.0061 21.7413 34.1963 20.0679 32.6574 19.3047C30.7087 18.3374 30.3785 16.6705 30.3726 16.6516C30.224 15.3316 30.2777 13.6507 31.373 13.1377C31.5066 13.075 31.6578 13.0436 31.8174 13.0436C32.0425 13.0436 32.2853 13.1055 32.5239 13.2269C33.3454 13.6449 35.2051 14.2585 38.6827 13.9018C38.933 15.0234 39.0598 16.1666 39.0598 17.3139C39.0599 21.0822 37.7175 24.677 35.2631 27.5267Z" fill="white"/>
<path d="M34.3727 4.00559C33.1093 2.97228 31.7041 2.11737 30.1937 1.46477L29.7175 1.2583L28.9548 1.88438C28.0669 2.56748 25.3629 4.64484 26.607 7.00474L26.7187 7.16833C27.1966 7.70768 28.2181 8.41391 29.4881 8.41391C30.0996 8.41391 30.7683 8.24955 31.4604 7.82413C31.9014 7.55407 32.2946 7.18237 32.6969 6.65531C32.9052 6.38273 33.3 5.96147 33.9426 5.53111L35.3043 4.76786L34.3727 4.00559ZM31.3545 5.66256C31.0799 6.02274 30.8312 6.26386 30.5724 6.42251C29.3024 7.20056 28.3196 6.4076 28.0499 6.14741C27.8903 5.79062 27.7365 4.9241 29.9852 3.18785C30.8361 3.58849 31.6484 4.06173 32.4111 4.60118C31.8996 5.01412 31.5629 5.39085 31.3545 5.66256Z" fill="white"/>
<path d="M27.7367 33.061C27.383 32.3342 27.1277 31.4933 26.9782 30.5624C26.6783 28.6973 25.0461 27.3435 23.099 27.3435C20.096 27.3435 17.6508 29.7331 17.6247 32.6794L17.4971 33.8094L18.1766 34.0027C19.7818 34.4603 21.4374 34.6916 23.0998 34.6916C24.4615 34.6916 25.8315 34.5339 27.1722 34.2217L28.1869 33.9854L27.7367 33.061ZM19.3073 32.5894C19.3812 30.5955 21.0537 28.9954 23.099 28.9954C24.1969 28.9954 25.1512 29.7802 25.3183 30.8209C25.4317 31.5255 25.5989 32.1904 25.8181 32.8091C23.6467 33.1783 21.4343 33.1007 19.3073 32.5894Z" fill="white"/>
<path d="M39.6957 31.6735C39.3916 31.3283 38.8607 31.2903 38.5104 31.5893C34.8069 34.7389 30.9773 37.9958 23.0997 37.9958C11.5203 37.9958 2.09973 28.7323 2.09973 17.3459C2.09973 12.1091 3.77219 7.44045 6.93558 3.84406C7.23886 3.49879 7.20018 2.97676 6.84993 2.6794C6.49969 2.3804 5.96793 2.41921 5.66465 2.76361C2.23341 6.66395 0.4198 11.7067 0.4198 17.3458C0.4198 29.6432 10.5939 39.6478 23.0998 39.6478C31.6031 39.6478 35.6729 36.1868 39.61 32.8382C39.9603 32.5408 39.9997 32.0188 39.6957 31.6735Z" fill="white"/>
<path d="M8.5738 4.37208L5.21384 1.06811C4.88535 0.745199 4.35448 0.745199 4.02609 1.06811C3.6977 1.39112 3.6977 1.91315 4.02609 2.23606L7.38606 5.54003C7.54986 5.7011 7.76494 5.78202 7.97993 5.78202C8.19502 5.78202 8.41 5.7011 8.5738 5.54003C8.90229 5.21712 8.90229 4.69499 8.5738 4.37208Z" fill="white"/>
<path d="M41.3337 33.2824L37.9737 29.9783C37.6452 29.6554 37.1143 29.6553 36.7859 29.9783C36.4575 30.3013 36.4575 30.8233 36.7859 31.1463L40.1459 34.4502C40.3097 34.6113 40.5248 34.6922 40.7398 34.6922C40.9549 34.6922 41.1699 34.6113 41.3337 34.4502C41.6621 34.1273 41.6621 33.6053 41.3337 33.2824Z" fill="white"/>
<path d="M30.66 44.604H15.54C15.0763 44.604 14.7 44.9732 14.7 45.43V48.7339C14.7 49.1907 15.0763 49.5599 15.54 49.5599H30.66C31.1236 49.5599 31.4999 49.1907 31.4999 48.7339V45.43C31.5 44.9732 31.1237 44.604 30.66 44.604ZM29.82 47.908H16.38V46.2559H29.82V47.908Z" fill="white"/>
<path d="M29.8198 44.604C26.5774 44.604 23.9399 42.0096 23.9399 38.8221C23.9399 38.3653 23.5635 37.9961 23.0999 37.9961C22.6363 37.9961 22.2599 38.3653 22.2599 38.8221C22.2599 42.0096 19.6223 44.604 16.38 44.604C15.9163 44.604 15.54 44.9732 15.54 45.43C15.54 45.8868 15.9163 46.256 16.38 46.256H29.8199C30.2836 46.256 30.6599 45.8868 30.6599 45.43C30.6599 44.9732 30.2835 44.604 29.8198 44.604ZM21.1266 44.604C21.9406 43.9572 22.6151 43.1469 23.0998 42.2259C23.5845 43.1469 24.259 43.9572 25.073 44.604H21.1266Z" fill="white"/>
</g>
<defs>
<clipPath id="clip0_255_1991">
<rect width="42" height="49.56" fill="white"/>
</clipPath>
</defs>
</svg>
