<svg width="51" height="51" viewBox="0 0 51 51" fill="none" xmlns="http://www.w3.org/2000/svg">
<g clip-path="url(#clip0_255_2038)">
<path d="M10.9565 12.5513C10.4067 12.5513 9.96043 12.9975 9.96043 13.5474C9.96043 14.0972 10.4067 14.5435 10.9565 14.5435C11.5064 14.5435 11.9526 14.0972 11.9526 13.5474C11.9526 12.9975 11.5064 12.5513 10.9565 12.5513Z" fill="white"/>
<path d="M46.9086 21.0703L45.4673 18.1877C44.9577 17.1685 43.9336 16.5355 42.7945 16.5355H34.4635V9.56314C34.4635 7.9155 33.123 6.57495 31.4753 6.57495H2.98818C1.34044 6.57495 0 7.9154 0 9.56314V35.4605C0 37.1081 1.34044 38.4487 2.98818 38.4487H5.97637C5.97637 39.9781 6.5546 41.3747 7.50298 42.4329H0.996095C0.445952 42.4329 0 42.8789 0 43.429C0 43.979 0.445952 44.4251 0.996095 44.4251H50.002C50.5521 44.4251 50.9981 43.979 50.9981 43.429C50.9981 42.8789 50.5521 42.4329 50.002 42.4329H47.4792C48.4277 41.3746 49.0059 39.9781 49.0059 38.4487C49.0059 38.3919 49.0032 38.3354 49.0016 38.2788C50.1631 37.8688 50.998 36.7606 50.998 35.4605V29.9543C50.998 28.7919 51.2281 29.8771 46.9086 21.0703ZM45.4021 22.5118L48.3903 28.4881H38.4477V22.5118H45.4021ZM1.99209 30.4802H3.98418V32.4723H1.99209V30.4802ZM11.9526 42.4329C9.75575 42.4329 7.96846 40.6455 7.96846 38.4487C7.96846 38.1773 7.99535 37.9103 8.04914 37.6506C8.42377 35.8045 10.0654 34.4644 11.9526 34.4644C13.8398 34.4644 15.4816 35.8044 15.8561 37.6506C15.8564 37.6521 15.8567 37.6534 15.857 37.6548C15.91 37.9102 15.9368 38.1773 15.9368 38.4487C15.9368 40.6456 14.1495 42.4329 11.9526 42.4329ZM11.9526 32.4723C9.40054 32.4723 7.14827 34.1072 6.31793 36.4565H2.98818C2.43894 36.4565 1.99209 36.0096 1.99209 35.4604V34.4643H4.98027C5.53042 34.4643 5.97637 34.0183 5.97637 33.4682V29.484C5.97637 28.934 5.53042 28.4879 4.98027 28.4879H1.99209V9.56314C1.99209 9.01389 2.43894 8.56704 2.98818 8.56704H31.4753C32.0245 8.56704 32.4714 9.01389 32.4714 9.56314C32.4714 10.3041 32.4714 34.0679 32.4714 36.4566H17.5868C16.755 34.106 14.5036 32.4723 11.9526 32.4723ZM16.4023 42.4329C17.3508 41.3746 17.9289 39.9781 17.9289 38.4487C18.6937 38.4487 36.7275 38.4487 37.0531 38.4487C37.0531 39.9781 37.6314 41.3747 38.5797 42.4329H16.4023ZM43.0295 42.4329C40.8326 42.4329 39.0453 40.6455 39.0453 38.4487C39.0453 38.1773 39.0722 37.9103 39.126 37.6506C39.5006 35.8045 41.1423 34.4644 43.0295 34.4644C44.9167 34.4644 46.5585 35.8044 46.933 37.6506C46.9333 37.6521 46.9336 37.6534 46.9339 37.6548C46.9869 37.9102 47.0137 38.1773 47.0137 38.4487C47.0138 40.6456 45.2264 42.4329 43.0295 42.4329ZM49.0059 35.4605C49.0059 35.7918 48.8426 36.085 48.5931 36.2662C47.7094 34.0182 45.5111 32.4724 43.0295 32.4724C40.4774 32.4724 38.2251 34.1073 37.3948 36.4566H34.4634V18.5276H42.7944C43.1741 18.5276 43.5155 18.7388 43.6854 19.0785L44.406 20.5197H37.4517C36.9015 20.5197 36.4556 20.9657 36.4556 21.5158V29.4842C36.4556 30.0343 36.9015 30.4803 37.4517 30.4803H49.0059V35.4605Z" fill="white"/>
<path d="M27.4911 12.5513H14.9408C14.3907 12.5513 13.9447 12.9973 13.9447 13.5474C13.9447 14.0974 14.3907 14.5435 14.9408 14.5435H27.4911C28.0412 14.5435 28.4872 14.0974 28.4872 13.5474C28.4872 12.9973 28.0411 12.5513 27.4911 12.5513Z" fill="white"/>
<path d="M27.4911 16.5356H18.925C18.3748 16.5356 17.9289 16.9817 17.9289 17.5317C17.9289 18.0818 18.3748 18.5278 18.925 18.5278H27.4911C28.0412 18.5278 28.4872 18.0818 28.4872 17.5317C28.4872 16.9817 28.0411 16.5356 27.4911 16.5356Z" fill="white"/>
<path d="M43.0294 36.4565C41.9309 36.4565 41.0374 37.3502 41.0374 38.4486C41.0374 39.5471 41.931 40.4407 43.0294 40.4407C44.1279 40.4407 45.0215 39.547 45.0215 38.4486C45.0215 37.3501 44.1279 36.4565 43.0294 36.4565Z" fill="white"/>
<path d="M11.9526 36.4565C10.8541 36.4565 9.96053 37.3502 9.96053 38.4486C9.96053 39.5471 10.8542 40.4407 11.9526 40.4407C13.0511 40.4407 13.9447 39.547 13.9447 38.4486C13.9447 37.3501 13.0511 36.4565 11.9526 36.4565Z" fill="white"/>
</g>
<defs>
<clipPath id="clip0_255_2038">
<rect width="51" height="51" fill="white"/>
</clipPath>
</defs>
</svg>
