<svg width="45" height="45" viewBox="0 0 45 45" fill="none" xmlns="http://www.w3.org/2000/svg">
<path fill-rule="evenodd" clip-rule="evenodd" d="M3.62916 21.8597C3.32559 22.3244 2.60638 22.3491 2.30052 21.7792L0.371906 18.4693C0.160498 18.1043 0.285008 17.637 0.65002 17.4256C1.01503 17.2142 1.48235 17.3387 1.69376 17.7037L2.37555 18.8737C3.65089 8.24203 12.7027 0.105347 23.5584 0.105347C35.3418 0.105347 44.8945 9.65795 44.8945 21.4415C44.8945 27.1594 42.6192 32.5545 38.6453 36.5284C38.3463 36.8274 37.8616 36.8274 37.5626 36.5284C37.2636 36.2295 37.2636 35.7447 37.5626 35.4457C45.2877 27.7207 45.3117 15.1863 37.5626 7.43726C29.8284 -0.29699 17.2883 -0.29699 9.55405 7.43726C6.50227 10.489 4.44226 14.5324 3.89761 19.0424L4.77951 17.9162C5.03877 17.5842 5.51815 17.5253 5.85024 17.7846C6.18223 18.0438 6.24109 18.5233 5.98183 18.8553L3.62916 21.8597ZM0.105469 24.6084V42.3255H3.63921C3.63921 40.4839 5.13237 38.9909 6.97379 38.9909C8.81531 38.9909 10.3084 40.4839 10.3084 42.3255H20.1521V39.0396H16.2509C15.8297 39.0396 15.4882 38.6981 15.4882 38.2769C15.4882 37.8557 15.8297 37.5143 16.2509 37.5143H20.1521V36.7985H11.5363C11.1151 36.7985 10.7736 36.457 10.7736 36.0358C10.7736 35.6147 11.1151 35.2732 11.5363 35.2732H20.1521V24.6084H13.5726V30.6578C13.5726 31.3273 12.7384 31.7193 12.2217 31.1513L10.5356 29.4301L8.80852 31.1932C8.3301 31.6806 7.50083 31.3363 7.50083 30.6578H7.49854V24.6084H0.105469ZM8.26416 24.6084V30.6578L10.5356 28.3391L12.807 30.6578V24.6084H8.26416ZM22.7469 36.0358H28.2418L26.0945 31.739H22.7469V36.0358ZM25.6804 39.7565C24.2616 39.7565 23.1114 40.9067 23.1114 42.3255C23.1114 43.7443 24.2616 44.8944 25.6804 44.8944C27.0992 44.8944 28.2494 43.7443 28.2494 42.3255C28.2494 40.9067 27.0992 39.7565 25.6804 39.7565ZM25.6804 41.2719C26.2623 41.2719 26.734 41.7436 26.734 42.3255C26.734 42.9073 26.2623 43.379 25.6804 43.379C25.0985 43.379 24.6268 42.9072 24.6268 42.3255C24.6268 41.7436 25.0985 41.2719 25.6804 41.2719ZM6.97389 39.7565C8.39269 39.7565 9.54285 40.9067 9.54285 42.3255C9.54285 43.7443 8.39269 44.8944 6.97389 44.8944C5.55509 44.8944 4.40493 43.7443 4.40493 42.3255C4.40484 40.9067 5.555 39.7565 6.97389 39.7565ZM6.97379 41.2719C7.55567 41.2719 8.02739 41.7436 8.02739 42.3255C8.02739 42.9073 7.55567 43.379 6.97379 43.379C6.39192 43.379 5.9203 42.9072 5.9203 42.3255C5.9203 41.7436 6.39202 41.2719 6.97379 41.2719ZM27.2519 29.7463H20.9657V42.3255H22.3458C22.3458 40.4839 23.8389 38.9909 25.6804 38.9909C27.5219 38.9909 29.015 40.4839 29.015 42.3255H30.503V36.2517L27.2519 29.7463ZM28.2418 36.8015C28.7822 36.8015 29.2243 36.2252 28.892 35.6316L26.7763 31.398C26.6428 31.1311 26.3739 30.9767 26.0944 30.9764V30.9732H22.7469C22.3241 30.9732 21.9813 31.316 21.9813 31.7389V36.0357C21.9813 36.4586 22.3241 36.8014 22.7469 36.8014H28.2418V36.8015ZM24.324 6.41467V11.9039C26.1306 11.8664 27.8882 11.6981 29.5851 11.3887C28.341 8.84132 26.5158 6.81069 24.324 6.41467ZM19.9738 5.98027C17.1397 6.62397 14.5892 8.01397 12.54 9.93301C13.5593 10.3756 14.7218 10.7575 15.9961 11.0649C16.9588 8.9821 18.2895 7.12823 19.9738 5.98027ZM11.4392 11.0695C8.61568 14.2846 7.11113 18.5636 7.49193 23.0773H13.8841C13.8749 22.8757 13.8677 22.6732 13.8625 22.4697H11.9559C11.5331 22.4697 11.1903 22.1269 11.1903 21.7041C11.1903 21.2813 11.5331 20.9385 11.9559 20.9385H13.8624C13.9414 17.8303 14.4982 14.9377 15.4045 12.4919C14.0161 12.1435 12.7484 11.708 11.6389 11.2019C11.5638 11.1676 11.4969 11.1226 11.4392 11.0695ZM31.8547 35.5314C36.3392 32.835 39.4046 28.0196 39.6641 22.4697H33.2541C33.1751 25.5784 32.6181 28.4714 31.7116 30.9174C32.1795 31.0348 32.6334 31.162 33.072 31.2982C33.475 31.4221 33.7014 31.8493 33.5774 32.2523C33.4536 32.6553 33.0264 32.8817 32.6234 32.7577C32.142 32.608 31.6401 32.47 31.12 32.3445C30.9831 32.6406 30.8407 32.9283 30.693 33.2068L31.8547 35.5314ZM39.6641 20.9385C39.3213 13.607 34.0825 7.55574 27.1428 5.98037C28.8269 7.12814 30.1579 8.9821 31.1204 11.0649C31.6404 10.9394 32.1421 10.8014 32.6234 10.6517C33.0264 10.5279 33.4535 10.7541 33.5774 11.1571C33.7013 11.5601 33.475 11.9873 33.072 12.1112C32.6336 12.2475 32.1798 12.3746 31.7121 12.492C32.6185 14.9378 33.1753 17.8304 33.2542 20.9386H39.6641V20.9385ZM22.7928 28.2152V22.4697H15.3942C15.3996 22.6734 15.4073 22.8759 15.4168 23.0773H21.6834V28.2152H22.7928ZM29.3009 30.4213C29.6073 30.4715 29.9094 30.5256 30.2072 30.5834C31.0944 28.2662 31.6427 25.4836 31.7225 22.4696H24.324V28.2151H28.1985L29.3009 30.4213ZM15.394 20.9385H22.7927V13.4354C20.7248 13.3933 18.7433 13.1821 16.9089 12.826C16.022 15.1429 15.4738 17.925 15.394 20.9385ZM24.324 20.9385H31.7226C31.6429 17.925 31.0946 15.1428 30.2076 12.8259C28.3128 13.1944 26.3181 13.3946 24.324 13.4354V20.9385ZM17.5316 11.3888C19.1588 11.6854 20.9303 11.8651 22.7928 11.9038V6.41467C20.6009 6.81069 18.7749 8.84208 17.5316 11.3888Z" fill="#DF1119"/>
</svg>
