<svg width="58" height="58" viewBox="0 0 58 58" fill="none" xmlns="http://www.w3.org/2000/svg">
<path fill-rule="evenodd" clip-rule="evenodd" d="M6.66309 28.2423C6.30376 28.7922 5.45245 28.8216 5.09041 28.147L2.80756 24.2292C2.55732 23.7971 2.7047 23.244 3.13676 22.9937C3.56881 22.7435 4.12196 22.8909 4.3722 23.3229L5.17922 24.7078C6.6888 12.1234 17.4032 2.49219 30.2528 2.49219C44.2005 2.49219 55.5078 13.7994 55.5078 27.7472C55.5078 34.5153 52.8145 40.9013 48.1108 45.6052C47.7569 45.9591 47.1831 45.9591 46.8292 45.6052C46.4753 45.2513 46.4753 44.6776 46.8292 44.3237C55.9732 35.1797 56.0016 20.3432 46.8292 11.1708C37.6744 2.01595 22.831 2.01595 13.6762 11.1708C10.0639 14.7831 7.62553 19.5691 6.98084 24.9075L8.02473 23.5744C8.33161 23.1814 8.89903 23.1118 9.29212 23.4186C9.68509 23.7255 9.75476 24.2931 9.44788 24.686L6.66309 28.2423ZM2.49219 31.4958V52.467H6.67498C6.67498 50.2872 8.4424 48.5199 10.622 48.5199C12.8018 48.5199 14.5691 50.2872 14.5691 52.467H26.2209V48.5776H21.6031C21.1045 48.5776 20.7003 48.1734 20.7003 47.6749C20.7003 47.1763 21.1045 46.7721 21.6031 46.7721H26.2209V45.9249H16.0225C15.5239 45.9249 15.1198 45.5207 15.1198 45.0222C15.1198 44.5236 15.5239 44.1194 16.0225 44.1194H26.2209V31.4958H18.4329V38.6563C18.4329 39.4488 17.4454 39.9128 16.8338 39.2404L14.838 37.2031L12.7938 39.29C12.2275 39.867 11.2459 39.4595 11.2459 38.6563H11.2432V31.4958H2.49219ZM12.1494 31.4958V38.6563L14.838 35.9117L17.5266 38.6563V31.4958H12.1494ZM29.2923 45.0222H35.7964L33.2547 39.9361H29.2923V45.0222ZM32.7646 49.4262C31.0852 49.4262 29.7238 50.7876 29.7238 52.467C29.7238 54.1464 31.0852 55.5078 32.7646 55.5078C34.444 55.5078 35.8054 54.1464 35.8054 52.467C35.8054 50.7876 34.444 49.4262 32.7646 49.4262ZM32.7646 51.2199C33.4533 51.2199 34.0117 51.7783 34.0117 52.467C34.0117 53.1558 33.4533 53.714 32.7646 53.714C32.0758 53.714 31.5174 53.1556 31.5174 52.467C31.5174 51.7783 32.0758 51.2199 32.7646 51.2199ZM10.6222 49.4262C12.3016 49.4262 13.663 50.7876 13.663 52.467C13.663 54.1464 12.3016 55.5078 10.6222 55.5078C8.94276 55.5078 7.58135 54.1464 7.58135 52.467C7.58123 50.7876 8.94265 49.4262 10.6222 49.4262ZM10.622 51.2199C11.3108 51.2199 11.8692 51.7783 11.8692 52.467C11.8692 53.1558 11.3108 53.714 10.622 53.714C9.93329 53.714 9.37504 53.1556 9.37504 52.467C9.37504 51.7783 9.93341 51.2199 10.622 51.2199ZM34.6248 37.5774H27.1839V52.467H28.8175C28.8175 50.2872 30.5848 48.5199 32.7646 48.5199C34.9443 48.5199 36.7116 50.2872 36.7116 52.467H38.4729V45.2776L34.6248 37.5774ZM35.7964 45.9284C36.4361 45.9284 36.9594 45.2463 36.5661 44.5437L34.0617 39.5324C33.9037 39.2165 33.5854 39.0338 33.2546 39.0334V39.0297H29.2923C28.7918 39.0297 28.386 39.4355 28.386 39.9359V45.022C28.386 45.5225 28.7918 45.9283 29.2923 45.9283H35.7964V45.9284ZM31.159 9.96037V16.4578C33.2974 16.4134 35.3778 16.2142 37.3864 15.848C35.9139 12.8327 33.7534 10.4291 31.159 9.96037ZM26.0098 9.44618C22.6551 10.2081 19.6362 11.8534 17.2106 14.1249C18.4172 14.6489 19.7932 15.1008 21.3015 15.4647C22.441 12.9994 24.0162 10.805 26.0098 9.44618ZM15.9076 15.4701C12.5655 19.2758 10.7846 24.3407 11.2353 29.6834H18.8016C18.7908 29.4449 18.7821 29.2052 18.776 28.9643H16.5192C16.0188 28.9643 15.613 28.5585 15.613 28.0581C15.613 27.5576 16.0188 27.1518 16.5192 27.1518H18.7759C18.8694 23.4728 19.5284 20.0489 20.6012 17.1538C18.9578 16.7414 17.4573 16.226 16.1441 15.6269C16.0551 15.5863 15.9759 15.533 15.9076 15.4701ZM40.0729 44.4251C45.381 41.2334 49.0095 35.5335 49.3167 28.9643H41.7293C41.6358 32.6439 40.9765 36.0683 39.9035 38.9636C40.4574 39.1025 40.9947 39.2531 41.5138 39.4144C41.9909 39.561 42.2588 40.0667 42.1121 40.5437C41.9655 41.0207 41.4598 41.2886 40.9828 41.1419C40.413 40.9648 39.8189 40.8014 39.2032 40.6528C39.0413 41.0033 38.8727 41.3438 38.6978 41.6735L40.0729 44.4251ZM49.3167 27.1518C48.9109 18.4737 42.7099 11.311 34.4956 9.4463C36.489 10.8049 38.0644 12.9994 39.2037 15.4647C39.8193 15.3162 40.4131 15.1528 40.9828 14.9757C41.4598 14.8291 41.9654 15.0969 42.1121 15.5739C42.2587 16.0509 41.9909 16.5565 41.5138 16.7032C40.9949 16.8645 40.4577 17.015 39.9041 17.154C40.977 20.049 41.6361 23.4729 41.7294 27.1519H49.3167V27.1518ZM29.3465 35.765V28.9643H20.5891C20.5954 29.2054 20.6045 29.4451 20.6158 29.6834H28.0334V35.765H29.3465ZM37.0501 38.3764C37.4127 38.4358 37.7703 38.4999 38.1228 38.5683C39.173 35.8254 39.822 32.5318 39.9165 28.9642H31.159V35.7649H35.7452L37.0501 38.3764ZM20.5889 27.1518H29.3464V18.2706C26.8987 18.2208 24.5533 17.9708 22.382 17.5493C21.3322 20.2917 20.6832 23.5848 20.5889 27.1518ZM31.159 27.1518H39.9166C39.8222 23.5848 39.1732 20.2916 38.1233 17.5492C35.8805 17.9853 33.5194 18.2223 31.159 18.2706V27.1518ZM23.119 15.8482C25.0451 16.1992 27.142 16.4118 29.3465 16.4577V9.96037C26.752 10.4291 24.5908 12.8336 23.119 15.8482Z" fill="white"/>
</svg>
