<svg width="56" height="56" viewBox="0 0 56 56" fill="none" xmlns="http://www.w3.org/2000/svg">
<path d="M51.8096 33.031L47.5417 25.639C47.4421 25.4665 47.2866 25.3332 47.101 25.261L38.0899 21.7573C38.3704 20.8107 38.5217 19.8091 38.5217 18.7728C38.5217 12.971 33.8017 8.25092 27.9999 8.25092C22.1981 8.25092 17.478 12.971 17.478 18.7728C17.478 19.8092 17.6294 20.8107 17.9098 21.7573L8.89873 25.261C8.71312 25.3332 8.55759 25.4665 8.45806 25.639L4.19014 33.031C4.0625 33.2521 4.03778 33.518 4.12255 33.7588C4.2072 33.9997 4.39292 34.1915 4.63081 34.284L8.3407 35.7266V47.7666C8.3407 48.1274 8.56229 48.4513 8.89873 48.5821L27.6827 55.8858C27.7847 55.9255 27.8922 55.9453 27.9998 55.9453C28.1073 55.9453 28.2149 55.9255 28.3168 55.8858L47.1008 48.5821C47.4372 48.4513 47.6588 48.1274 47.6588 47.7666V35.7266L51.3687 34.284C51.6067 34.1915 51.7923 33.9997 51.877 33.7588C51.962 33.518 51.9372 33.2522 51.8096 33.031ZM28 10.0009C32.8369 10.0009 36.7719 13.936 36.7719 18.7728C36.7719 23.6096 32.8368 27.5447 28 27.5447C23.1632 27.5447 19.2281 23.6096 19.2281 18.7728C19.2281 13.936 23.1631 10.0009 28 10.0009ZM28 29.2947C32.1691 29.2947 35.7797 26.8573 37.4816 23.3325L44.387 26.0697L28 32.4415L11.6129 26.0697L18.5183 23.3325C20.2201 26.8573 23.8307 29.2947 28 29.2947ZM6.21587 33.0226L9.5984 27.164L26.7321 33.8262L23.3496 39.6849L6.21587 33.0226ZM10.0909 36.407L23.4151 41.5879C23.8175 41.7442 24.274 41.5838 24.4899 41.2099L27.125 36.6459V53.7913L10.0909 47.168V36.407ZM45.909 47.168L28.875 53.7913V36.6459L31.51 41.21C31.7261 41.5839 32.1825 41.7444 32.5849 41.588L45.909 36.4071V47.168ZM32.6504 39.6849L29.2677 33.8262L46.4016 27.164L49.7841 33.0226L32.6504 39.6849ZM25.8229 24.4566C26.4286 24.4566 26.9986 24.2201 27.4279 23.7908L34.249 16.9699C35.1353 16.0835 35.1353 14.6413 34.2489 13.7547C33.8196 13.3254 33.2487 13.0889 32.6415 13.0889C32.0344 13.0889 31.4634 13.3254 31.034 13.7547L26.0131 18.7757L24.673 17.0895C24.2397 16.5444 23.5914 16.2317 22.8946 16.2317C22.3841 16.2317 21.8826 16.4069 21.4823 16.725C20.5023 17.5043 20.3389 18.9355 21.1179 19.9154L23.9729 23.5082C24.3997 24.1028 25.089 24.4567 25.8229 24.4566ZM22.5711 18.0948C22.6888 18.0013 22.8119 17.9816 22.8945 17.9816C23.0547 17.9816 23.2036 18.0533 23.3029 18.1782L25.253 20.6324C25.4082 20.8276 25.6392 20.9474 25.8883 20.9616C26.1367 20.9755 26.3805 20.8831 26.5568 20.7068L32.2713 14.9921C32.3701 14.8933 32.5015 14.8389 32.6414 14.8389C32.7813 14.8389 32.9126 14.8934 33.0113 14.992C33.2154 15.1962 33.2155 15.5284 33.0114 15.7325L26.1905 22.5535C26.0638 22.68 25.9205 22.7066 25.8226 22.7066C25.6475 22.7066 25.4899 22.6245 25.3901 22.4816C25.3797 22.4667 25.369 22.4523 25.3577 22.4382L22.4878 18.8266C22.3091 18.6018 22.3466 18.2735 22.5711 18.0948ZM27.125 5.02786V0.929688C27.125 0.446469 27.5166 0.0546875 28 0.0546875C28.4832 0.0546875 28.875 0.446469 28.875 0.929688V5.02786C28.875 5.51108 28.4832 5.90286 28 5.90286C27.5166 5.90286 27.125 5.51108 27.125 5.02786ZM18.2898 3.64252C18.0482 3.22405 18.1917 2.68887 18.6101 2.44727C19.0285 2.20577 19.5638 2.34905 19.8054 2.76752L21.8544 6.31662C22.096 6.73509 21.9526 7.27027 21.5342 7.51188C21.3964 7.59139 21.2459 7.62923 21.0974 7.62923C20.795 7.62923 20.501 7.47228 20.3388 7.19162L18.2898 3.64252ZM11.6744 9.2143C11.9161 8.79572 12.4512 8.65233 12.8697 8.89405L16.4188 10.9431C16.8373 11.1847 16.9807 11.7199 16.7391 12.1383C16.5771 12.419 16.2829 12.5759 15.9804 12.5759C15.832 12.5759 15.6816 12.5381 15.5438 12.4586L11.9947 10.4095C11.5762 10.1679 11.4328 9.63277 11.6744 9.2143ZM9.05164 18.5425C9.05164 18.0592 9.44331 17.6675 9.92664 17.6675H14.0247C14.508 17.6675 14.8997 18.0592 14.8997 18.5425C14.8997 19.0257 14.508 19.4175 14.0247 19.4175H9.92664C9.44331 19.4175 9.05164 19.0258 9.05164 18.5425ZM34.0838 6.54686L36.1329 2.99775C36.3745 2.57917 36.9097 2.43567 37.3281 2.6775C37.7466 2.91911 37.8901 3.45428 37.6485 3.87275L35.5993 7.42186C35.4373 7.70252 35.1431 7.85947 34.8407 7.85947C34.6923 7.85947 34.5418 7.82163 34.404 7.74211C33.9856 7.50061 33.8422 6.96544 34.0838 6.54686ZM39.0307 12.5372C38.7891 12.1187 38.9324 11.5836 39.3509 11.342L42.9 9.29294C43.3185 9.05144 43.8537 9.19483 44.0953 9.61319C44.3369 10.0317 44.1935 10.5668 43.775 10.8084L40.2259 12.8575C40.0881 12.937 39.9377 12.9748 39.7893 12.9748C39.4868 12.9748 39.1926 12.8179 39.0307 12.5372ZM41.5147 18.128H45.6127C46.0961 18.128 46.4877 18.5198 46.4877 19.003C46.4877 19.4862 46.0961 19.878 45.6127 19.878H41.5147C41.0313 19.878 40.6397 19.4862 40.6397 19.003C40.6397 18.5198 41.0315 18.128 41.5147 18.128Z" fill="white"/>
</svg>
