<svg width="28" height="26" viewBox="0 0 28 26" fill="none" xmlns="http://www.w3.org/2000/svg">
<path d="M6.21165 1.84762C6.65048 1.42496 6.65048 0.739652 6.21165 0.316994C5.77282 -0.105665 5.0613 -0.105665 4.62247 0.316994C-0.635988 5.38169 -0.635988 13.6193 4.62247 18.684C5.0613 19.1067 5.77282 19.1067 6.21165 18.684C6.65048 18.2613 6.65048 17.576 6.21165 17.1534C1.8309 12.934 1.8309 6.06695 6.21165 1.84762Z" fill="#DF1119"/>
<path d="M23.6927 0.316994C23.2539 -0.105665 22.5424 -0.105665 22.1035 0.316994C21.6647 0.739652 21.6647 1.42496 22.1035 1.84762C26.4843 6.06695 26.4843 12.934 22.1035 17.1534C21.6647 17.576 21.6647 18.2613 22.1035 18.684C22.5424 19.1067 23.2539 19.1067 23.6927 18.684C28.9512 13.6193 28.9512 5.38164 23.6927 0.316994Z" fill="#DF1119"/>
<path d="M9.38994 4.90804C9.82877 4.48538 9.82877 3.80008 9.38994 3.37742C8.95111 2.95476 8.23959 2.95476 7.80076 3.37742C4.2953 6.75372 4.2953 12.2466 7.80076 15.6229C8.23959 16.0456 8.95111 16.0456 9.38994 15.6229C9.82877 15.2002 9.82877 14.5149 9.38994 14.0923C6.76219 11.5613 6.76219 7.43902 9.38994 4.90804Z" fill="#DF1119"/>
<path d="M20.5142 3.37754C20.0754 2.95488 19.3639 2.95488 18.9251 3.37754C18.4862 3.8002 18.4862 4.4855 18.9251 4.90816C21.5529 7.43914 21.5529 11.5615 18.9251 14.0924C18.4862 14.5151 18.4862 15.2004 18.9251 15.623C19.3639 16.0457 20.0754 16.0457 20.5142 15.623C24.0197 12.2467 24.0197 6.75384 20.5142 3.37754Z" fill="#DF1119"/>
<path d="M18.6526 9.50109C18.6526 7.10999 16.6403 5.17188 14.1577 5.17188C11.6751 5.17188 9.66288 7.10999 9.66288 9.50109C9.66288 11.5184 11.0951 13.2132 13.0338 13.6939L13.0307 24.6531C13.0305 25.2509 13.5334 25.7356 14.1541 25.7357C14.7747 25.7359 15.2779 25.2515 15.2781 24.6537L15.2812 13.694C17.22 13.2136 18.6526 11.5186 18.6526 9.50109ZM14.1577 11.6657C12.9163 11.6657 11.9102 10.6968 11.9102 9.50109C11.9102 8.30541 12.9162 7.33646 14.1577 7.33646C15.3991 7.33646 16.4051 8.30541 16.4051 9.50109C16.4051 10.6968 15.3991 11.6657 14.1577 11.6657Z" fill="#DF1119"/>
</svg>
